<?xml version="1.0" encoding="utf-8"?>
<!-- Generator: Adobe Illustrator 19.0.0, SVG Export Plug-In . SVG Version: 6.00 Build 0)  -->
<svg version="1.1" id="Laag_1" xmlns="http://www.w3.org/2000/svg" xmlns:xlink="http://www.w3.org/1999/xlink" x="0px" y="0px"
	 viewBox="-244 209 150 63" style="enable-background:new -244 209 150 63;" xml:space="preserve">
<style type="text/css">
	.st0{fill:#FFFFFF;}
</style>
<g>
	<path class="st0" d="M-173.9,267.3V267c0.6-0.1,0.6-0.2,0.6-0.8v-1.9c0-0.9-0.4-1.2-0.9-1.2c-0.3,0-0.7,0.1-0.9,0.4v2.7
		c0,0.6,0.1,0.7,0.6,0.8v0.3h-2.5V267c0.7-0.1,0.7-0.1,0.7-0.8v-5.4c-0.6-0.1-1.1-0.1-2.2-0.1h-0.6v5.3c0,0.9,0.1,1,1,1.1v0.4h-3.3
		v-0.4c0.9-0.1,1-0.1,1-1.1v-5.3h-0.5c-1,0-1.2,0.1-1.3,0.4c-0.1,0.2-0.3,0.5-0.4,1h-0.4c0.1-0.7,0.1-1.5,0.1-2.1h0.2
		c0.2,0.2,0.3,0.3,0.6,0.3h4.6c0.9,0,1.1-0.1,1.1-0.2v-0.2c0.3-0.1,0.9-0.2,1.2-0.3v3.4c0.4-0.4,0.9-0.7,1.5-0.7
		c1,0,1.5,0.6,1.5,1.8v2c0,0.7,0.1,0.8,0.7,0.8v0.3h-2.4L-173.9,267.3L-173.9,267.3z M-166.8,266.3c-0.7,0.9-1.5,1.2-1.9,1.2
		c-1.4,0-2.2-1.1-2.2-2.4c0-0.8,0.3-1.5,0.8-2s1.1-0.8,1.7-0.8c1,0,1.7,0.8,1.7,1.7c0,0.2-0.1,0.4-0.3,0.4s-1.6,0.1-2.7,0.2
		c0,1.3,0.8,1.9,1.5,1.9c0.4,0,0.8-0.2,1.2-0.5L-166.8,266.3z M-169.6,264.1c0.5,0,1,0,1.5,0c0.2,0,0.2,0,0.3-0.2
		c0-0.6-0.3-1.1-0.8-1.1C-169.1,262.7-169.6,263.2-169.6,264.1z M-156.8,260.5c-0.6,0-0.8,0.2-0.9,0.7c0,0.3-0.1,0.8-0.1,1.8v4.4
		h-0.5l-4.6-5.6l0,0v2.6c0,1,0,1.5,0.1,1.8c0.1,0.5,0.3,0.7,1.1,0.7v0.4h-2.7v-0.4c0.6,0,0.9-0.2,0.9-0.7c0-0.4,0.1-0.9,0.1-1.8V262
		c0-0.7,0-0.9-0.2-1.2c-0.2-0.3-0.5-0.4-0.9-0.4V260h1.9l4.3,5.1l0,0V263c0-1-0.1-1.5-0.1-1.8c-0.1-0.5-0.3-0.6-1.1-0.7v-0.4h2.7
		V260.5z M-152.2,266.3c-0.7,0.9-1.5,1.2-1.9,1.2c-1.4,0-2.2-1.1-2.2-2.4c0-0.8,0.3-1.5,0.8-2s1.1-0.8,1.7-0.8c1,0,1.7,0.8,1.7,1.7
		c0,0.2-0.1,0.4-0.3,0.4s-1.6,0.1-2.7,0.2c0,1.3,0.8,1.9,1.5,1.9c0.4,0,0.8-0.2,1.2-0.5L-152.2,266.3z M-155.1,264.1
		c0.5,0,1,0,1.5,0c0.2,0,0.2,0,0.3-0.2c0-0.6-0.3-1.1-0.8-1.1C-154.6,262.7-155.1,263.2-155.1,264.1z M-149.4,267.3
		c-0.2,0.1-0.4,0.1-0.5,0.1c-0.8,0-1.2-0.4-1.2-1.4v-3.1h-0.7l-0.1-0.1l0.3-0.4h0.5v-0.8l1.1-0.8l0.1,0.1v1.6h1.1
		c0.1,0.1,0.1,0.4-0.1,0.5h-1.1v2.8c0,0.9,0.4,1,0.6,1s0.4-0.1,0.6-0.1l0.1,0.3L-149.4,267.3z M-145.1,267.3V267
		c0.6-0.1,0.6-0.1,0.6-0.8v-1.9c0-0.9-0.4-1.2-0.9-1.2c-0.3,0-0.7,0.1-0.9,0.4v2.7c0,0.6,0.1,0.7,0.6,0.8v0.3h-2.5V267
		c0.6-0.1,0.7-0.1,0.7-0.8V261c0-0.7,0-0.7-0.7-0.8v-0.3c0.6-0.1,1.3-0.2,1.9-0.4v3.5c0.4-0.4,0.9-0.7,1.5-0.7
		c0.9,0,1.5,0.6,1.5,1.8v2c0,0.7,0.1,0.7,0.7,0.8v0.3h-2.5L-145.1,267.3L-145.1,267.3z M-137.9,266.3c-0.7,0.9-1.5,1.2-1.9,1.2
		c-1.4,0-2.2-1.1-2.2-2.4c0-0.8,0.3-1.5,0.8-2s1.1-0.8,1.7-0.8c1,0,1.7,0.8,1.7,1.7c0,0.2-0.1,0.4-0.3,0.4s-1.6,0.1-2.7,0.2
		c0,1.3,0.8,1.9,1.5,1.9c0.4,0,0.8-0.2,1.2-0.5L-137.9,266.3z M-140.9,264.1c0.5,0,1,0,1.5,0c0.2,0,0.2,0,0.3-0.2
		c0-0.6-0.3-1.1-0.8-1.1C-140.4,262.7-140.8,263.2-140.9,264.1z M-135.4,263.5c0.4-0.6,0.8-1.2,1.3-1.2c0.4,0,0.7,0.3,0.7,0.6
		c0,0.3-0.2,0.6-0.5,0.7c-0.1,0.1-0.3,0-0.3,0c-0.2-0.2-0.3-0.2-0.5-0.2s-0.5,0.2-0.7,0.7v2c0,0.7,0.1,0.7,0.9,0.8v0.3h-2.8v-0.3
		c0.6-0.1,0.7-0.1,0.7-0.8v-2.4c0-0.6-0.1-0.7-0.6-0.8v-0.3c0.6-0.1,1.2-0.2,1.8-0.4L-135.4,263.5L-135.4,263.5z M-133.2,267.3V267
		c0.7-0.1,0.7-0.1,0.7-0.9V261c0-0.7-0.1-0.7-0.7-0.8v-0.3c0.6-0.1,1.4-0.2,1.9-0.4v6.6c0,0.7,0.1,0.8,0.8,0.9v0.3L-133.2,267.3
		L-133.2,267.3z M-126.4,267.4c-0.3,0-0.5-0.1-0.6-0.2c-0.1-0.1-0.2-0.3-0.3-0.4c-0.4,0.3-0.9,0.7-1.2,0.7c-0.9,0-1.4-0.7-1.4-1.4
		c0-0.6,0.3-0.9,0.9-1.1c0.7-0.2,1.5-0.5,1.7-0.7V264c0-0.7-0.3-1.1-0.8-1.1c-0.2,0-0.3,0.1-0.4,0.2c-0.1,0.2-0.2,0.4-0.3,0.7
		s-0.2,0.3-0.4,0.3c-0.3,0-0.6-0.2-0.6-0.5c0-0.2,0.1-0.3,0.4-0.5c0.4-0.3,1.1-0.7,1.8-0.8c0.4,0,0.7,0.1,1,0.3
		c0.4,0.3,0.5,0.8,0.5,1.4v1.9c0,0.5,0.2,0.6,0.4,0.6c0.1,0,0.3,0,0.4-0.1l0.1,0.3L-126.4,267.4z M-127.4,264.6
		c-0.2,0.1-0.5,0.3-0.7,0.4c-0.4,0.2-0.6,0.4-0.6,0.8c0,0.6,0.4,0.8,0.7,0.8c0.2,0,0.4-0.1,0.6-0.3L-127.4,264.6L-127.4,264.6z
		 M-121.9,267.3V267c0.5-0.1,0.6-0.1,0.6-0.9v-1.8c0-0.8-0.3-1.1-0.8-1.1c-0.3,0-0.7,0.2-1,0.4v2.6c0,0.7,0.1,0.7,0.6,0.8v0.3h-2.6
		V267c0.7-0.1,0.8-0.1,0.8-0.8v-2.3c0-0.7-0.1-0.7-0.6-0.8v-0.3c0.6-0.1,1.2-0.2,1.8-0.4v0.8c0.2-0.2,0.4-0.3,0.7-0.5
		c0.3-0.2,0.6-0.3,0.9-0.3c0.9,0,1.4,0.6,1.4,1.7v2.1c0,0.7,0.1,0.7,0.7,0.8v0.3L-121.9,267.3L-121.9,267.3z M-113.4,267
		c-0.3,0-1.2,0.2-2,0.4v-0.7l-0.7,0.4c-0.3,0.2-0.5,0.2-0.7,0.2c-0.9,0-2.2-0.8-2.2-2.4c0-1.5,1.3-2.7,2.9-2.7c0.1,0,0.3,0,0.6,0.1
		V261c0-0.6-0.1-0.7-0.8-0.8v-0.3c0.7-0.1,1.5-0.2,2-0.4v6.4c0,0.6,0.1,0.6,0.5,0.7h0.3L-113.4,267L-113.4,267z M-115.4,263.3
		c-0.2-0.4-0.6-0.6-0.9-0.6c-0.4,0-1.2,0.3-1.2,2c0,1.3,0.8,1.9,1.4,1.9c0.3,0,0.5-0.1,0.8-0.3v-3H-115.4z M-110.1,263.8
		c-0.3-0.7-0.6-1.1-1.2-1.1c-0.3,0-0.6,0.3-0.6,0.7c0,0.4,0.3,0.6,0.9,0.9c0.9,0.4,1.5,0.8,1.5,1.6c0,1.1-1,1.6-1.9,1.6
		c-0.6,0-1.1-0.2-1.3-0.4c-0.1-0.2-0.2-0.9-0.2-1.4h0.3c0.2,0.7,0.7,1.4,1.4,1.4c0.4,0,0.7-0.3,0.7-0.7c0-0.4-0.2-0.6-0.8-0.9
		c-0.6-0.3-1.4-0.7-1.4-1.6c0-0.8,0.7-1.5,1.8-1.5c0.5,0,0.8,0.1,1,0.2c0.1,0.3,0.2,1,0.3,1.2L-110.1,263.8L-110.1,263.8z"/>
	<g>
		<path class="st0" d="M-170.4,221.8c-1.1,0.1-1.6,0.4-1.7,1.1c-0.1,0.6-0.1,1.3-0.1,2.8v0.9c0,2.1-0.3,3.7-1.4,4.8
			c-0.9,0.9-2,1.3-3.4,1.3c-1.2,0-2.3-0.3-3.1-0.9c-1.1-0.9-1.6-2.3-1.6-4.5v-3.8c0-1.7-0.2-1.8-1.6-1.9V221h5.1v0.6
			c-1.4,0.1-1.6,0.2-1.6,1.9v3.4c0,2.9,1.1,4.6,3.3,4.6c2.5,0,3.3-2,3.3-5.1v-0.9c0-1.5-0.1-2.3-0.2-2.8c-0.1-0.7-0.5-1-1.8-1.1V221
			h4.7L-170.4,221.8L-170.4,221.8z M-158.1,222.7c0.6,0,1.1-0.5,1.1-1.1c0-0.7-0.5-1.2-1.1-1.2s-1.1,0.5-1.1,1.2
			C-159.4,222.2-158.8,222.7-158.1,222.7z M-155.6,232.6v-0.5c-1.2-0.1-1.4-0.2-1.4-1.5v-6.5c-0.7,0.2-2.4,0.6-3.3,0.7v0.5
			c1,0.2,1.4,0.2,1.4,1.4v3.8c0,1.3-0.2,1.4-1.4,1.5v0.5h4.7V232.6z M-144.6,227.3c0.1-1.4,0.8-2.4,1.8-2.4c0.9,0,1.4,1,1.4,2
			c0,0.3-0.1,0.4-0.4,0.4H-144.6z M-139.9,227.9c0.3,0,0.5-0.2,0.5-0.5c0-2.1-1.4-3.2-3.2-3.2c-1,0-1.9,0.3-2.7,1.2
			c-0.8,0.8-1.4,2.1-1.4,3.4c0,2.2,1.5,4,3.9,4c0.7,0,2.1-0.4,3.3-1.9l-0.3-0.4c-0.7,0.6-1.4,0.9-2.2,0.9c-1.4,0-2.7-0.8-2.7-3.3
			L-139.9,227.9z M-111.6,227.3c0.1-1.4,0.8-2.4,1.8-2.4c0.9,0,1.4,1,1.4,2c0,0.3-0.1,0.4-0.4,0.4H-111.6z M-106.9,227.9
			c0.4,0,0.5-0.2,0.5-0.5c0-2.1-1.4-3.2-3.2-3.2c-1,0-1.9,0.3-2.7,1.2c-0.8,0.8-1.4,2.1-1.4,3.4c0,2.2,1.5,4,3.9,4
			c0.7,0,2.1-0.4,3.3-1.9l-0.3-0.4c-0.7,0.6-1.4,0.9-2.2,0.9c-1.4,0-2.7-0.8-2.7-3.3L-106.9,227.9z M-135.4,226.2v-2.1
			c-1,0.4-2,0.6-3,0.7v0.5c1,0.2,1.1,0.3,1.1,1.4v4c0,1.2-0.2,1.3-1.3,1.4v0.5h4.8v-0.5c-1.4-0.1-1.6-0.2-1.6-1.4v-3.5
			c0.4-0.9,0.9-1.3,1.3-1.3c0.3,0,0.7,0.2,1,0.5c0.1,0.1,0.3,0.1,0.4,0c0.4-0.3,0.7-0.8,0.7-1.4c0-0.5-0.5-0.9-1.2-0.9
			C-133.9,224.1-134.8,225.1-135.4,226.2L-135.4,226.2z M-125.8,226.5c0-0.4-0.2-1.7-0.4-2.1c-0.4-0.2-1-0.3-1.8-0.3
			c-1.9,0-3.1,1.2-3.1,2.5c0,1.5,1.4,2.2,2.4,2.7c1.1,0.5,1.5,1,1.5,1.6c0,0.7-0.5,1.2-1.2,1.2c-1.2,0-2-1.2-2.4-2.4l-0.5,0.1
			c0,0.8,0.2,2.1,0.3,2.4c0.4,0.3,1.3,0.6,2.3,0.6c1.6,0,3.3-0.9,3.3-2.7c0-1.4-1-2.1-2.5-2.7c-0.9-0.4-1.5-0.8-1.5-1.5
			s0.5-1.2,1.1-1.2c1,0,1.6,0.8,2,1.9L-125.8,226.5z M-122.3,222.7c0.6,0,1.1-0.5,1.1-1.1c0-0.7-0.5-1.2-1.1-1.2
			c-0.6,0-1.1,0.5-1.1,1.2C-123.6,222.2-122.9,222.7-122.3,222.7z M-119.9,232.6v-0.5c-1.2-0.1-1.4-0.2-1.4-1.5v-6.5
			c-0.7,0.2-2.3,0.6-3.3,0.7v0.5c1,0.2,1.3,0.2,1.3,1.4v3.8c0,1.3-0.2,1.4-1.3,1.5v0.5h4.7C-119.9,232.5-119.9,232.6-119.9,232.6z
			 M-103.4,222.7c0.6,0,1.1-0.5,1.1-1.1c0-0.7-0.5-1.2-1.1-1.2c-0.6,0-1.1,0.5-1.1,1.2C-104.4,222.2-103.9,222.7-103.4,222.7z
			 M-100.9,232.6v-0.5c-1.2-0.1-1.4-0.2-1.4-1.5v-6.5c-0.7,0.2-2.3,0.6-3.3,0.7v0.5c1,0.2,1.3,0.2,1.3,1.4v3.8
			c0,1.3-0.2,1.4-1.3,1.5v0.5h4.7C-100.9,232.5-100.9,232.6-100.9,232.6z M-99.2,223v1.5h-1l-0.4,0.7v0.2h1.4v5.2
			c0,1.6,0.9,2.3,2.2,2.3c0.3,0,0.4-0.1,0.6-0.1c0.3-0.1,1.3-0.6,1.7-0.9l-0.2-0.5c-0.3,0.1-0.8,0.3-1.2,0.3s-1.1-0.3-1.1-1.8v-4.6
			h2.1c0.2-0.2,0.2-0.6,0.2-0.9h-2.3v-2.5l-0.3-0.1C-97.9,222.2-98.8,222.7-99.2,223z M-118.2,223v1.5h-1l-0.4,0.7v0.2h1.4v5.2
			c0,1.6,0.9,2.3,2.2,2.3c0.3,0,0.4-0.1,0.6-0.1c0.3-0.1,1.3-0.6,1.7-0.9l-0.2-0.5c-0.3,0.1-0.8,0.3-1.2,0.3s-1.1-0.3-1.1-1.8v-4.6
			h2.1c0.2-0.2,0.3-0.6,0.2-0.9h-2.3v-2.5l-0.3-0.1C-116.9,222.2-117.8,222.7-118.2,223z M-150.1,232.6c0.9-2.8,1.5-4.6,2.2-6.5
			c0.3-0.9,0.5-1,1.4-1.1v-0.5h-3.6v0.5c0.2,0,0.5,0.1,0.7,0.1c0.4,0.1,0.5,0.4,0.3,0.9l-1.6,5.4h-0.1l0,0l-1.5-5.4
			c-0.1-0.6-0.1-0.8,0.1-0.9c0.2-0.1,0.6-0.2,0.8-0.2v-0.5h-4.4v0.6c1.1,0.1,0.9,0.2,1.3,1.2l2.1,6.4H-150.1z M-170.6,225.3
			c1,0.2,1.4,0.3,1.4,1.4v3.9c0,1.2-0.2,1.3-1.4,1.5v0.5h4.5v-0.5c-0.9-0.1-1.1-0.2-1.1-1.4v-4.5c0.5-0.4,1.2-0.8,1.6-0.8
			c0.9,0,1.7,0.5,1.7,1.9v3.2c0,1.3-0.1,1.4-1.1,1.5v0.5h4.3V232c-1-0.1-1.3-0.2-1.3-1.4V227c0-1.9-0.9-3-2.4-3
			c-0.5,0-1,0.2-1.2,0.3l-1.6,1.1V224c-0.7,0.2-2.4,0.6-3.3,0.7L-170.6,225.3L-170.6,225.3z M-161.9,241.5c0.6,0,1.1-0.5,1.1-1.1
			c0-0.7-0.5-1.2-1.1-1.2s-1.1,0.5-1.1,1.2C-163.1,241-162.6,241.5-161.9,241.5z M-159.4,251.4v-0.5c-1.2-0.1-1.4-0.2-1.4-1.5v-6.5
			c-0.7,0.2-2.3,0.6-3.3,0.7v0.5c1,0.2,1.3,0.2,1.3,1.4v3.8c0,1.3-0.2,1.4-1.3,1.5v0.5h4.7V251.4z M-170.2,246.1
			c0.1-1.4,0.8-2.4,1.8-2.4c0.9,0,1.4,1,1.4,2c0,0.3-0.1,0.4-0.4,0.4H-170.2z M-165.6,246.7c0.3,0,0.5-0.2,0.5-0.5
			c0-2.1-1.4-3.2-3.2-3.2c-1,0-1.9,0.3-2.7,1.2c-0.8,0.8-1.4,2.1-1.4,3.4c0,2.2,1.5,4,3.9,4c0.7,0,2.1-0.4,3.3-1.9l-0.3-0.4
			c-0.7,0.6-1.4,0.9-2.2,0.9c-1.4,0-2.7-0.8-2.7-3.3L-165.6,246.7z M-146.8,246.1c0.1-1.4,0.8-2.4,1.8-2.4c0.9,0,1.4,1,1.4,2
			c0,0.3-0.1,0.4-0.4,0.4H-146.8z M-142.1,246.7c0.3,0,0.5-0.2,0.5-0.5c0-2.1-1.4-3.2-3.2-3.2c-1,0-1.9,0.3-2.7,1.2
			c-0.8,0.8-1.4,2.1-1.4,3.4c0,2.2,1.5,4,3.9,4c0.7,0,2.1-0.4,3.3-1.9l-0.3-0.4c-0.7,0.6-1.4,0.9-2.2,0.9c-1.4,0-2.7-0.8-2.7-3.3
			L-142.1,246.7z M-173.9,248.1c-0.3,0.9-0.7,1.4-1.1,1.8c-0.5,0.5-1.1,0.7-1.9,0.7c-0.7,0-1.1,0-1.5-0.2s-0.4-0.5-0.4-1.5v-6.5
			c0-1.6,0.2-1.7,1.7-1.8V240h-5.4v0.6c1.5,0.1,1.7,0.2,1.7,1.8v6.6c0,1.6-0.2,1.7-1.9,1.8v0.6h8.8c0.2-0.5,0.6-2.5,0.7-3.2
			L-173.9,248.1z M-152.9,249.9c-0.4,0.3-0.9,0.5-1.4,0.5c-1,0-2.4-1-2.4-3.3c0-2.8,1.5-3.4,2.2-3.4c0.8,0,1.3,0.2,1.7,0.8v5.4
			H-152.9z M-149.4,250.4l-0.6-0.1c-0.7-0.1-0.9-0.2-0.9-1.2v-10.4c-0.8,0.3-2.3,0.5-3.4,0.7v0.5c1.3,0.1,1.5,0.2,1.5,1.3v2
			c-0.5-0.2-1.1-0.2-1.3-0.2c-3.1,0-4.7,2.1-4.7,4.7c0,2.7,1.9,3.9,3.5,3.9c0.2,0,0.8,0,1.4-0.3l1.1-0.7v1.1
			c0.7-0.2,2.4-0.6,3.4-0.7V250.4z M-140.8,244.1c1,0.2,1.3,0.3,1.3,1.4v3.9c0,1.2-0.2,1.3-1.4,1.5v0.5h4.4v-0.5
			c-0.9-0.1-1.1-0.2-1.1-1.4V245c0.5-0.4,1.2-0.8,1.6-0.8c0.9,0,1.7,0.5,1.7,1.9v3.2c0,1.3-0.1,1.4-1.1,1.5v0.5h4.2v-0.5
			c-1-0.1-1.2-0.2-1.2-1.4v-3.6c0-1.9-0.9-3-2.4-3c-0.5,0-1,0.2-1.2,0.3l-1.5,1.1v-1.4c-0.7,0.2-2.3,0.6-3.3,0.7V244.1z"/>
		<g>
			<path class="st0" d="M-231.2,225.7c0.3-0.1,0.7-0.1,1-0.2v2.2c0,0.3,0,0.3,0.3,0.3v0.2h-1.3V228c0.3,0,0.3,0,0.3-0.3v-1.6
				c0-0.2,0-0.2-0.2-0.2h-0.2L-231.2,225.7L-231.2,225.7z M-204.6,225.6c0,0.2-0.1,0.4-0.1,0.8h0.2c0.1-0.2,0.1-0.3,0.4-0.3h0.9
				c-0.4,0.7-0.8,1.4-1.3,2.1v0.1l0.6-0.1c0.4-0.8,0.7-1.7,1.1-2.6v-0.1h-1.8L-204.6,225.6L-204.6,225.6z M-202.4,225.6l-0.2,1.4
				c0.1,0,0.2-0.1,0.4-0.1c0.3,0,0.6,0.2,0.6,0.6c0,0.3-0.1,0.5-0.3,0.5s-0.4-0.2-0.5-0.3c0,0-0.1,0-0.2,0c-0.1,0.1-0.1,0.1-0.2,0.2
				c0,0.1,0,0.1,0.1,0.2c0.1,0.1,0.3,0.2,0.6,0.2c0.2,0,0.5-0.1,0.7-0.3c0.3-0.2,0.4-0.5,0.4-0.8s-0.3-0.7-0.9-0.7
				c-0.2,0-0.3,0.1-0.5,0.1l0.1-0.6h1.1l0.1-0.5h-1.3L-202.4,225.6L-202.4,225.6z M-229.2,225.6l-0.1,1.4c0.1,0,0.2-0.1,0.4-0.1
				c0.3,0,0.6,0.2,0.6,0.6c0,0.3-0.1,0.5-0.3,0.5s-0.4-0.2-0.5-0.3c0,0-0.1,0-0.2,0c-0.1,0.1-0.1,0.1-0.2,0.2c0,0.1,0,0.1,0.1,0.2
				c0.1,0.1,0.3,0.2,0.6,0.2c0.2,0,0.5-0.1,0.7-0.3c0.3-0.2,0.4-0.5,0.4-0.8s-0.3-0.7-0.9-0.7c-0.2,0-0.3,0.1-0.5,0.1l0.1-0.6h1.1
				l0.1-0.5h-1.4L-229.2,225.6L-229.2,225.6z M-189.4,240.5c0,17.1-12,31.1-26.7,31.1s-26.7-14-26.7-31.1s12-31.1,26.7-31.1
				S-189.4,223.4-189.4,240.5z M-189.1,240.5c0-17.4-12.1-31.5-27.1-31.5c-14.9,0-27.1,14.1-27.1,31.5s12.2,31.5,27.1,31.5
				C-201.1,272-189.1,257.9-189.1,240.5z M-217.1,221.5c0.1,0.1,0.3,0.2,0.4,0.2c0.2-0.1,0.4-0.3,0.4-0.3c-0.1,0-0.2,0-0.3,0
				s-0.1,0.1-0.2,0.1C-216.9,221.4-216.9,221.4-217.1,221.5 M-216.9,220.9c-0.1,0-0.2,0.1-0.1,0.2c0.1,0,0.1-0.1,0.2,0
				c0,0,0.1,0,0.2,0c0.1,0,0.1-0.1,0.2,0c0.1,0,0.1-0.1,0-0.1s-0.1,0-0.2,0c-0.1,0.1-0.1,0-0.1,0
				C-216.9,220.9-216.9,220.9-216.9,220.9 M-216.6,220.1L-216.6,220.1L-216.6,220.1L-216.6,220.1z M-215.9,219.7
				c-0.3,0-0.8,0.2-0.8,0.2v0.1h0.1l0,0c0,0,0,0,0,0.1s0.1,0.2,0.2,0.2c0.1,0,0.2-0.1,0.2-0.2c0-0.1,0-0.1-0.1-0.1
				c0.1,0,0.2-0.1,0.4-0.1C-215.8,219.9-215.8,219.9-215.9,219.7C-215.8,219.7-215.8,219.7-215.9,219.7 M-217.1,219.6
				c0.5-0.3,0.9-0.5,1.6-0.5c0.6,0,0.7,0.4,0.7,0.4c0.2-0.2,0.1-0.8-0.6-0.8C-216.4,218.9-216.9,219.4-217.1,219.6 M-216.2,234.8
				c-1.2-0.1-1.3-0.9-1.3-1.3c0-0.3,0.3-0.2-0.2-0.4c-1-0.5-1.7-0.1-1.7-0.1l0.1,0.1c0.8,0,1.1,0.3,1.1,0.3c-0.1,2.1,1.3,2,1.3,2
				c0.2,0.4,0.6,0.5,0.9,0.6c0.1,0,0.3-0.1,0.4-0.1C-216.1,235.6-216.2,234.8-216.2,234.8 M-212.8,235.2l0.6-0.2
				c0.1-0.3,0.3-0.4,0.4-0.5c0.1,0,0.1-0.1,0.2-0.2c0-0.3,0-0.4-0.2-0.7c-0.7-0.9-0.7-1.7-0.8-1.8c0-0.1-0.1,0-0.1,0
				s0.4,1.8-0.3,1.9c0,0,0.1,0.9-0.8,1.1c-0.1,0-0.2,0.1-0.2,0.2c0,0.2-0.1,0.4-0.2,0.5C-213.6,235.4-213.1,235.3-212.8,235.2
				C-212.8,235.3-212.8,235.3-212.8,235.2 M-212.6,231c0.1,0,0.3-0.1,0.7-0.1s0.5,0.3,0.5,0.3l0.1,0.4c0,0,0.4,0.2,0.5,0
				s0.1-0.3-0.1-0.5c-0.3-0.3-0.4-0.4-0.9-0.4C-212.4,230.6-212.8,230.9-212.6,231L-212.6,231 M-221.9,228.4
				c-0.5,0.3-0.7,1.1-0.6,2.1c0.1,1.4,0.8,1.6,1.3,0.8c0.5-0.6,0.7-1.2,0.5-1.2c-0.3,0.1-0.9,0.1-1.1-0.2
				C-222.2,229.4-221.9,228.8-221.9,228.4L-221.9,228.4 M-213.2,251.6c-0.6-0.5-1.3-1.1-1.9-2c-1.4-2.3-1.6-4.1-1.6-9.3
				c0-0.2,0-0.4,0-0.6l-0.8-0.1c0,0-0.2,5.4-0.2,6c0,0.8,0.2,1.6,0.4,0c0.1-0.8-0.1-3.2,0.1-3.2c0.3,0,0.3,9.2,0,9.2
				c-0.6,0-0.8-0.2-1.7-0.1c-0.3-0.4-1.2-0.4-1.3-0.3c0,0,0.3,0.2,0.6,0.3l-9.6,2.7l-0.6-0.4l-4,1.7l4.4-0.4l0.2-0.7l9.9-2.6
				c0.4,0.2,0.9,0.4,0.9,0.4c0.1,0.1,1.4-0.1,1.3,0.4c0,0.3-0.4,0.5-0.7,0.6s-0.8,0-0.8,0.1s0.9,0.2,1.1,0.1
				c0.3-0.1,1.2-0.4,1.9-1.1C-215.6,252.3-213.5,252.1-213.2,251.6C-213.1,251.7-213.1,251.7-213.2,251.6 M-229.6,254.7l-2.6,0.4
				l2.8-0.8L-229.6,254.7z M-228.9,237.7c0,0,1.3,0.2,1.3-0.5c0-0.3-0.2-0.4-0.3-0.4c-0.2,0-0.3,0.2-0.2,0.4
				C-227.9,237.3-227.9,237.5-228.9,237.7 M-229.9,237.1c0,0.1,0.1,0.2,0.1,0.2c0.1,0,0.1-0.1,0.1-0.2V237h0.1c0,0,0.1,0,0.1-0.1
				c0,0,0-0.1-0.1-0.1h-0.5c0,0-0.1,0-0.1,0.1c0,0,0,0,0.1,0h0.2C-229.9,237-229.9,237-229.9,237.1 M-226.1,242
				c0.2-0.3,0.8-0.3,1,0.1c0,0-0.5,0-0.6,0.1c0,0,0.6,0.2,0.5,0.6c0,0-0.2-0.3-0.5-0.3c0,0,0.2,0.6-0.2,0.7c0,0-0.1-0.5-0.4-0.5
				c-0.3,0-0.3,0.3-0.3,0.4c0,0-0.2-0.1-0.2-0.5c0-0.2-0.1-0.3-0.2-0.3c-0.1,0-0.9-0.2-1.8-1.1c0,0-0.6,0.3-1.4,0.4
				c0,0-0.2,0.2,0.1,0.2c0.2,0,1.2,0,1.8,1c0.1,0.2,0.3,0.3,0.8,0.3c0,0,0,0.6-1,0.6c0,0,0.6,0.4,1,0.8c0.2,0.1,0.2,0.1,0.4,0
				c0.1-0.1,0.8-0.6,1.1,0.1c0,0-0.4-0.1-0.6,0c0,0,0.4,0.4,0.3,0.8c0,0-0.3-0.4-0.5-0.3c-0.1,0,0.2,0.4-0.2,0.6c0,0,0-0.5-0.4-0.5
				c0,0,0.1,0.3-0.3,0.4c0,0,0.2-0.6-0.2-0.8c-0.1,0-2-0.3-2.3-1.1c0,0,0.3-0.2,0.5-0.2c0,0-1.1-0.8-1.3-1.4c0,0-0.2-0.1-0.1,0.1
				c0.1,0.1,0.3,0.3,0.2,1.4c0,0.3,0.1,0.6,0.4,0.8c0,0-0.7,0.3-1.3-0.5c0,0,0,1.5,0.8,1.6c0.3,0,1,0,1,0.9c0,0-0.3-0.4-0.6-0.3
				c0,0,0.2,0.3,0.1,0.5c0,0-0.3-0.4-0.5-0.3c0,0,0.1,0.3,0,0.5c0,0-0.3-0.6-0.4-0.6c-0.2,0-0.3,0.3-0.3,0.6c0,0-0.5-0.1-0.2-0.5
				c0.1-0.2,0.2-0.2,0.3-0.3s-2.2-0.9-1.9-2.6c0,0,0.4,0.3,0.6,0.1c0.2-0.2,0.1-0.7-0.4-1.1c0,0,0.4-0.2,0.6-0.2
				c0.1,0,0.1-0.2,0.1-0.4c-0.2,0-0.7,0-1-0.3c-0.2-0.2-0.3-0.5-0.2-1c0.1-0.4,0.5-1,0.8-1.4c0.1-0.1,0.2-0.3,0.3-0.4
				c0.2-0.3,0.4-0.8,0.3-1.1c-0.1-0.1-0.2-0.2-0.4-0.2c-0.1,0-0.2,0-0.2,0c0.2,0.4-0.1,0.8-0.5,1.1c-0.6,0.4-0.5,0.9-0.5,0.9
				s-0.2-1-0.1-1.7c0.1-0.5,0.6-1.1,1-0.6c0,0,0.2,0,0.3,0c0.4,0,0.6,0.2,0.7,0.4c0.3,0.6-0.2,1.4-0.3,1.5s-0.2,0.2-0.3,0.4
				c-0.3,0.4-0.7,1-0.8,1.3c0.2,0.1,0.2,0.3,0.3,0.4c0.3,0.2,0.7,0.2,0.8,0.2c0,0,0.9-0.8,1.6-1c0.3-0.1,0.3-0.4,0.1-0.3
				c-0.2,0-1,0.2-1.3-0.3c0,0,0.9-0.3,1-0.8c0,0-0.4,0.3-0.9,0.1c0,0,0.8-0.6,0.6-1.1c-0.1-0.2-0.2-0.8,0-0.9
				c0.1-0.1-0.2-0.3-0.3-0.3c0,0,0.4-0.4,0.7,0h0.2c0.2,0,0.4-0.2,0.6-0.2c0.2,0,0.4-0.1,0.6,0.2c0,0,0.2,0.1,0.4,0.2
				c0.1,0,0.1,0.2,0.1,0.4c0,0.1-0.1,0.1-0.6,0.2c-0.1,0-0.4,0.6-0.3,0.6c0.1,0,0.6-0.2,0.8-0.2c0.1,0,0.1,0.2,0.1,0.4
				c-0.1,0.1-0.2,0-0.4,0s-0.4,0.3-0.1,0.6c0.2,0.2,0.9,0.4,1.4-0.7c0,0,0.2,0.2,0.1,0.8l1.5-1.2c0,0-0.1-0.8,0.5-1.1
				c0,0-0.2,0.3-0.1,0.5c0,0,0.4-0.3,0.6-0.3c0,0-0.4,0.5-0.4,0.6c0,0,0.6-0.2,0.7,0c0,0-0.6,0.3-0.6,0.4s0.4,0.2,0.6,0.1
				c0,0-0.1,0.4-0.8,0.3c0,0-0.6,0.9-1.5,1.5c-0.2,0.2,0,0.5,0.6,0.3c0.2-0.1,0.4-0.2,0.4-0.3c0,0,0.5,1-1.1,1.1
				c0,0,0.9,0.9,1.1,1.2C-226.2,242.3-226.1,242.1-226.1,242 M-199.6,246.6c0,0.1,0,0.2-0.1,0.2s-0.1,0-0.2,0.1
				c-0.1,0.1-0.1,0.1,0,0.1C-199.7,247-199.5,246.7-199.6,246.6c0.1-0.1,0.3-0.2,0.4-0.2s0-0.2,0-0.2h-0.2c0-0.2,0-0.3-0.1-0.3
				c0.2,0,0.6,0,0.8-0.2c0-0.1,0.2-0.2,0.2-0.2l-0.1-0.2c-0.1-0.1-0.5-0.1-0.7,0c-0.4,0.1-0.6,0-0.6-0.1v-0.1c0.1,0.1,0.3,0,0.3,0
				c0.1-0.1,0.1-0.2,0-0.2c-0.3-0.1-0.4,0.1-0.4,0.1c-0.1,0.2-0.1,0.3,0,0.3c0.1,0.1,0.5,0.2,0.8,0.1c0.2-0.1,0.5,0,0.6,0
				c0,0,0,0.1,0,0.2l-0.1,0.1c-0.1,0.2-0.6,0.2-0.9,0.2c-0.3-0.1-0.6,0.1-0.7,0.2c-0.2,0.1-0.3,0.2-0.4,0.1
				c-0.2-0.1,0.2-0.5,0.2-0.5c0.1-0.1,0-0.1-0.1-0.1c-0.4,0.1-0.4-0.1-0.4-0.2c-0.1-0.1-0.1,0-0.1,0c-0.1,0.1,0.1,0.5-0.2,0.6
				c-0.6,0.1-0.8-0.4-0.8-0.4h-0.1c0.1,0.3,0.3,0.4,0.4,0.5c0.2,0.1,0.2,0.1,0.2,0.2l0.1,0.1l-0.1,0.3c0,0.1-0.4,0.4-0.4,0.4
				c-0.1,0-0.4,0.1-0.3,0.1c0.1,0.2,0.5,0,0.5,0c0-0.1,0.6-0.6,0.7-0.6c0,0,0.6-0.2,0.8-0.2c0.2-0.1,0.1,0,0.1,0
				c-0.1,0.1-0.3,0.6-0.3,0.6c-0.2,0-0.4,0.2-0.3,0.2c0.2,0.1,0.4-0.1,0.4-0.1c0-0.1,0.2-0.3,0.2-0.3l0.3-0.6l0.2-0.1
				c0,0,0.1,0.2,0.2,0.3C-199.4,246.5-199.6,246.6-199.6,246.6 M-199.4,236.7l0.2-0.4l-0.5,0.2v-0.4l-0.3,0.3l-0.3-0.2v0.4
				L-199.4,236.7z M-205.8,236.9c-0.5-0.1-0.5-0.2-0.4-0.3s0-0.2-0.1-0.2s-0.2,0-0.2,0.2C-206.4,237-205.8,236.9-205.8,236.9
				 M-206.8,235.8h-0.2v0.5h0.2V235.8z M-203.8,235.8h-0.2v0.5h0.2V235.8z M-207.4,237.8h-0.2v0.5h0.2V237.8z M-207.6,240.5h-0.2
				v0.5h0.2V240.5z M-205.8,241.1h-0.2v0.5h0.2V241.1z M-211.9,241.6c0-0.1,0-0.4-0.2-0.4s-0.4,0-0.5,1.1c0,0,0.4-0.1,0.6,0
				C-211.9,242.3-211.9,241.9-211.9,241.6 M-211.4,237c-0.2,0-0.4,0.2-0.5,0.6s-0.1,0.7-0.1,0.9c0.1,0,0.1,0,0.2,0
				c0.1-0.2,0.2-0.7,0.6-1c0,0,0,0,0-0.1C-211.2,237.1-211.4,237-211.4,237 M-212.6,238.5c0,0,0.1,0,0.2,0c0-0.2,0-0.6-0.1-1
				s-0.3-0.5-0.4-0.5c-0.2,0-0.3,0-0.5,0.3C-213.1,237.7-212.9,238.2-212.6,238.5C-212.8,238.5-212.6,238.5-212.6,238.5
				 M-209.8,240.5c0-0.4,0-0.8,0-1.2c-0.1,0.2-0.1,0.4-0.2,0.6C-209.9,240-209.9,240.2-209.8,240.5 M-211.9,244.8
				c0.1,0,0.1,0.1,0.1,0.1c0,0.1,0.1,0.1,0.1,0.2c0.2,0.6,0,1.7,0,1.7c0.4-0.8,0.5-1.4,0.3-1.9c0-0.1-0.1-0.2-0.2-0.4
				C-211.6,244.4-212.1,244.8-211.9,244.8 M-211.2,239.9c0.1-0.2,0.2-0.5-0.2-1v-0.2c0,0,0.1-0.7,0.7-1.1c0.1-0.1,0.3-0.1,0.4,0
				c0.2,0.2,0.2,0.6,0.1,1.1c0-0.1-0.1-0.3-0.1-0.4c-0.1-0.2-0.3-0.3-0.5-0.2s-0.3,0.3-0.2,0.5c0.2,0.4,0.4,1,0.7,2.2l0.1,0.4
				c0.2,1-0.1,1.8-0.6,3.1c-0.3,1.1-0.8,3.3-0.6,4.4c0.3-1.9,0.8-3.9,1.1-4.5c0.1-0.2,0.2-0.6,0.4-0.9c-0.1,2.1-0.3,4.3-0.9,6.4
				c-0.2,0.8-0.6,1.4-0.9,1.8c-0.3,0.4-0.5,0.6-0.5,0.6l0,0l0,0c0,0,0,0-0.1,0l0,0c-0.3-0.2-1.1-0.7-1.9-1.6c-0.3-0.3-0.5-0.6-0.7-1
				c-1-1.7-1.3-3-1.4-5.9c0-0.6,0-1.3,0-2.2c0-0.3,0-0.6,0-0.8c0-2.5,0.2-3.8,0.2-3.8s0.5-0.2,1.8-0.5c0.6-0.1,1.4-0.2,2.2-0.2
				c0,0,0,0.1,0,0.2c0.1,0.1,0.2,0.2,0.3,0.2c-0.2,0.1-0.4,0.3-0.5,0.5c-0.1-0.3-0.3-0.5-0.6-0.6c-0.4-0.1-0.8,0-1.1,0.6
				c-0.4-0.1-0.8-0.1-1.1,0.1c-0.5,0.4-0.6,1.5,0.2,3c-0.1,0.2-0.1,0.4-0.2,0.6c-0.6,2.1,0.3,3.3,0.9,4.4c0.4,0.9,1.2,3.6,1.3,3.8
				c0.1-0.4-0.2-3-0.8-4.2c-0.4-0.9-1.3-2.2-0.8-3.8c0.2-0.6,0.5-1.4,0.7-2.1c0-0.4-0.5-0.9-0.7-0.4c0,0.2-0.1,0.4-0.2,0.7
				c-0.3-0.8-0.4-1.4-0.1-1.6c0.2-0.1,0.5-0.1,0.7,0c0.4,0.2,0.6,0.8,0.7,1.1l0,0c0.1,0.3,0.1,0.6,0,0.9c-0.1,0.5-0.4,0.7,0,1
				c0.2,0.2,0.5,0.3,0.5,0.3s-1,2.2,0.5,2.4c0.3,0.1,0.7-0.1,0.7-0.3s-0.1-0.5,0.2-1.1c0.1-0.2,0.4-0.8,0.3-1.1
				c0-0.1-0.1-0.4-0.1-0.6 M-212.4,244.9c0.1-0.2,0.5-0.7,0.5-0.7c0.5-0.5,0.9-0.7,1.1-1.3c0.2-0.6,0.2-0.6,0.3-1.3
				c0.2-0.7-0.3-1.4-0.4-0.8c-0.2,0.6-0.2,1.4-0.4,1.9c-0.2,0.6-0.5,0.8-0.8,1.1c-0.1,0.1-0.1,0.1-0.1,0.2l-0.1-0.1
				c-0.9-0.4-1.3-0.6-1.4-1.4c-0.2-0.9,0.1-1.1-0.3-2c-0.1-0.2-0.2,0.1-0.3,0.4c0,0.1,0,0.3,0,0.5c0.1,0.5-0.1,1,0.1,1.7
				c0.3,0.8,0.8,1,1.7,1.4c-0.2,0.2-0.3,0.5-0.3,0.8c-0.1,0.6,0.2,1.3,0.4,1.7C-212.6,246.5-212.6,245.5-212.4,244.9 M-209.9,237.3
				C-209.9,237.3-209.9,237.4-209.9,237.3c0,0,0-0.1,0-0.2c0-0.3-0.2-0.5-0.6-0.7c-0.1,0.1-0.3,0.1-0.5,0.1c0.1,0.2,0.2,0.4,0.2,0.6
				C-210.4,237-210.1,237.2-209.9,237.3 M-212.4,240.2c0-0.1,0-0.2-0.1-0.2c0.1,0,0.2-0.1,0.2-0.1v-0.1h-0.1
				c-0.2,0.2-0.8,0.3-0.8,0.3l-0.1,0.1c0,0,0,0.1,0.1,0.1c0,0,0.2,0,0.4-0.1v0.1c0,0.1,0.1,0.2,0.2,0.2
				C-212.6,240.4-212.4,240.3-212.4,240.2 M-211.2,239.9c-0.4-0.1-0.7-0.3-0.7-0.3h-0.1v0.1c0,0,0.1,0,0.2,0.1
				c-0.1,0-0.1,0.1-0.1,0.2s0.1,0.2,0.1,0.2c0.1,0,0.1-0.1,0.1-0.2s0-0.1,0-0.2c0.1,0,0.2,0.1,0.4,0.1 M-212.1,241.2
				c-0.2,0-0.4,0-0.5,1.1c0,0,0.4-0.1,0.6,0c0,0,0-0.5,0.1-0.7C-211.9,241.5-211.9,241.2-212.1,241.2 M-212.1,240.7
				c-0.1,0,0,0-0.1,0s-0.2,0.1-0.1,0.2c0.1,0.1,0.1-0.1,0.2,0c0,0,0.1,0,0.2,0c0.1,0,0.1,0,0.2,0s0.1-0.1,0-0.2c-0.1,0-0.1,0-0.2,0
				C-212.1,240.8-212.1,240.8-212.1,240.7 M-226.4,251.2L-226.4,251.2L-226.4,251.2L-226.4,251.2 M-233.1,251.2L-233.1,251.2
				C-232.9,251.2-232.9,251.2-233.1,251.2C-232.9,251.2-233.1,251.2-233.1,251.2 M-221.4,261.9c0,2.9,2.4,5.3,5.3,5.3
				c2.9,0,5.3-2.4,5.3-5.3v-7.3h-10.6V261.9 M-198.6,256.2c-3.4,5.4-8.5,9.2-14.3,10.2c-0.9,0.7-2,1-3.2,1s-2.3-0.4-3.2-1
				c-5.8-1-10.9-4.8-14.2-10.2h12v-1.6v-0.1h0.1h10.8h0.1v0.1v1.6H-198.6 M-212.6,262.2c0-0.2,0.1-0.7-0.4-0.8
				c-0.6-0.1-0.9,0.6-0.9,0.6c0,0.1-0.1,0.1-0.2,0.2c-0.1,0-0.8,0.1-0.8,0.7c0,0.5,0.5,0.6,0.7,0.6c0.3,0,0.5,0,0.8-0.1
				c0.1,0,0.3,0,0.4-0.1c0.1-0.1,0.1-0.3,0.2-0.4C-212.8,262.7-212.6,262.5-212.6,262.2 M-212.1,263.2c0.1,0,0.2,0.2,0.2,0.3
				c0,0.1-0.2,0.2-0.3,0.2c-0.2,0-0.3,0-0.5,0c0,0.1-0.1,0.3-0.1,0.5c0,0.1-0.1,0.2-0.3,0.2c-0.1,0-0.2-0.1-0.2-0.3
				c0-0.1,0-0.2,0-0.3l0,0c-0.3,0.1-0.6,0.2-1,0.1c-0.7-0.1-1.2-0.5-1.2-1.1s0.5-1,0.9-1.1l-1.6-2.1l-1.7,2.2
				c0.4,0.1,0.9,0.5,0.9,1.1s-0.4,1.1-1.1,1.1c-0.4,0-0.7-0.1-1-0.1l0,0c0,0.1,0,0.2,0,0.3s-0.1,0.3-0.2,0.3c-0.1,0-0.3-0.1-0.3-0.2
				c0-0.2,0-0.3-0.1-0.5c-0.1,0-0.3,0-0.5,0c-0.1,0-0.3-0.1-0.3-0.2s0.1-0.3,0.2-0.3c0.1,0,0.2,0,0.3,0l0,0
				c-0.1-0.2-0.3-0.5-0.4-0.9c-0.1-0.7,0.2-1.3,0.8-1.4s1,0.2,1.2,0.6l1.8-2.3l-1-1.3l0,0l-1.8,1.4l-0.3-0.4l0.9-0.7l-0.3-0.4
				l-0.9,0.7l-0.7-0.9l0.4-0.3l0.3,0.4l0.4-0.4l-0.3-0.4l0.4-0.3l0.7,0.9l0.4-0.3l-0.5-1.3l0.4-0.3l2.4,3l2.4-3l0.4,0.3l-0.7,0.9
				l0.4,0.3l0.7-0.9l0.4,0.3l-0.3,0.4l0.4,0.4l0.3-0.4l0.4,0.3l-0.7,0.9l-0.8-0.6l-0.3,0.4l0.9,0.7l-0.3,0.4l-1.8-1.4l0,0l-1,1.3
				l1.8,2.3c0.2-0.4,0.7-0.7,1.2-0.6c0.6,0.1,0.9,0.7,0.8,1.4c-0.1,0.4-0.2,0.7-0.4,0.9l0,0C-212.4,263.2-212.2,263.2-212.1,263.2
				 M-217.6,262.9c0-0.6-0.8-0.7-0.8-0.7c-0.1,0-0.1-0.1-0.2-0.2c0,0-0.3-0.8-0.9-0.6c-0.5,0.1-0.4,0.6-0.4,0.8
				c0.1,0.3,0.2,0.5,0.3,0.7c0.1,0.1,0.1,0.3,0.2,0.4c0.1,0,0.3,0,0.4,0.1c0.3,0.1,0.5,0.1,0.8,0.1
				C-217.9,263.4-217.4,263.3-217.6,262.9 M-219.4,269.1c-0.1-0.1-0.2-0.1-0.3-0.1c-0.2,0-0.6,0-0.7,0.6c-0.1,0.4,0.2,0.6,0.5,0.7
				c0.3,0,0.3,0,0.3-0.2L-219.4,269.1z M-219.2,268.4c0.1-0.5,0-0.5-0.4-0.6v-0.2l1.6,0.3v0.2c-0.4,0-0.4,0-0.5,0.5l-0.2,1.5
				c-0.1,0.5,0,0.5,0.3,0.6v0.2l-1.6-0.3c-0.6-0.1-1-0.5-0.9-1s0.6-0.8,1.1-0.7c0.1,0,0.2,0,0.3,0l0.3,0.2L-219.2,268.4
				L-219.2,268.4z M-223.1,268.2l-0.2-0.1c-0.1,0-0.3-0.1-0.4-0.1c-0.2,0-0.3,0.2-0.4,0.4c-0.1,0.4,0.1,0.7,0.4,0.8
				c0.3,0.1,0.3,0.1,0.3-0.1L-223.1,268.2z M-222.8,267.5c0.2-0.4,0.1-0.5-0.2-0.7l0.1-0.2l1.5,0.5l-0.1,0.2
				c-0.4-0.1-0.4-0.1-0.6,0.3l-0.5,1.4c-0.2,0.5-0.1,0.5,0.2,0.6l-0.1,0.2l-1.5-0.6c-0.3-0.1-0.5-0.2-0.6-0.4
				c-0.1-0.2-0.2-0.4-0.1-0.7c0.1-0.4,0.5-0.5,0.8-0.5c0-0.2-0.1-0.5-0.2-0.8c-0.1-0.3-0.1-0.4-0.2-0.5c-0.1-0.1-0.1-0.2-0.2-0.3
				l0.1-0.2l0.2,0.1c0.5,0.2,0.6,0.4,0.7,0.7c0.1,0.2,0.1,0.6,0.2,0.8c0,0.2,0.1,0.2,0.2,0.3h0.1L-222.8,267.5z M-226.4,266.4
				l-0.7-0.4l-0.2,1l0,0L-226.4,266.4z M-226.6,265.1l-0.1-0.1c-0.2-0.1-0.2-0.1-0.3,0.2l-0.1,0.4l0.8,0.5c0.1,0,0.2-0.2,0.4-0.3
				c0.2-0.1,0.1-0.2,0-0.3l-0.1-0.1l0.1-0.2l1,0.6l-0.1,0.2c-0.3-0.1-0.4-0.2-0.7,0.1l-2,1.5l-0.2-0.1l0.4-2.6
				c0.1-0.4-0.1-0.5-0.3-0.6l0.1-0.2l1.3,0.8L-226.6,265.1z M-229.1,264.1c0.3-0.4,0.4-0.4,0.7-0.1l0.1-0.1l-1.9-1.6
				c-0.1,0.1-0.5,0.4-0.6,0.5l0.1,0.1c0.2-0.1,0.3-0.2,0.5-0.2s0.3,0.1,0.5,0.2s0.3,0.2,0.3,0.3s0,0.2-0.2,0.4l-0.4,0.5l-0.3-0.3
				c-0.3-0.2-0.3-0.3-0.1-0.6l-0.1-0.1l-0.7,0.9l0.1,0.1c0.3-0.2,0.3-0.2,0.6,0l0.3,0.3l-0.6,0.6c-0.1,0.1-0.1,0.1-0.2,0l-0.2-0.2
				c-0.2-0.2-0.3-0.3-0.3-0.4s0-0.2,0.1-0.4l-0.2-0.1c-0.2,0.3-0.4,0.5-0.4,0.6l1.8,1.5l0.1-0.1c-0.3-0.3-0.3-0.3,0-0.7
				L-229.1,264.1z M-231.6,262.1c0.2-0.3,0.4-0.6,0.5-0.7c0-0.1-0.1-0.5-0.4-0.8c-0.5-0.5-1.1-0.7-1.5-0.3c-0.4,0.4-0.3,0.8-0.1,1.3
				l0.1,0.2c0.1,0.2,0.1,0.5-0.1,0.6c-0.2,0.2-0.4,0.1-0.6,0c-0.2-0.3-0.2-0.6,0-0.9l-0.2-0.1c-0.1,0.3-0.3,0.4-0.4,0.6
				c0.1,0.1,0.2,0.4,0.4,0.6c0.5,0.6,1.1,0.6,1.5,0.2c0.3-0.3,0.2-0.7,0.1-1.1l-0.1-0.2c-0.1-0.3-0.1-0.6,0.1-0.8
				c0.2-0.2,0.5-0.1,0.7,0.1C-231.3,261.1-231.4,261.7-231.6,262.1L-231.6,262.1z M-235.4,259.6c-0.4,0.3-0.4,0.3-0.7,0h-0.2l1,1.3
				l0.1-0.1c-0.2-0.3-0.2-0.4,0.2-0.7l1.2-0.9c0.4-0.3,0.4-0.3,0.7,0l0.1-0.1l-0.9-1.3l-0.2,0.2c0.2,0.3,0.2,0.4-0.2,0.7
				L-235.4,259.6z M-235.6,256.4c0.3-0.2,0.4-0.3,0.2-0.5c-0.3-0.6-0.9-0.7-1.6-0.3c-0.7,0.4-0.9,0.9-0.5,1.5
				c0.1,0.2,0.1,0.2,0.2,0.3c0,0,0.1,0,0.2-0.1L-235.6,256.4z M-237.8,257.1c-0.3-0.5-0.4-0.9-0.3-1.4c0.1-0.3,0.3-0.6,0.6-0.8
				c1-0.5,1.8,0,2.3,0.9l0.7,1.2l-0.2,0.1c-0.2-0.3-0.2-0.3-0.6-0.1l-1.3,0.7c-0.5,0.3-0.5,0.3-0.3,0.7l-0.2,0.1L-237.8,257.1z
				 M-238.9,253c-0.4,0.2-0.5,0.2-0.7-0.2l-0.2,0.1l0.6,1.5l0.2-0.1c-0.1-0.4-0.1-0.4,0.3-0.6l1.5-0.6c0.4-0.2,0.5-0.2,0.7,0.2
				l0.2-0.1l-0.6-1.5l-0.3,0.2c0.1,0.4,0.1,0.4-0.3,0.6L-238.9,253z M-240.1,251.8l0.2-0.1c-0.1-0.4-0.1-0.5,0.4-0.6l0.9-0.3
				c0.5-0.1,0.8-0.3,0.9-0.6c0.1-0.3,0.1-0.6,0-0.9c-0.1-0.4-0.3-0.7-0.6-0.8c-0.3-0.2-0.7-0.2-1.1,0l-0.3,0.1
				c-0.4,0.1-0.6,0.2-0.8,0.2s-0.3-0.1-0.3-0.3h-0.2l0.4,1.2l0.2-0.1c-0.1-0.3,0-0.4,0.1-0.5s0.3-0.2,0.8-0.3l0.3-0.1
				c0.7-0.2,1.2-0.1,1.3,0.4s-0.2,0.9-0.9,1.1l-0.8,0.2c-0.6,0.3-0.6,0.2-0.8-0.1l-0.2,0.1L-240.1,251.8z M-241.8,244.4l2,0.6
				l-1.8,1.2l0.1,1.1h0.2c0-0.4,0-0.5,0.5-0.5l1-0.1c0.4,0,0.6,0,0.7,0c0.2,0,0.3,0.1,0.3,0.4h0.2l-0.2-1.2h-0.2
				c0,0.3,0,0.5-0.2,0.5c-0.1,0-0.3,0.1-0.8,0.1l-1,0.1l0,0l2-1.2v-0.2l-2.3-0.9l0,0l1.7-0.3c0.4-0.1,0.5,0,0.5,0.4h0.2l-0.2-1.6
				h-0.2c0,0.5,0,0.5-0.4,0.5l-1.6,0.3c-0.4,0.1-0.5,0-0.5-0.4h-0.2L-241.8,244.4z M-240.6,240.5c-0.4,0-0.7,0.3-0.7,0.7
				s0.3,0.7,0.7,0.7s0.7-0.3,0.7-0.7S-240.2,240.5-240.6,240.5 M-240.1,238.5l0.1-0.7l-1,0.2l0,0L-240.1,238.5z M-239.1,237.8v-0.1
				c0-0.2,0-0.2-0.3-0.1l-0.4,0.1l-0.1,0.9c0.1,0,0.3,0.1,0.5,0.2s0.2,0,0.3-0.1v-0.1h0.2l-0.1,1.2h-0.2c0-0.3,0-0.4-0.4-0.6
				l-2.2-1.1v-0.2l2.5-0.8c0.4-0.1,0.4-0.3,0.4-0.5h0.2l-0.1,1.5L-239.1,237.8z M-240.2,232.9c-0.3,0-0.6,0-0.8-0.1
				c-0.1,0.1-0.2,0.4-0.3,0.9c-0.2,1,0.3,1.9,1.2,2.1c0.7,0.1,1.6-0.3,1.8-1.4c0.1-0.4,0-0.8,0-1c-0.1-0.1-0.5-0.3-0.8-0.4v0.2
				c0.4,0.3,0.7,0.6,0.6,1.1c-0.1,0.6-0.7,1-1.5,0.8c-0.7-0.1-1.1-0.6-1-1.2c0.1-0.4,0.3-0.7,0.9-0.7L-240.2,232.9z M-238.9,231.4
				l0.2-0.7l-1,0.1l0,0L-238.9,231.4z M-237.9,230.9L-237.9,230.9c0-0.3,0-0.3-0.3-0.3h-0.4l-0.3,0.9c0.1,0,0.2,0.2,0.4,0.3
				s0.2,0.1,0.3-0.1l0.1-0.1l0.2,0.1l-0.3,1.1l-0.2-0.1c0-0.3,0.1-0.4-0.3-0.7l-1.9-1.6v-0.2l2.6-0.2c0.4,0,0.4-0.2,0.5-0.4h0.2
				l-0.4,1.4L-237.9,230.9z M-237.2,227.8c0.3,0.2,0.5,0.1,0.6-0.1c0.3-0.6,0-1.2-0.7-1.5c-0.8-0.3-1.3-0.1-1.5,0.5
				c-0.1,0.2-0.1,0.3-0.1,0.3s0.1,0.1,0.2,0.1L-237.2,227.8z M-239.1,226.5c0.2-0.5,0.5-0.9,0.9-1.1c0.3-0.1,0.7-0.1,1,0
				c1,0.5,1.1,1.4,0.6,2.4l-0.6,1.3l-0.1-0.1c0.1-0.4,0.1-0.4-0.3-0.6l-1.3-0.6c-0.4-0.2-0.5-0.2-0.7,0.2l-0.2-0.1L-239.1,226.5z
				 M-235.8,224.9c0.4,0.2,0.4,0.3,0.2,0.7l0.2,0.1l1.3-2.2c-0.1-0.1-0.5-0.4-0.6-0.6l-0.1,0.2c0.1,0.2,0.2,0.3,0.3,0.4
				c0,0.1,0,0.3-0.2,0.5c-0.1,0.2-0.2,0.3-0.3,0.4c-0.1,0.1-0.2,0-0.4-0.1l-0.6-0.3l0.2-0.4c0.2-0.3,0.2-0.3,0.5-0.2l0.1-0.2
				l-0.8-0.5l-0.1,0.2c0.3,0.2,0.3,0.2,0.1,0.6l-0.3,0.3l-0.7-0.5c-0.1-0.1-0.1-0.1,0-0.2l0.1-0.2c0.2-0.3,0.3-0.4,0.4-0.4
				c0.1,0,0.2,0,0.5,0.1l0.1-0.2c-0.3-0.2-0.6-0.3-0.7-0.4l-1.2,2l0.2,0.1c0.2-0.3,0.3-0.3,0.7-0.1L-235.8,224.9z M-235.8,224.9
				c0.4,0.2,0.4,0.3,0.2,0.7l0.2,0.1l1.3-2.2c-0.1-0.1-0.5-0.4-0.6-0.6l-0.1,0.2c0.1,0.2,0.2,0.3,0.3,0.4c0,0.1,0,0.3-0.2,0.5
				c-0.1,0.2-0.2,0.3-0.3,0.4c-0.1,0.1-0.2,0-0.4-0.1l-0.6-0.3l0.2-0.4c0.2-0.3,0.2-0.3,0.5-0.2l0.1-0.2l-0.8-0.5l-0.1,0.2
				c0.3,0.2,0.3,0.2,0.1,0.6l-0.3,0.3l-0.7-0.5c-0.1-0.1-0.1-0.1,0-0.2l0.1-0.2c0.2-0.3,0.3-0.4,0.4-0.4c0.1,0,0.2,0,0.5,0.1
				l0.1-0.2c-0.3-0.2-0.6-0.3-0.7-0.4l-1.2,2l0.2,0.1c0.2-0.3,0.3-0.3,0.7-0.1L-235.8,224.9z M-234.1,218.7l0.9,1.9l-2.1-0.5
				l-0.7,0.8l0.2,0.1c0.3-0.3,0.3-0.4,0.7,0l0.7,0.7c0.3,0.3,0.4,0.4,0.5,0.5s0.1,0.3-0.1,0.5l0.1,0.1l0.8-0.9l-0.1-0.1
				c-0.2,0.2-0.3,0.3-0.5,0.2c-0.1-0.1-0.2-0.2-0.6-0.5l-0.7-0.7l0,0l2.3,0.7l0.1-0.1l-1.1-2.4l0,0l1.4,1c0.3,0.3,0.3,0.3,0.1,0.7
				l0.1,0.1l1-1.2l-0.1-0.1c-0.3,0.3-0.3,0.3-0.7,0.1l-1.2-1c-0.3-0.3-0.3-0.3-0.1-0.7l-0.2-0.1L-234.1,218.7z M-231.1,216.8
				c-0.3-0.4-0.3-0.4,0-0.7l-0.2-0.1l-1.2,1.1l0.1,0.1c0.3-0.3,0.4-0.3,0.7,0.1l1,1.1c0.3,0.4,0.3,0.4,0,0.7l0.1,0.1l1.2-1.1
				l-0.1-0.1c-0.3,0.3-0.4,0.3-0.7-0.1L-231.1,216.8z M-228.9,216.2l0.6-0.4l-0.8-0.6l0,0L-228.9,216.2z M-227.6,216.6L-227.6,216.6
				c0.2-0.2,0.2-0.3,0-0.4l-0.4-0.2l-0.7,0.5c0,0.1,0.1,0.3,0.1,0.5c0.1,0.2,0.1,0.2,0.3,0.1l0.2-0.1l0.1,0.1l-1,0.7l-0.1-0.1
				c0.2-0.2,0.3-0.3,0.2-0.7l-0.5-2.4l0.2-0.3l2.2,1.4c0.3,0.2,0.4,0.1,0.7,0l0.1,0.2l-1.2,0.8L-227.6,216.6z M-225.4,213.6
				c-0.2-0.4-0.6-0.5-1-0.3c-0.3,0.2-0.5,0.6-0.3,1s0.6,0.5,1,0.3C-225.4,214.4-225.1,214-225.4,213.6 M-221.4,213.8
				c0-0.2-0.1-0.6-0.1-0.9h-0.2c0,0.3,0,0.5-0.1,0.6s-0.2,0.2-0.4,0.3s-0.3,0.1-0.4,0.1c-0.1,0-0.2-0.1-0.3-0.4l-0.4-1.3
				c-0.2-0.5-0.1-0.5,0.3-0.7l-0.1-0.2l-1.5,0.5l0.1,0.2c0.4-0.1,0.4-0.1,0.6,0.4l0.5,1.4c0.1,0.4,0.1,0.5-0.4,0.6l0.1,0.2
				L-221.4,213.8z M-221.4,210.8v0.2c0.4,0,0.4,0,0.5,0.5l0.2,1c0.1,0.5,0.3,0.8,0.5,1c0.3,0.1,0.6,0.1,0.9,0.1
				c0.4-0.1,0.7-0.2,0.9-0.5c0.2-0.4,0.2-0.8,0.2-1.2l-0.1-0.3c-0.1-0.4-0.1-0.7-0.1-0.8c0-0.2,0.1-0.3,0.4-0.3v-0.2l-1.2,0.2v0.2
				c0.3,0,0.4,0,0.5,0.2c0,0.1,0.1,0.4,0.2,0.8v0.3c0.1,0.7,0,1.2-0.6,1.3c-0.5,0.1-0.8-0.3-0.9-1l-0.2-1c-0.1-0.5,0-0.5,0.3-0.6
				v-0.2L-221.4,210.8z M-214.4,211.1c0-0.4,0-0.7-0.1-0.8c-0.2,0-0.5-0.1-0.9-0.2c-1,0-1.9,0.5-1.9,1.5c0,0.9,0.7,1.5,1.8,1.5
				c0.4,0,0.8-0.1,1.1-0.2c0-0.1,0-0.2,0-0.4v-0.3c0-0.3,0-0.3,0.3-0.4v-0.2h-1.5v0.2c0.5,0,0.5,0.1,0.5,0.4v0.4
				c0,0.4-0.2,0.4-0.3,0.4c-0.8,0-1.1-0.7-1.1-1.4c0-0.9,0.5-1.2,1-1.2c0.4,0,0.8,0.2,0.9,0.8L-214.4,211.1z M-212.2,212.8
				c-0.1,0.4-0.1,0.5,0.3,0.5c0.7,0.2,1.1-0.2,1.3-1s-0.1-1.3-0.8-1.4c-0.2,0-0.3-0.1-0.3,0c0,0-0.1,0.1-0.1,0.2L-212.2,212.8z
				 M-211.4,210.8c0.5,0.1,1,0.3,1.2,0.7c0.2,0.3,0.3,0.6,0.2,1c-0.2,1.1-1.2,1.3-2.2,1.1l-1.4-0.3v-0.2c0.4,0.1,0.5,0,0.6-0.4
				l0.3-1.4c0.1-0.5,0.1-0.5-0.3-0.6v-0.2L-211.4,210.8z M-208.8,211.4l-0.1,0.2c0.4,0.2,0.4,0.2,0.2,0.7l-0.4,0.9
				c-0.2,0.4-0.2,0.8,0,1.1c0.1,0.3,0.4,0.5,0.7,0.6c0.4,0.2,0.7,0.2,1,0.1c0.3-0.1,0.6-0.4,0.7-0.9l0.1-0.3
				c0.2-0.5,0.3-0.7,0.4-0.8c0.1-0.1,0.2-0.1,0.5-0.1l0.1-0.2l-1.2-0.5l-0.1,0.2c0.3,0.1,0.4,0.2,0.3,0.4c0,0.1-0.1,0.4-0.3,0.8
				l-0.1,0.3c-0.3,0.6-0.7,1-1.2,0.8s-0.5-0.7-0.3-1.4l0.3-0.8c0.2-0.4,0.2-0.5,0.6-0.3l0.2-0.2L-208.8,211.4z M-202.9,216
				c0.3-0.4,0.4-0.6,0.5-0.7c0.1-0.1,0.3-0.1,0.5,0l0.1-0.2l-1.1-0.7l-0.1,0.2c0.3,0.2,0.3,0.3,0.3,0.5c-0.1,0.1-0.2,0.3-0.4,0.7
				l-0.4,0.6l0,0l-0.4-2.6l-0.8-0.6l-0.1,0.1c0.4,0.3,0.4,0.4,0.1,0.8l-0.5,0.8c-0.3,0.4-0.4,0.6-0.5,0.7c-0.1,0.1-0.3,0.1-0.5,0
				l-0.1,0.2l1.1,0.6l0.1-0.2c-0.3-0.2-0.3-0.3-0.3-0.5c0.1-0.1,0.2-0.3,0.4-0.7l0.5-0.7l0,0l0.4,2.9l0.3,0.2L-202.9,216z
				 M-201.6,217.3c-0.5,0.6-0.7,1.3-0.3,1.6c0.3,0.3,0.8,0.3,1.4-0.3c0.5-0.5,0.7-1.2,0.3-1.6C-200.4,216.7-201.1,216.7-201.6,217.3
				 M-199.9,216.8c0.7,0.7,0.7,1.6,0.2,2.2c-0.7,0.8-1.6,0.6-2.3,0c-0.8-0.7-0.7-1.7-0.2-2.2C-201.4,216.1-200.4,216.3-199.9,216.8
				 M-198.1,220.9c0.3-0.3,0.4-0.7,0.1-1c-0.2-0.3-0.7-0.3-1-0.1c-0.3,0.3-0.4,0.7-0.1,1C-198.9,221.1-198.4,221.1-198.1,220.9
				 M-196.9,222.4l0.1,0.2c0.2,0.2,0.4,0.4,0.8,0.2c0.3-0.2,0.2-0.5,0.1-0.7c-0.1-0.2-0.2-0.2-0.3-0.1L-196.9,222.4z M-197.1,222.5
				l-0.6,0.4c-0.4,0.2-0.3,0.4-0.2,0.6c0.2,0.2,0.5,0.4,0.8,0.1c0.4-0.3,0.3-0.6,0.1-1L-197.1,222.5z M-196.9,221.6
				c0.4-0.3,0.4-0.3,0.2-0.6l0.2-0.1l0.9,1.4c0.3,0.5,0.4,0.9,0,1.2c-0.3,0.2-0.7,0-0.9-0.2l0,0c0.2,0.4,0.2,0.8-0.2,1.1
				c-0.6,0.4-1.1-0.2-1.4-0.7l-0.8-1.2l0.2-0.1c0.2,0.3,0.3,0.3,0.7,0.1L-196.9,221.6z M-195.6,225.6l0.3,0.7l0.7-0.7l0,0H-195.6z
				 M-196.1,226.7l0.1,0.1c0.1,0.2,0.2,0.2,0.4-0.1l0.3-0.3l-0.4-0.8c-0.1,0-0.3,0-0.5,0.1c-0.2,0-0.2,0.1-0.2,0.3l0.1,0.1l-0.2,0.1
				l-0.5-1.1l0.2-0.1c0.2,0.2,0.2,0.3,0.7,0.3l2.5-0.1l0.2,0.2l-1.7,1.9c-0.3,0.3-0.2,0.4-0.1,0.7l-0.2,0.1L-196.1,226.7
				L-196.1,226.7z M-192.6,228.8l0.1,0.2c0.1,0.2,0.1,0.4,0.1,0.5s-0.1,0.2-0.4,0.3l0.1,0.2c0.2-0.1,0.6-0.3,0.8-0.4v-0.1
				c-0.1,0-0.1-0.1-0.2-0.2l-0.7-1.9c-0.1-0.1-0.1-0.2,0-0.3V227c-0.2,0.1-0.5,0.2-0.9,0.3l0.1,0.2c0.3,0,0.4,0,0.5,0
				s0.2,0.1,0.3,0.5l0.1,0.1l-1.8,0.7c-0.6,0.2-0.6,0.2-0.8-0.2l-0.2,0.1l0.6,1.5l0.2-0.1c-0.1-0.4-0.1-0.5,0.3-0.6L-192.6,228.8z
				 M-193.2,231.6l0.2,0.7l0.8-0.6l0,0L-193.2,231.6z M-193.9,232.6L-193.9,232.6c0.1,0.3,0.1,0.3,0.4,0.1l0.3-0.2l-0.2-0.9
				c-0.1,0-0.3,0-0.5,0s-0.2,0-0.2,0.2v0.1h-0.2l-0.3-1.1h0.2c0.1,0.3,0.1,0.4,0.6,0.4l2.4,0.4l0.1,0.2l-2.1,1.6
				c-0.3,0.2-0.3,0.4-0.2,0.6h-0.2l-0.4-1.4L-193.9,232.6L-193.9,232.6z M-193.6,235.5c1,0.2,2.2,0.6,2.4,0.6
				c0.4,0.1,0.5,0.2,0.6,0.5h0.2l-0.2-1.2h-0.2v0.1c0,0.2-0.1,0.3-0.3,0.2c-0.2,0-1.3-0.2-1.6-0.3l1.4-0.9c0.2-0.1,0.3-0.1,0.3,0
				v0.2h0.2l-0.2-1.5h-0.2c0,0.3,0,0.4-0.3,0.6l-2.2,1.4L-193.6,235.5z M-192.1,237.7v0.7l0.9-0.4l0,0L-192.1,237.7z M-193.1,238.5
				v0.1c0,0.2,0.1,0.2,0.4,0.1l0.4-0.2l-0.1-0.9c-0.1,0-0.3-0.1-0.5-0.1s-0.2,0-0.3,0.2v0.2h-0.2l-0.1-1.2h0.2
				c0.1,0.3,0.1,0.4,0.5,0.5l2.3,0.8l0.1,0.2l-2.3,1.1c-0.3,0.2-0.4,0.3-0.4,0.6h-0.2v-1.4L-193.1,238.5L-193.1,238.5z
				 M-191.6,241.9c0.4,0,0.7-0.3,0.7-0.7s-0.3-0.7-0.7-0.7s-0.7,0.3-0.7,0.7S-192.1,241.9-191.6,241.9 M-193.6,245.3
				c0.2,0.1,0.6,0.2,0.8,0.3v-0.2c-0.3-0.1-0.4-0.2-0.5-0.3c0-0.2,0-0.4,0-0.6s0-0.3,0.1-0.4s0.2-0.1,0.5-0.1l1.4,0.2
				c0.5,0.1,0.5,0.1,0.5,0.5h0.2l0.2-1.6h-0.2c-0.1,0.4-0.1,0.4-0.6,0.4l-1.5-0.2c-0.5,0-0.5-0.1-0.5-0.5h-0.2L-193.6,245.3z
				 M-191.9,248c0.5,0.1,0.5,0.1,0.4,0.5h0.2l0.3-1.5h-0.2c-0.1,0.4-0.1,0.4-0.6,0.3l-1.4-0.3c-0.5-0.1-0.5-0.1-0.4-0.5h-0.2
				l-0.3,1.5h0.2c0.1-0.4,0.1-0.4,0.6-0.3L-191.9,248z M-193.1,251l-0.1,0.2c-0.1,0.3-0.1,0.6,0.3,0.7c0.3,0.1,0.5-0.1,0.6-0.4
				c0.1-0.2,0.1-0.3-0.1-0.3L-193.1,251z M-193.4,250.9l-0.7-0.2c-0.4-0.1-0.5,0-0.6,0.2c-0.1,0.3,0,0.6,0.4,0.7s0.7-0.1,0.8-0.5
				L-193.4,250.9z M-192.4,250.5c0.4,0.2,0.5,0.1,0.6-0.2l0.2,0.1l-0.5,1.6c-0.2,0.5-0.5,0.9-0.9,0.7c-0.4-0.1-0.4-0.5-0.4-0.8l0,0
				c-0.2,0.4-0.5,0.7-1,0.5c-0.6-0.2-0.6-1-0.4-1.5l0.5-1.4l0.2,0.1c-0.1,0.4-0.1,0.4,0.4,0.6L-192.4,250.5z M-195.4,254.1
				c-0.4-0.2-0.4-0.3-0.3-0.7l-0.2-0.1l-1.1,2.3c0.1,0.1,0.5,0.4,0.6,0.5l0.2-0.1c-0.2-0.2-0.3-0.3-0.3-0.4s0-0.3,0.1-0.5
				s0.2-0.3,0.3-0.4s0.2,0,0.5,0.1l0.6,0.3l-0.2,0.4c-0.2,0.3-0.2,0.3-0.5,0.2l-0.1,0.2l0.9,0.4l0.1-0.2c-0.3-0.2-0.3-0.2-0.1-0.6
				l0.2-0.4l0.8,0.4c0.1,0.1,0.1,0.1,0.1,0.2l-0.3,0.3c-0.1,0.3-0.3,0.4-0.3,0.4c-0.1,0-0.2,0-0.5,0l-0.1,0.2
				c0.3,0.1,0.6,0.2,0.7,0.3l1.1-2.1l-0.2-0.1c-0.2,0.3-0.2,0.4-0.7,0.1L-195.4,254.1z M-197.1,258.6l-0.1,0.1
				c-0.1,0.1-0.2,0.3-0.2,0.4c0,0.2,0.1,0.4,0.3,0.5c0.3,0.2,0.7,0.1,0.8-0.2c0.2-0.2,0.2-0.2,0-0.3L-197.1,258.6z M-197.8,258.1
				c-0.4-0.3-0.4-0.3-0.7,0.1l-0.1-0.1l0.9-1.3l0.1,0.1c-0.2,0.4-0.2,0.4,0.2,0.7l1.2,0.8c0.4,0.3,0.4,0.3,0.7,0l0.1,0.1l-0.9,1.3
				c-0.2,0.2-0.3,0.4-0.5,0.5s-0.5,0.1-0.7-0.1c-0.3-0.2-0.4-0.6-0.2-0.9c-0.2,0-0.5,0-0.8,0s-0.5,0-0.6,0s-0.2,0.1-0.3,0.2
				l-0.1-0.1l0.1-0.2c0.3-0.5,0.6-0.5,0.9-0.5s0.6,0,0.8,0.1c0.2,0,0.2,0,0.3-0.2l0.1-0.1L-197.8,258.1z M-199.4,263.2l-0.2,0.2
				c-0.2,0.2-0.3,0.3-0.4,0.3c-0.1,0-0.2,0-0.5-0.2l-0.1,0.1c0.2,0.2,0.5,0.4,0.7,0.6l0.1-0.1c0-0.1,0-0.1,0.1-0.3l1.4-1.5
				c0.1-0.1,0.2-0.1,0.3-0.1l0.1-0.1c-0.2-0.2-0.4-0.4-0.6-0.7l-0.1,0.1c0.1,0.2,0.2,0.3,0.2,0.4s0,0.2-0.3,0.5l-0.1,0.1l-1.5-1.2
				c-0.3-0.3-0.3-0.4-0.1-0.7l-0.1-0.1l-1.1,1.2l0.1,0.1c0.3-0.3,0.4-0.3,0.7,0L-199.4,263.2z M-202.4,264.1l-0.6,0.4l0.8,0.5l0,0
				L-202.4,264.1z M-203.6,263.7L-203.6,263.7c-0.2,0.2-0.2,0.3,0,0.4l0.4,0.2l0.7-0.5c0-0.1-0.1-0.3-0.2-0.5s-0.1-0.2-0.3-0.1
				l-0.1,0.1l-0.1-0.1l0.9-0.7l0.1,0.1c-0.2,0.2-0.3,0.3-0.2,0.7l0.6,2.4l-0.2,0.2l-2.2-1.3c-0.3-0.2-0.4-0.1-0.7,0l-0.1-0.1
				l1.2-0.9L-203.6,263.7z M-205.8,268l-0.2,0.1c-0.2,0.1-0.4,0.2-0.5,0.1c-0.1,0-0.2-0.1-0.4-0.3l-0.2,0.1c0.1,0.2,0.4,0.6,0.5,0.8
				h0.1c0-0.1,0-0.1,0.2-0.2l1.8-1c0.1-0.1,0.2-0.1,0.3,0h0.1c-0.1-0.2-0.2-0.5-0.4-0.8l-0.2,0.1c0.1,0.2,0.1,0.4,0,0.5
				c0,0.1-0.1,0.2-0.5,0.4l-0.1,0.1l-0.9-1.9c-0.2-0.4-0.2-0.5,0.2-0.7l-0.1-0.2l-1.5,0.8l0.1,0.2c0.4-0.2,0.5-0.2,0.7,0.2
				L-205.8,268z M-209.6,269.1c0.2,0.5,0.1,0.5-0.2,0.6l0.1,0.2l1.5-0.5l-0.1-0.2c-0.4,0.1-0.4,0.1-0.6-0.4l-0.5-1.4
				c-0.2-0.4-0.1-0.5,0.2-0.6l-0.1-0.2l-1.5,0.5l0.1,0.2c0.4-0.1,0.4-0.1,0.6,0.4L-209.6,269.1z M-211.8,268.4
				c-0.1-0.3-0.2-0.7-0.3-0.8c-0.1-0.1-0.4-0.2-0.9-0.1c-0.7,0.1-1.1,0.5-1,1.1c0.1,0.5,0.5,0.7,1,0.8h0.2c0.3,0,0.5,0.2,0.5,0.4
				s-0.1,0.5-0.4,0.5c-0.3,0.1-0.6-0.2-0.8-0.5l-0.2,0.1c0.1,0.3,0.2,0.5,0.2,0.7c0.1,0,0.4,0.1,0.7,0c0.7-0.1,1.1-0.6,1-1.1
				c-0.1-0.4-0.5-0.6-0.9-0.7h-0.2c-0.3-0.1-0.5-0.2-0.6-0.5c0-0.3,0.1-0.5,0.4-0.5c0.4-0.1,0.8,0.3,1,0.7L-211.8,268.4z
				 M-216.9,269.5c0,0.4,0.3,0.7,0.7,0.7s0.7-0.3,0.7-0.7c0-0.4-0.3-0.7-0.7-0.7C-216.6,268.8-216.9,269.1-216.9,269.5
				 M-224.2,235.6L-224.2,235.6L-224.2,235.6 M-196.8,232.5c0.2-0.2,0.4-0.3,0.7-0.2l0,0c-0.2-0.2-0.6-0.2-0.9,0
				c-0.2,0.2-0.2,0.6,0,0.9l0,0C-197.1,232.9-196.9,232.7-196.8,232.5 M-199.9,223c3.5,4.6,5.6,10.8,5.6,17.5
				c0,3.8-0.7,7.4-1.9,10.6c0,0.1-0.1,0.2-0.1,0.3h-2.4c0.3,0.2,0.4,0.5,0.4,0.7c0,0.5-0.3,0.5-1,0.5h-0.2h-6.6h-0.1
				c-0.4,0-0.8,0-1-0.2c0,0.1,0-0.1,0-0.2c0-0.3,0.1-0.5,0.4-0.7h-4.4c0.3-0.4,0.6-1,0.8-1.7c0.9-3.1,0.8-6.5,0.9-9.3
				c0-1.6,0-1.5,0-3c0,0,0.3-0.1,0.1-0.7c-0.1-0.3-0.3-0.6-0.6-0.8c0-0.1,0-0.3-0.1-0.4l-0.2-0.2v-0.1c0-0.1-0.1-0.4-0.1-0.7
				c0-1-0.6-2.8-0.6-2.8s0.1,0.1,0.4,0c0.4-0.1,0.4-0.6,0.1-0.9c-0.1-0.1-0.4-0.6-0.6-0.8c-0.1-0.3-0.4-0.8-0.4-1.1
				c-0.1-0.3,0-1.7,0-2.1c0.2-3.2-1.3-3.4-1.8-3.6c-0.2-0.1-0.3-0.2-0.5-0.3c0,0.6-0.9,1-1.8,1s-1.8-0.4-1.8-1c0,0,0-0.1,0.1-0.2
				l-0.4,0.1c-0.5,0.1-0.7,0.1-0.9,0.2c-0.7,0.3-0.9,0.9-0.9,1.1c-0.3,0.7-0.5,1.4-0.5,1.4c-0.1,0.2-0.2,0.5-0.2,0.5
				s-0.2-0.2-0.3-0.3c-0.2-0.2-1.3-1.2-1.5-1.4c-0.1-0.1-0.8,0.1-0.8,0.1c1.4,1.1,2.5,2.5,2.7,2.8c0.1,0.2,0,0.1-0.1,0.1
				c-1.5-0.7-3.5-0.5-3.5-0.5l-0.5,0.6c2.1-0.2,3.7,0,4.1,0.6c0.1,0.1,0.3,0.2,0.5,0.2s0.3-0.2,0.3-0.4c0-0.1,0-0.1,0.1-0.3
				c1-2.1,3.7-3.1,3.7-3.1l1.1,3.3c0.4,0.1,0.5,0.1,0.8,0.1c-0.1-0.2-0.5-0.6-0.4-0.8c0-0.1,0.5,0,0.7-0.1c0.3-0.2,0.6-0.5,0.3-1.5
				c-0.1-0.2-0.2-0.4-0.2-0.5l0.2-0.1c0,0.1,0.1,0.2,0.2,0.5c0.5,1.3-0.1,1.6-0.3,1.8l-0.1,0.1c-0.1,0.2,0,0.5,0.1,0.6
				c0.2,0.1,0.2,0.2,0.2,0.2v0.7c-0.8-0.4-2.9-0.4-2.8-0.4s0.4-0.2,0.3-0.3c0,0-0.3,0-0.5,0c-0.1,0-0.1-0.1,0-0.1c0,0,0.1,0,0.3-0.1
				c0.3-0.2,0.5-0.5,0.6-0.6s-0.1-0.2-0.1-0.2c0-0.1-0.1-0.2-0.3-0.1c-0.1,0-0.6,0.3-0.8,0.3c-0.1,0-0.2-0.1-0.1-0.1
				c0.3-0.4,0.4-0.4,0.5-0.7c0.2-0.3-0.1-0.3-0.2-0.2c-0.2,0.2-0.9,0.8-1.2,0.9c-0.2,0.1-0.2,0-0.2-0.1c0.1-0.3,0-0.3,0-0.5
				s-0.3-0.3-0.3-0.1s0,0.4-0.2,0.6c-0.2,0.3-0.1,0.7-0.2,0.8c-1.1,0.8-2,0.5-2,0.5c-0.1-0.3-1-0.6-1.4-0.2c-1.1,1-0.6,3.3-0.6,3.4
				c0.5,1.3,1.3,0.6,1.4,0.5c0.9-0.9,1.2-2.1,1.2-2.1c0.5-0.2,0.8-0.3,1.1-0.6c0.5-0.3,0.8-0.5,1-0.6c0.2,0,0.6-0.2,0.7-0.1v0.2
				c-0.5,0.2-1.5,1.1-1.5,1c-0.1,0.7-1.7,2.8-1.1,3.3c0.3,0.2,0.1,0.6,0,1c0,0-0.3,1.4-0.6,4c0,0-0.2,0.7,0.1,0.9
				c0.1,0.1,1.1,0.3,1.7,0.2c0.2,0,0.5,0.2,0.7,0.2c0,0-0.1,1.1-0.2,1.1c-0.6,0.1-0.6-0.7-0.6-0.6s-0.2-0.1-0.2-0.1
				c-0.3,0.1-0.7,0-1.3,0c-0.1,0-0.3,0.1-0.3,0.2c0,0.2,0,0.3-0.1,1.4c0,0.4-0.1,0.6-0.1,1c0,0.2,0,1.6-0.1,2.2
				c-0.1,1.2-0.2,4.4-0.2,5.4c-2.1,0.1-4.1-0.2-3.3-1c0.1-0.1,0.3-0.2,0.4-0.4c0.6-0.5,0.6,0,1.3-1c0.6-1,0.8-2.1,1-3
				c0.2-0.7-0.1-1-0.6,0c-0.1,0.1-0.2,0.5-0.5,0.9c-0.1,0.2-0.4,0.5-0.7,0.6c-0.6,0.2-1-0.9-0.2-1.8c0.3-0.4,0.7-0.3,0.7-0.1
				c0,0,0.1,0.2,0.3,0c0.1-0.1,0.3-0.5,0.3-0.5c0.9-1.3,1.2-3.3,1.2-3.6c0-0.2,0-0.3,0-0.5c0-0.8-0.5-1.1-0.7-0.6
				c-0.2,0.4-0.5,0.3-0.4-0.2c0.3-1.9,1.4-4.4,1.5-4.7s-0.1-0.3-0.2-0.4c-0.1-0.1-0.2-0.1-0.1-0.4c0.2-1,1.2-2.9,1.2-2.9
				c0.2-0.2-0.1-0.3-0.2-0.1c-2.2,3.4-3.1,9.2-3.1,9.6c0,1.5,0.9,0.7,0.9,0.7c-0.3,1.1-0.8,1.6-1.1,2c-1.9,2.8-1.1,4.2-1.1,4.2
				c0.3,0.6,0.8,1.1-0.3,2c-0.4,0.3-1.6,1.2-0.2,2.1c0.4,0.3,0.7,0.5,0.9,0.6h-2c0.3,0.2,0.4,0.5,0.4,0.7c0,0.5-0.3,0.5-1,0.5h-7
				c-0.4,0-0.8,0-1-0.2c-0.1-0.1-0.1-0.3-0.1-0.4c0-0.3,0.1-0.5,0.4-0.7h-2.1c0-0.1-0.1-0.2-0.1-0.3c-1.2-3.3-1.9-6.9-1.9-10.7
				c0-6.7,2.1-12.9,5.6-17.5c0,0,0,0,0-0.1v9.2c-0.2-0.1-0.5-0.1-0.7,0.1l0,0c0.2,0,0.5,0,0.7,0.2s0.2,0.4,0.2,0.6l-0.1,0.1v0.3
				c0.1,0.3,0.5,0.7,1.3,0.7c0.5,0,1.2-0.4,1.2-1.2c0,0-0.1-0.1-0.2-0.2c-0.1,0.3-0.3,0.5-0.6,0.5s-0.6-0.3-0.6-0.6s0.3-0.6,0.6-0.6
				s0.6,0.3,0.6,0.6c0.1,0,0.3,0,0.3-0.4c-0.3,0-0.5-0.3-0.5-0.6s0.3-0.6,0.6-0.6s0.6,0.3,0.6,0.6s-0.2,0.6-0.5,0.6
				c0,0.4,0.2,0.4,0.3,0.4c0-0.3,0.3-0.6,0.6-0.6s0.6,0.3,0.6,0.6s-0.3,0.6-0.6,0.6s-0.5-0.2-0.6-0.5c-0.1,0-0.2,0.2-0.2,0.2
				c0,0.7,0.7,1.2,1.2,1.2c1,0,1.3-0.8,1.3-0.9c-0.2-0.1-0.4-0.3-0.4-0.6c0-0.2,0.1-0.3,0.1-0.4c0.2,0,0.5,0,0.6,0.2
				c0.2,0.2,0.2,0.4,0.2,0.7l0,0c0.2-0.2,0.2-0.6,0-0.9c-0.2-0.2-0.4-0.2-0.6-0.2v-10c0,0-0.9-7.5,10.5-7.6
				c10.9-0.1,10.8,7.6,10.8,7.6v10.1c-0.2,0-0.4,0-0.5,0.2c-0.2,0.2-0.2,0.6,0,0.9l0,0c0-0.2,0-0.5,0.2-0.7s0.4-0.2,0.7-0.2
				c0.1,0.1,0.2,0.3,0.2,0.4c0,0.3-0.2,0.5-0.4,0.6c0,0.1,0.3,0.9,1.3,0.9c0.5,0,1.2-0.4,1.2-1.2c0,0-0.1-0.1-0.2-0.2
				c-0.1,0.3-0.3,0.5-0.6,0.5s-0.6-0.3-0.6-0.6s0.3-0.6,0.6-0.6s0.6,0.3,0.6,0.6c0.1,0,0.3,0,0.3-0.4c-0.3-0.1-0.5-0.3-0.5-0.6
				s0.3-0.6,0.6-0.6s0.6,0.3,0.6,0.6s-0.2,0.6-0.5,0.6c0,0.4,0.2,0.4,0.3,0.4c0-0.3,0.3-0.6,0.6-0.6s0.6,0.3,0.6,0.6
				s-0.3,0.6-0.6,0.6s-0.5-0.2-0.6-0.5c-0.1,0-0.2,0.2-0.2,0.2c0,0.7,0.7,1.2,1.2,1.2c1,0,1.3-0.8,1.3-0.9c-0.1,0-0.1-0.1-0.2-0.1
				c0-0.2,0-0.5,0.2-0.7s0.4-0.3,0.7-0.2l0,0c-0.2-0.2-0.4-0.2-0.6-0.2L-199.9,223C-199.9,222.9-199.9,223-199.9,223 M-226.8,233.4
				c0,0,0.1,1.1,1.1,1c0.3,0,0.5-0.1,0.6-0.2c-0.1,0.1-0.3,0.1-0.4,0.1c-0.8,0-1-0.5-1.1-0.9c0-0.1,0-0.2,0-0.2L-226.8,233.4z
				 M-234.9,232.7C-234.9,232.8-234.9,232.8-234.9,232.7c0.2,0,0.4,0.1,0.6,0.3c0.2,0.2,0.2,0.4,0.2,0.7l0,0c0.2-0.2,0.2-0.6,0-0.9
				C-234.2,232.5-234.6,232.5-234.9,232.7 M-235.4,233.1c0.2-0.2,0.2-0.6,0-0.9c-0.2-0.2-0.6-0.2-0.9,0l0,0c0.2,0,0.5,0,0.7,0.2
				C-235.4,232.7-235.4,233-235.4,233.1C-235.4,233.2-235.4,233.2-235.4,233.1 M-235.1,233.8c0.2,0.3,0.5,0.6,1,0.7
				c0.3,0,0.6-0.1,0.7-0.2c-0.1,0.1-0.3,0.1-0.5,0.1c-0.5,0-0.8-0.3-1-0.7L-235.1,233.8z M-225.4,252.2c0-0.3-0.2-0.5-0.6-0.7
				c-0.1-0.1-0.3-0.2-0.5-0.2l0,0l0,0l0,0h-6.5l0,0l0,0l0,0c-0.2,0.1-0.4,0.2-0.5,0.2c-0.3,0.2-0.6,0.5-0.6,0.7v0.1h8.6
				C-225.4,252.3-225.4,252.2-225.4,252.2 M-223.9,232.3L-223.9,232.3c0.2,0,0.4,0.1,0.6,0.3c0.2,0.2,0.2,0.4,0.2,0.7l0,0
				c0.2-0.2,0.2-0.6,0-0.9C-223.2,232-223.6,232-223.9,232.3 M-223.8,233.5c-0.3,0.1-0.6,0.5-0.6,1.6c0,0.3,0,0.4,0,0.5H-235v7.4
				c0,2,1.1,3.7,2.7,4.7c0.8,0.5,1.7,0.7,2.7,0.7c0.7,0,1.4-0.1,2-0.4c-0.8,0.5-1.7,0.7-2.7,0.7c-0.7,0-1.4-0.1-2-0.4v2.7h5.5v-3.4
				c1.6-0.9,2.7-2.7,2.7-4.7v-7.4l0,0c0,0,0-0.1,0-0.6C-224.2,234.1-224.1,233.7-223.8,233.5 M-224.4,232.8c-0.2-0.2-0.6-0.2-0.9,0
				l0,0c0.2,0,0.5,0,0.7,0.2s0.3,0.4,0.2,0.7l0,0C-224.1,233.4-224.1,233-224.4,232.8 M-212.4,217c0-0.5,0-1.1-0.9-1.1
				c0.3,0-0.7-0.1-0.7,0.4c0,0.3-0.2,0.7-0.7,0.7c0,0-1.1-0.3-0.5-0.5c0.2-0.1,0.7-0.4,0.4-1.1c-0.1-0.2-0.7-0.7-1.3-0.1
				c-0.1,0.1,0,0.5-0.3,0.5s-0.3-0.3-0.3-0.4c0-0.2-0.1-0.5-0.6-0.5s-0.6,0.4-0.6,0.5c0,0.3,0.1,0.3,0.2,0.5
				c0.2,0.1,0.1,0.5-0.2,0.3c-0.1-0.1-1.1-1-2.2-0.4c-0.5,0.3-0.4,0.7-0.1,0.9c0.1,0.1,0.2,0.2,0,0.3c-0.1,0.1-0.5,0.9,0.1,1.3
				c0.4,0.3,1.1,0.4,1.4-0.2c0.1-0.1,0.2-0.6,0.1-1c0-0.1,0.1-0.5,0.7-0.4c0.3,0,0.3,0.2,0.1,0.4s-0.8,0.6-0.9,1.8
				c0,0.3-0.1,0.6-0.5,0.8c0-0.1-0.6,0.3,0,1c0.3,0.4,0.4,0.5-0.3,1.1c-0.1,0.1-0.4,0.3,0.1,0.3c0.3,0,1.3,0,2.1-0.1l-0.1-0.3
				c-0.7,0.1-1.6,0.1-1.6,0.1c1-0.7,0.5-1.6,0.5-1.6c-0.3-0.4,0-0.6,0.5-0.7c0.6-0.1,0.7,0,1.2,0.2c0,0-0.8-0.1-1.1,0.2v0.1
				c0,0,0,0.1,0.1,0.2c0.6-0.1,0.9-0.2,0.9-0.2s0.1,0.1,0,0.1c0,0-0.1,0.1-0.1,0c0,0-0.1,0.1-0.2,0l0.1,0.1c0,0.1,0,0.2-0.1,0.2
				s-0.2,0-0.2-0.1s0-0.1,0-0.2c-0.1,0-0.2,0-0.4,0.1c0,0,0,0,0,0.1v0.1c0.1,0.2,0.1,0.3,0.1,0.4s0,0.2,0.1,0.2c0,0,0,0.1,0.1,0.2
				c0.2,0.4,0.5,1.1,1.3,0.9c0,0,0.1,0,0.1,0.1c0,0,0,0.1-0.1,0.1c0,0-0.1,0-0.2,0.1c-0.2,0.1-0.3,0.1-0.5,0c0,0.1,0.1,0.2,0.1,0.2
				s-0.3,0-0.4,0.1c0,0.1,0,0,0,0.1c0,0.5,0.7,0.9,1.5,0.9s1.5-0.4,1.5-0.9v-0.1l0,0c-0.1-0.1-0.1-0.1-0.1-0.2
				c-0.4-0.6-0.3-0.8-0.3-0.8c0-0.1,0-0.1,0-0.1c0.7,0,1.3-0.1,2-0.2c0.1,0,0.3-0.2,0.2-0.3s-1.2-0.2-1.2-0.9c0-0.5,0.1-1.1-0.8-1.4
				c-0.1,0-0.1-0.1-0.1-0.2c0-0.2-0.1-0.7-0.3-0.9s-0.4-0.4-0.4-0.5h0.1c0,0,0.4,0.2,0.6,0.6c0.1,0.3,0.4,0.5,1.2,0.5
				C-212.6,218.2-212.4,217.4-212.4,217 M-198.4,232.7c-0.2,0.2-0.2,0.6,0,0.9l0,0c0-0.2,0-0.5,0.2-0.7s0.4-0.3,0.7-0.2l0,0
				C-197.8,232.5-198.1,232.5-198.4,232.7 M-198.6,234.4c-0.2,0-0.4,0-0.5-0.1c0.2,0.1,0.4,0.2,0.7,0.2c0.5,0,0.8-0.3,1-0.7
				l-0.2-0.1C-197.8,234-198.1,234.3-198.6,234.4 M-202.6,240.4h0.3h0.3v-0.5c0-0.3-0.2-0.3-0.4-0.3v-0.1h1.2v0.1
				c-0.2,0-0.5,0-0.5,0.3v0.5h0.3v0.6c0.1,0,0.1,0,0.2,0c0.4,0,0.5-0.2,0.5-0.6c0-0.2,0-0.3,0-0.4h0.2c0,0.1,0,0.2,0,0.5v-0.1
				c0,0.2-0.1,0.4-0.2,0.6c-0.1,0.1-0.3,0.2-0.6,0.2h-0.1v0.7h1.2v-3h-2.5L-202.6,240.4L-202.6,240.4z M-199.9,237L-199.9,237
				L-199.9,237L-199.9,237l-0.3-0.2l0,0l0,0l0.1,0.1l0,0C-200.1,236.9-200.1,237-199.9,237C-199.9,237.1-199.9,237.1-199.9,237
				 M-199.9,237.3c-0.2,0-0.3,0.2-0.3,0.2c0.4-0.2,0.4,0.1,0.4,0.1S-199.6,237.4-199.9,237.3 M-199.9,237L-199.9,237
				C-199.9,237.1-199.9,237.1-199.9,237c0,0.1,0,0.1,0.1,0.1s0.1,0,0.1,0l0,0h0.1l0,0l0,0L-199.9,237L-199.9,237 M-199.6,239
				c-0.1,0-0.2,0-0.2,0v0.2C-199.7,239.2-199.6,239.1-199.6,239L-199.6,239 M-200.4,243.7c0.2-0.4,0.3-0.8,0.3-1.2v-0.4h-1.2v0.1
				c0,0.1,0,0.2,0,0.3L-200.4,243.7z M-202.2,243.5c-0.1,0-0.2,0-0.3,0v1.5c0.4,0,0.9-0.2,1.2-0.4L-202.2,243.5z M-203.1,241.3v-0.7
				h-0.7v0.7H-203.1v0.8h-0.7l0,0c0,0.5,0.3,0.9,0.7,1.1v-1.1h0.8v1.1c0.4-0.2,0.7-0.5,0.7-1v-0.1l0,0h-0.7v-0.8H-203.1z
				 M-202.2,241.3h0.7v-0.7h-0.7V241.3z M-205.4,236.6C-205.4,236.7-205.4,236.7-205.4,236.6C-205.4,236.7-205.4,236.7-205.4,236.6
				c0.1,0.1,0.1,0.1,0.1,0l0,0h0.1l0,0l0,0H-205.4L-205.4,236.6L-205.4,236.6L-205.4,236.6L-205.4,236.6L-205.4,236.6L-205.4,236.6z
				 M-205.2,239.8v2h1.2v-0.5L-205.2,239.8z M-203.1,240.4h0.3v-1.5h-1.5L-203.1,240.4z M-205.2,242.1v0.4c0,1.4,1.1,2.6,2.5,2.6
				v-1.5c-0.1,0-0.2,0-0.3,0v0.1v-0.1c0,0.2-0.1,0.4-0.2,0.6c-0.1,0.1-0.3,0.2-0.6,0.2c-0.2,0-0.4,0-0.5-0.1
				c-0.2-0.1-0.2-0.3-0.2-0.6V243c0-0.3-0.2-0.3-0.4-0.3v-0.1h1c0-0.1-0.1-0.3-0.1-0.4v-0.1C-204.1,242.1-205.2,242.1-205.2,242.1z
				 M-203.9,242.8c-0.2,0-0.3,0.1-0.3,0.3v0.6c0,0.4,0.2,0.6,0.5,0.6c0.4,0,0.5-0.2,0.5-0.6c0,0,0,0,0-0.1
				C-203.6,243.4-203.8,243.1-203.9,242.8 M-205.9,233.5c-0.1,0.3-0.3,0.9-1.1,0.9c-0.2,0-0.3-0.1-0.4-0.1c0.2,0.1,0.4,0.2,0.6,0.2
				c1.1,0.1,1.1-1,1.1-1l-0.2-0.1C-205.9,233.3-205.9,233.4-205.9,233.5 M-208.1,232.8c-0.2,0.2-0.2,0.6,0,0.9l0,0
				c0-0.2,0-0.5,0.2-0.7s0.4-0.2,0.7-0.2l0,0C-207.4,232.5-207.9,232.5-208.1,232.8 M-209.1,232.5c0.2-0.2,0.4-0.3,0.7-0.2l0,0
				c-0.2-0.2-0.6-0.2-0.9,0c-0.2,0.2-0.2,0.6,0,0.9l0,0C-209.4,232.9-209.4,232.7-209.1,232.5 M-208.6,233.5
				c0.2,0.2,0.4,0.6,0.4,1.5c0,0.4,0,0.5,0,0.6l0,0v6.3h2.6v-1.5c-0.3,0.1-0.7,0.1-0.7,0.1c-0.1,0.1,0,0.5,0,0.5
				c-0.2,0-0.2-0.3-0.2-0.3c-0.2,0-0.2,0.3-0.2,0.3c-0.2-0.1,0-0.3-0.1-0.3s-0.3,0.2-0.3,0.2c0-0.2,0.2-0.4,0.2-0.4
				c-0.1-0.1-0.2,0-0.2,0c0.1-0.4,0.4-0.2,0.5-0.1c0.1,0,0.1,0.1,0.2,0c0.2-0.2,0.6-0.3,0.6-0.3c-0.2,0-0.3-0.2-0.3-0.2
				c0.2,0,0.3-0.1,0.3-0.1c0.1-0.2,0.3-0.3,0.4-0.4V239c-0.2-0.1-0.4-0.2-0.4-0.2c-0.5,0.5-0.7,0.7-0.8,0.7c0,0-0.1,0-0.1,0.1
				c0,0.2-0.1,0.3-0.1,0.3s0-0.2-0.2-0.2s-0.2,0.2-0.2,0.2c-0.2-0.1,0-0.4,0-0.4c-0.1,0-0.3,0.1-0.3,0.1c-0.1-0.2,0.2-0.3,0.2-0.3
				c-0.1,0-0.3,0-0.3,0c0.1-0.2,0.4-0.2,0.5-0.1c0,0.1,0.1,0.1,0.1,0c0.1-0.1,0.6-0.6,0.7-0.7c-0.1,0-0.3,0-0.5-0.1
				c0,0,0.3,0,0.5-0.2c0,0,0-0.1-0.1-0.1c-0.4-0.3-0.9-0.8-0.9-0.8c-0.3,0-0.4-0.2-0.4-0.2c0.1,0,0.3,0,0.3-0.1s-0.3-0.2-0.3-0.2
				c0.1-0.1,0.3,0,0.3,0l-0.2-0.3c0.1,0,0.3,0.2,0.3,0.2c0-0.1,0-0.3,0-0.3c0.3,0.2,0.2,0.6,0.2,0.6l0.9,0.7
				c0.2,0.1,0.4,0.1,0.6-0.1c0.2-0.2,0-0.3-0.1-0.3h-0.2c0-0.1,0-0.2,0-0.2c0.1,0,0.3,0,0.3,0s0.1-0.1,0-0.1
				c-0.3-0.1-0.4-0.2-0.4-0.2c0-0.1,0-0.2,0-0.2c0.1,0,0.2,0,0.2,0c0.1-0.2,0.2-0.2,0.3-0.2s0.3,0.1,0.4,0.1h0.1
				c0.2-0.2,0.4,0,0.4,0c-0.1,0-0.2,0.1-0.2,0.1c0.1,0.1,0,0.4-0.1,0.4c-0.1,0.2,0.2,0.5,0.2,0.5c-0.2,0.1-0.4,0-0.4,0
				c0,0.4,0.7,0.5,0.7,0.5c-0.1,0.2-0.6,0.2-0.6,0.2c-0.1,0-0.1,0.1,0,0.2c0.2,0.1,0.5,0.2,0.6,0.4h0.6c0-0.1,0-0.2,0-0.3
				c0-0.2-0.2-0.4-0.4-0.7c-0.1-0.1-0.1-0.1-0.1-0.2c0,0-0.3-0.5-0.1-0.7c0.2-0.3,0.5-0.2,0.5-0.2c0.2-0.2,0.5-0.1,0.6,0.2
				c0.1,0.4-0.2,0.4,0,1c-0.2,0-0.8-0.5-0.6-1c0,0-0.1,0-0.2,0c-0.1,0-0.2,0-0.2,0.1c-0.1,0.1,0,0.4,0.1,0.5c0,0.1,0.1,0.1,0.1,0.2
				c0.2,0.2,0.4,0.5,0.4,0.7c0,0.1,0,0.2,0,0.3h0.6v-3.1h-2.2h-2.5h-0.1c0-0.1,0-0.2,0-0.4C-207.9,234-208.2,233.6-208.6,233.5
				 M-208.1,243c0,0.3,0,0.6,0.1,0.9h2.9c-0.3-0.4-0.4-0.9-0.4-1.4v-0.4h-2.6V243 M-207.1,246.1c0.4,0.5,0.8,1,1.4,1.3v3.5h5.7v-2.7
				c-0.6,0.3-1.3,0.4-2,0.4c-1,0-1.9-0.3-2.7-0.7c0.6,0.2,1.2,0.4,1.9,0.4V246h-4.3 M-198.4,252.2c0-0.4-0.4-0.7-1.1-1h-6.5
				c-0.7,0.2-1.1,0.6-1.1,1v0.1h8.6C-198.4,252.3-198.4,252.2-198.4,252.2 M-197.2,242.1h-2.6v0.4c0,0.3,0,0.5-0.1,0.7
				c0.2,0,0.4,0,0.5,0c0,0,0.4,0,0.6,0c0.1,0,0.2,0,0.3,0c0.2,0,0.5-0.2,0.6-0.3c0,0,0.1-0.1,0-0.1v-0.1c-0.1,0-0.3,0-0.5,0.1
				s-0.5,0.2-0.6,0.1c-0.1,0-0.1-0.1,0-0.3c0,0,0-0.2,0.3-0.2c0.1,0,0.1,0.1,0,0.2c-0.1,0-0.2,0.1-0.3,0.1c0,0.1,0,0.1,0,0.1
				s0.2,0.1,0.5-0.1c0.2-0.1,0.4-0.2,0.6-0.1c0.1,0,0.1,0.1,0.1,0.1c0,0.1-0.1,0.2-0.1,0.2c-0.1,0.2-0.4,0.3-0.6,0.3
				c0.1,0.1,0.1,0.1,0.1,0.1s0,0.1,0,0.2c0,0.3,0.4,0.1,0.4,0.1c0,0.2-0.1,0.5-0.1,0.6s-0.2,0.1-0.3,0.1s0-0.1,0-0.1h0.2l0.1-0.3
				c-0.4,0.1-0.6-0.3-0.6-0.3s-0.2,0.4-0.7,0.7c-0.1,0.1-0.3,0-0.3,0c-0.1-0.1,0.1-0.1,0.1-0.1c0.2-0.1,0.6-0.6,0.6-0.6
				s0.1-0.2-0.4,0.1c-0.4,0.2-0.6,0.2-0.8,0.2l0,0c-0.2,0.4-0.6,0.7-1,1c-0.4,0.2-0.8,0.4-1.3,0.4v3.1c1.1,0,2.1-0.4,3-1l0,0
				c1.4-1,2.3-2.6,2.3-4.4V242.1z M-197.2,235.6h-5.2v3.1h1.5c0,0,0,0,0.1-0.1c-0.1,0-0.2-0.1-0.3-0.2c0,0,0.3,0,0.5-0.2
				c0,0,0-0.1-0.1-0.1c-0.4-0.3-0.9-0.8-0.9-0.8c-0.3,0-0.4-0.2-0.4-0.2c0.1,0,0.3,0,0.3-0.1s-0.3-0.2-0.3-0.2c0.1-0.1,0.3,0,0.3,0
				l-0.2-0.3c0.1,0,0.3,0.2,0.3,0.2c0-0.1,0-0.3,0-0.3c0.3,0.2,0.2,0.6,0.2,0.6l0.7,0.5c0.2,0.1,0.4,0.2,0.5-0.1
				c0,0-0.2-0.1-0.3-0.2c0,0,0.1,0,0.3-0.1s0-0.5,0.2-0.5l0.8,0.2c0,0,0,0.4-0.1,0.5c0,0,0,0.3,0.2,0.3h-0.3v0.1
				c0,0.2,0.2,0.5,0.3,0.5c0.3,0.1,0.8,0.5,0.8,0.5c0.1,0,0.3,0,0.4-0.1c0.1-0.1,0.1-0.2,0-0.3c0-0.2-0.2-0.4-0.4-0.7
				c-0.1-0.1-0.1-0.1-0.1-0.2c0,0-0.3-0.5-0.1-0.7c0.2-0.3,0.5-0.2,0.5-0.2c0.2-0.2,0.5-0.1,0.6,0.2c0.1,0.4-0.2,0.4,0,1
				c-0.2,0-0.8-0.5-0.6-1c0,0-0.1,0-0.2,0s-0.2,0-0.2,0.1c-0.1,0.1,0,0.4,0.1,0.5c0,0,0.1,0.1,0.1,0.2c0.2,0.2,0.4,0.5,0.4,0.7
				s0,0.4-0.1,0.5c-0.2,0.3-0.4,0.3-0.5,0.3c0,0.1,0,0.1,0.1,0.2s0.2,0.2,0.2,0.2c-0.2,0.2-0.2,0.4,0,0.5c0.1,0.1,0.3,0,0.3,0
				c0.1,0.8-1,1.3-1,1.3c0,0.1,0.1,0,0.1,0.1c0.1,0.2-0.1,0.3-0.1,0.3c0-0.1,0-0.3-0.1-0.3s-0.2,0.3-0.2,0.3
				c-0.1-0.1,0.1-0.3,0.1-0.3c-0.1,0-0.3,0.3-0.3,0.3c-0.1-0.1,0.1-0.3,0.1-0.3c-0.1,0-0.3,0.2-0.3,0.2c0-0.4,0.3-0.4,0.5-0.4
				c0.6,0,0.5-0.7,0.5-0.7c-0.3,0.3-0.5,0.2-0.5,0.2c0.2-0.1,0.2-0.2,0.2-0.4c-0.1-0.6-0.1-0.6,0-0.7c0-0.1-0.1,0-0.1,0
				c-0.1,0.3-0.6,0.7-0.6,0.7c0.1,0,0.3,0.1,0.3,0.1c0,0.1-0.1,0.2-0.3,0.3v1.5h2.3V235.6z"/>
		</g>
	</g>
</g>
</svg>
