<?xml version="1.0" encoding="utf-8"?>
<!-- Generator: Adobe Illustrator 19.1.0, SVG Export Plug-In . SVG Version: 6.00 Build 0)  -->
<svg version="1.1" baseProfile="tiny" id="Layer_1" xmlns="http://www.w3.org/2000/svg" xmlns:xlink="http://www.w3.org/1999/xlink"
	 x="0px" y="0px" viewBox="0 0 391.1 105.9" xml:space="preserve">
<polygon fill="#9EAEB7" points="50.4,58 0.1,81.1 0.1,23.1 50.4,0 "/>
<polygon fill="#1A425B" points="50.4,58 100.8,81.1 100.8,23.1 50.4,0 "/>
<polygon fill="#2F4047" points="51,105.9 0,81.1 50.7,57.8 100.8,81.1 "/>
<polygon fill="#C8C8C8" points="28,68 50.6,78.4 50.6,52.4 28,42.1 "/>
<polygon fill="#F9F9F9" points="73.1,68 50.6,78.4 50.6,52.4 73.1,42.1 "/>
<polygon fill="#F9F9F9" points="50.6,52.4 28,42.1 50.4,33.4 73.1,42.1 "/>
<g>
	<path fill="#B2B2B2" d="M155.4,28.3h3v50.1h-3v-7.6c-2.3,5.3-6,8.6-11.5,8.6c-8.3,0-14-7.2-14-17.5c0-14.1,7.7-18.9,13.5-18.9
		c7.4,0,10.3,5.2,12,8.1V28.3z M155.4,59.4c0-8.3-4.3-13.7-11.1-13.7s-11.2,6-11.2,15.6s4.3,15.4,11.4,15.4c6,0,10.9-5.6,10.9-12.4
		V59.4z"/>
	<path fill="#B2B2B2" d="M194.6,72.5c0,2.4,1,3.9,2.6,3.9c0.4,0,1-0.1,1.7-0.3v2.8c-1,0.3-1.7,0.3-2.2,0.3c-2.8,0-4.7-2.3-5.1-6.5
		c-1.7,2.2-5.1,6.5-12.6,6.5c-6.1,0-11.1-4.7-11.1-10.6c0-9,9.9-11,14.7-11.9c5.6-1,6.3-1.3,9.1-3.5c0.2-6.9-5.6-7.5-8.8-7.5
		c-6.5,0-10.1,2.3-11.7,7.6l-2.4-2c1.1-2.8,3.4-8.2,14.3-8.2c4,0,7.3,1.1,9.4,3.1c1.7,1.7,2.1,3.2,2.1,7.2V72.5z M191.6,56.5
		c-3.2,1.7-4.2,2-8.8,2.8c-8.8,1.5-11.7,5-11.7,9c0,4.9,3.5,8.3,8.8,8.3c6.7,0,11.7-4.5,11.7-10.5V56.5z"/>
	<path fill="#B2B2B2" d="M213.9,28.8v15.2h8.5v2.8h-8.5v25.4c0,3.1,1.5,4.4,4.9,4.4c0.8,0,1.6-0.1,3.5-0.4v2.5
		c-2,0.3-3.5,0.5-4.4,0.5c-4.6,0-7-2.1-7-6.1V46.8h-7v-2.8h7V30.4L213.9,28.8z"/>
	<path fill="#B2B2B2" d="M257.9,72.5c0,2.4,1,3.9,2.6,3.9c0.4,0,1-0.1,1.7-0.3v2.8c-1,0.3-1.7,0.3-2.2,0.3c-2.8,0-4.7-2.3-5.1-6.5
		c-1.7,2.2-5.1,6.5-12.6,6.5c-6.1,0-11.1-4.7-11.1-10.6c0-9,9.9-11,14.7-11.9c5.6-1,6.3-1.3,9.1-3.5c0.2-6.9-5.6-7.5-8.8-7.5
		c-6.5,0-10.1,2.3-11.7,7.6l-2.4-2c1.1-2.8,3.4-8.2,14.3-8.2c4,0,7.3,1.1,9.4,3.1c1.7,1.7,2.1,3.2,2.1,7.2V72.5z M254.9,56.5
		c-3.2,1.7-4.2,2-8.8,2.8c-8.8,1.5-11.7,5-11.7,9c0,4.9,3.5,8.3,8.8,8.3c6.7,0,11.7-4.5,11.7-10.5V56.5z"/>
	<path fill="#FFFFFF" d="M274,50.9c2.2-3.6,5-7.9,11.6-7.9c8.3,0,13.9,7.2,13.9,17.6c0,11.1-5.6,18.7-13.6,18.7
		c-3.3,0-6.2-1.2-8.6-3.5c-1.3-1.2-2-2.2-3.3-4.7v20.4h-3V44.1h3V50.9z M274,61.6c0,9.8,4,15.1,11.3,15.1c2.9,0,11-1.5,11-15.8
		c0-9.2-4.5-15.2-11.4-15.2c-6.3,0-10.9,5.6-10.9,13.1V61.6z"/>
	<path fill="#FFFFFF" d="M337.4,61.2c0,10.5-6.5,18.1-15.2,18.1S307,71.7,307,61.2s6.5-18.1,15.2-18.1S337.4,50.7,337.4,61.2z
		 M310.2,61.2c0,9.6,4.5,15.5,12,15.5c7.5,0,12.1-5.9,12.1-15.5s-4.6-15.6-12.1-15.6C314.7,45.7,310.2,51.6,310.2,61.2z"/>
	<path fill="#FFFFFF" d="M375.4,61.2c0,10.5-6.5,18.1-15.2,18.1c-8.8,0-15.2-7.6-15.2-18.1s6.5-18.1,15.2-18.1
		C369,43.1,375.4,50.7,375.4,61.2z M348.2,61.2c0,9.6,4.5,15.5,12,15.5c7.5,0,12.1-5.9,12.1-15.5s-4.6-15.6-12.1-15.6
		C352.7,45.7,348.2,51.6,348.2,61.2z"/>
	<path fill="#FFFFFF" d="M385.9,28.3h3v50.1h-3V28.3z"/>
</g>
</svg>
