<?xml version="1.0" standalone="no"?><!DOCTYPE svg PUBLIC "-//W3C//DTD SVG 1.1//EN" "http://www.w3.org/Graphics/SVG/1.1/DTD/svg11.dtd"><svg width="960" height="500" version="1.1" xmlns="http://www.w3.org/2000/svg" xmlns:xlink="http://www.w3.org/1999/xlink"><defs xmlns="http://www.w3.org/1999/xhtml"><style type="text/css"><![CDATA[
svg { font-style: normal; font-variant: normal; font-weight: normal; font-stretch: normal; font-size: 14px; line-height: normal; font-family: 'Open Sans'; }
.axis path, .axis line { fill: none; stroke: rgb(0, 0, 0); shape-rendering: crispEdges; }
.axis text { fill: rgb(0, 0, 0); }
.axis .tick line { stroke: rgba(0, 0, 0, 0.0980392); }
.area { stroke-width: 1px; }
.area.outer, .legend .outer { fill: rgba(230, 230, 255, 0.8); stroke: rgba(216, 216, 255, 0.8); }
.area.inner, .legend .inner { fill: rgba(127, 127, 255, 0.8); stroke: rgba(96, 96, 255, 0.8); }
.median-line, .legend .median-line { fill: none; stroke: rgb(0, 0, 0); stroke-width: 3px; }
.legend .legend-bg { fill: rgba(0, 0, 0, 0.498039); stroke: rgba(0, 0, 0, 0.498039); }
.marker.client .marker-bg, .marker.client path { fill: rgba(255, 127, 0, 0.8); stroke: rgba(255, 127, 0, 0.8); stroke-width: 3px; }
.marker.server .marker-bg, .marker.server path { fill: rgba(0, 153, 51, 0.8); stroke: rgba(0, 153, 51, 0.8); stroke-width: 3px; }
.marker path { fill: none; }
.legend text, .marker text { fill: rgb(255, 255, 255); font-weight: bold; }
.marker text { text-anchor: middle; }]]></style></defs><g transform="translate(40,20)"><clipPath id="rect-clip"><rect width="900" height="440"/></clipPath><clipPath id="axes-clip"><polygon points="-40,-20 699,-20 699,100 920,100 920,480 -40,480"/></clipPath><g clip-path="url(#axes-clip)"><g class="x axis" transform="translate(0,440)"><g class="tick" transform="translate(47.368421052631575,0)" style="opacity: 1;"><line y2="-440" x2="0"/><text dy=".71em" y="10" x="0" style="text-anchor: middle;">Aug 03</text></g><g class="tick" transform="translate(213.15789473684208,0)" style="opacity: 1;"><line y2="-440" x2="0"/><text dy=".71em" y="10" x="0" style="text-anchor: middle;">Aug 10</text></g><g class="tick" transform="translate(378.9473684210526,0)" style="opacity: 1;"><line y2="-440" x2="0"/><text dy=".71em" y="10" x="0" style="text-anchor: middle;">Aug 17</text></g><g class="tick" transform="translate(544.7368421052631,0)" style="opacity: 1;"><line y2="-440" x2="0"/><text dy=".71em" y="10" x="0" style="text-anchor: middle;">Aug 24</text></g><g class="tick" transform="translate(710.5263157894736,0)" style="opacity: 1;"><line y2="-440" x2="0"/><text dy=".71em" y="10" x="0" style="text-anchor: middle;">Aug 31</text></g><g class="tick" transform="translate(876.3157894736843,0)" style="opacity: 1;"><line y2="-440" x2="0"/><text dy=".71em" y="10" x="0" style="text-anchor: middle;">Sep 07</text></g><path class="domain" d="M0,0V0H900V0"/></g><g class="y axis"><g class="tick" transform="translate(0,440)" style="opacity: 1;"><line x2="900" y2="0"/><text dy=".32em" x="-10" y="0" style="text-anchor: end;">0</text></g><g class="tick" transform="translate(0,388.9529555078601)" style="opacity: 1;"><line x2="900" y2="0"/><text dy=".32em" x="-10" y="0" style="text-anchor: end;">2</text></g><g class="tick" transform="translate(0,337.90591101572016)" style="opacity: 1;"><line x2="900" y2="0"/><text dy=".32em" x="-10" y="0" style="text-anchor: end;">4</text></g><g class="tick" transform="translate(0,286.8588665235802)" style="opacity: 1;"><line x2="900" y2="0"/><text dy=".32em" x="-10" y="0" style="text-anchor: end;">6</text></g><g class="tick" transform="translate(0,235.81182203144036)" style="opacity: 1;"><line x2="900" y2="0"/><text dy=".32em" x="-10" y="0" style="text-anchor: end;">8</text></g><g class="tick" transform="translate(0,184.7647775393004)" style="opacity: 1;"><line x2="900" y2="0"/><text dy=".32em" x="-10" y="0" style="text-anchor: end;">10</text></g><g class="tick" transform="translate(0,133.7177330471605)" style="opacity: 1;"><line x2="900" y2="0"/><text dy=".32em" x="-10" y="0" style="text-anchor: end;">12</text></g><g class="tick" transform="translate(0,82.67068855502059)" style="opacity: 1;"><line x2="900" y2="0"/><text dy=".32em" x="-10" y="0" style="text-anchor: end;">14</text></g><g class="tick" transform="translate(0,31.623644062880686)" style="opacity: 1;"><line x2="900" y2="0"/><text dy=".32em" x="-10" y="0" style="text-anchor: end;">16</text></g><path class="domain" d="M0,0H0V440H0"/><text transform="rotate(-90)" y="6" dy=".71em" style="text-anchor: end;">Time (s)</text></g></g><g class="legend" transform="translate(700, 0)"><rect class="legend-bg" width="200" height="100"/><rect class="outer" width="75" height="20" x="10" y="10"/><text x="115" y="25">5% - 95%</text><rect class="inner" width="75" height="20" x="10" y="40"/><text x="115" y="55">25% - 75%</text><path class="median-line" d="M10,80L85,80"/><text x="115" y="85">Median</text></g><path class="area upper outer" d="M1,203.03961946748652L4.780701754385964,208.43359050215594C8.561403508771928,213.82756153682539,16.122807017543856,224.6155036061643,23.850877192982452,231.12400177891215C31.578947368421048,237.63249995166,39.47368421052631,239.86155422781678,47.368421052631575,246.3487827986929C55.263157894736835,252.836011369569,63.157894736842096,263.58141423516446,71.05263157894736,264.65765608987374C78.94736842105263,265.733897944583,86.84210526315789,257.14097878840613,94.73684210526315,245.52777616644428C102.63157894736841,233.91457354448247,110.52631578947367,219.2810874567357,118.42105263157893,227.1295705474022C126.3157894736842,234.97805363806873,134.21052631578948,265.3085059071485,142.1052631578947,279.37196666473307C150,293.4354274223176,157.89473684210526,291.23189666840693,165.7894736842105,291.6445269447184C173.68421052631578,292.05715722102985,181.57894736842104,295.08594852756346,189.47368421052627,296.92789604965486C197.36842105263156,298.76984357174626,205.26315789473682,299.4249473093954,213.15789473684208,292.96749618113967C221.05263157894734,286.510045052884,228.9473684210526,272.9400390587234,236.84210526315786,269.91124775218975C244.73684210526315,266.88245644565615,252.6315789473684,274.3948798267494,260.52631578947364,282.1285070673086C268.42105263157896,289.8621343078678,276.31578947368416,297.8169654078929,284.2105263157895,294.7116035346211C292.1052631578947,291.60624166134926,300,277.4406868147804,307.8947368421052,275.04572964402416C315.7894736842105,272.650772473268,323.6842105263157,282.02641297832434,331.57894736842104,285.28491598507264C339.47368421052624,288.5434189918209,347.36842105263156,285.68478450026106,355.26315789473676,284.40010054720887C363.1578947368421,283.11541659415667,371.0526315789473,283.4046831796121,378.9473684210526,282.61345398998395C386.84210526315786,281.8222248003558,394.7368421052631,279.950499835644,402.6315789473684,277.1939594330684C410.52631578947364,274.43741903049283,418.4210526315789,270.79606319005353,426.31578947368416,269.3327145812789C434.2105263157894,267.86936597250417,442.1052631578947,268.5840245953941,450,273.72701432797726C457.89473684210526,278.87000406056035,465.7894736842105,288.4413249028366,473.6842105263158,295.59641897248486C481.57894736842104,302.7515130421331,489.4736842105263,307.49038033915343,497.36842105263156,300.34379411025384C505.2631578947368,293.1972078813543,513.1578947368421,274.1651681265348,521.0526315789473,270.0643888856662C528.9473684210526,265.96360964479766,536.8421052631579,276.79409091788,544.7368421052631,289.4027109074385C552.6315789473683,302.0113308969971,560.5263157894736,316.39808960303185,568.421052631579,309.285534737127C576.3157894736842,302.1729798712222,584.2105263157895,273.5611114333778,592.1052631578948,265.8742773169364C600,258.18744320049495,607.8947368421052,271.42564340545664,615.7894736842105,286.0038285283369C623.6842105263157,300.5820136512172,631.578947368421,316.5001836920162,639.4736842105262,324.90167643134754C647.3684210526316,333.30316917067887,655.2631578947368,334.18798460854265,663.1578947368421,332.0822940232419C671.0526315789473,329.9766034379411,678.9473684210526,324.8804068294758,686.8421052631579,325.8247771525804C694.7368421052631,326.76914747568503,702.6315789473683,333.75408473035947,710.5263157894736,340.3178838679738C718.4210526315788,346.8816830055881,726.3157894736842,353.02434402614233,734.2105263157894,352.81590192779936C742.1052631578947,352.6074598294565,749.9999999999999,346.04791461221646,757.8947368421052,348.03449542703555C765.7894736842104,350.02107624185464,773.6842105263156,360.55378308873287,781.5789473684209,361.79592783804156C789.4736842105262,363.03807258735037,797.3684210526316,354.98965523908964,805.2631578947369,350.4549761200378C813.1578947368421,345.9202970009861,821.0526315789473,344.89935611114333,828.9473684210525,350.6123711738886C836.8421052631577,356.32538623663396,844.736842105263,368.77235725196743,852.6315789473683,368.6660092426088C860.5263157894735,368.5596612332502,868.421052631579,355.8999941991995,876.3157894736842,352.9052342556606C884.2105263157895,349.9104743121217,892.1052631578948,356.58062145909463,896.0526315789474,359.9156950325811L900,363.2507686060676L900,291.8104298393178L896.0526315789474,285.3657404721851C892.1052631578948,278.92105110505247,884.2105263157895,266.0316723707872,876.3157894736842,271.80849623914764C868.421052631579,277.5853201075082,860.5263157894735,302.0283465784945,852.6315789473683,302.23253475646305C844.736842105263,302.4367229344316,836.8421052631577,278.4020728193824,828.9473684210525,267.3674033683315C821.0526315789473,256.33273391728056,813.1578947368421,258.29804513022793,805.2631578947369,267.05261326063C797.3684210526316,275.807181391032,789.4736842105262,291.3510064388886,781.5789473684209,289.08792079973705C773.6842105263156,286.8248351605855,765.7894736842104,266.7548388344258,757.8947368421051,263.3389407738268C749.9999999999999,259.92304271322774,742.1052631578947,273.1612429181894,734.2105263157895,272.4380764545507C726.3157894736842,271.7149099909121,718.4210526315788,257.03037685867315,710.5263157894736,245.20447821799405C702.6315789473683,233.37857957731498,694.7368421052631,224.41131542819573,686.8421052631578,225.01962604172707C678.9473684210526,225.62793665525842,671.0526315789473,235.81182203144033,663.1578947368421,244.85140282692345C655.2631578947368,253.89098362240654,647.3684210526316,261.78625983719087,639.4736842105264,251.87887928534136C631.578947368421,241.97149873349187,623.6842105263157,214.26146141500863,615.7894736842105,188.59330587621093C607.8947368421052,162.92515033741324,600,139.29887657830113,592.1052631578947,151.32045555620005C584.2105263157895,163.342034534099,576.3157894736842,211.01146624900898,568.421052631579,222.96498250091844C560.5263157894736,234.91849875282784,552.6315789473683,211.15609954173675,544.7368421052631,188.89108030241505C536.8421052631579,166.62606106309337,528.9473684210526,145.85842179554112,521.0526315789473,154.14931260513953C513.1578947368421,162.4402034147379,505.2631578947368,199.78962430148692,497.36842105263156,213.2788058085349C489.4736842105263,226.7679873155829,481.57894736842104,216.3969294429298,473.6842105263158,197.48399945859197C465.7894736842105,178.57106947425413,457.89473684210526,151.11626737823156,449.99999999999994,141.88100624552857C442.1052631578947,132.64574511282558,434.2105263157894,141.6300249434422,426.31578947368416,150.81423903165307C418.4210526315789,159.9984531198639,410.52631578947364,169.38260146566896,402.6315789473684,175.89535355879113C394.7368421052631,182.4081056519133,386.84210526315786,186.0494614923526,378.9473684210526,187.053386700698C371.0526315789473,188.05731190904345,363.1578947368421,186.42380648529496,355.26315789473676,188.01477270529995C347.36842105263156,189.605738925305,339.47368421052624,194.4211767890635,331.57894736842104,187.55960322524504C323.6842105263157,180.69802966142657,315.7894736842105,162.15944467003112,307.8947368421052,160.6450490167643C300,159.1306533634975,292.1052631578947,174.64044704835933,284.2105263157895,181.16596090260458C276.31578947368416,187.6914747568498,268.42105263157896,185.2327087804784,260.52631578947364,177.32467080457107C252.6315789473684,169.41663282866372,244.73684210526315,156.05932285322046,236.8421052631579,159.84105806601315C228.9473684210526,163.62279327880583,221.05263157894734,184.54357367983448,213.15789473684208,196.10572925730418C205.26315789473682,207.66788483477387,197.36842105263156,209.8714155886846,189.47368421052627,203.95421234797072C181.57894736842104,198.03700910725684,173.68421052631578,183.99907187191835,165.7894736842105,184.33513158149157C157.89473684210526,184.67119129106482,150,199.3812479455498,142.1052631578947,171.0543921727865C134.21052631578948,142.72753640002318,126.3157894736842,71.36376820001159,118.42105263157893,59.308157859117884C110.52631578947367,47.25254751822417,102.63157894736841,94.50509503644834,94.73684210526315,123.91670050466962C86.84210526315789,153.32830597289092,78.94736842105263,164.89896939110932,71.05263157894736,162.55505926484523C63.157894736842096,160.21114913858116,55.263157894736835,143.95266546783455,47.368421052631575,133.57309975443277C39.47368421052631,123.19353404103097,31.578947368421048,118.69288628497397,23.850877192982455,111.89086760639631C16.122807017543856,105.08884892781867,8.561403508771928,95.98545932672039,4.780701754385965,91.43376452617125L1,86.88206972562212Z" clip-path="url(#rect-clip)"/><path class="area lower outer" d="M1,303.44915598352577L4.780701754385964,307.3244774445541C8.561403508771928,311.1997989055823,16.122807017543856,318.9504418276389,23.850877192982452,323.6425160005414C31.578947368421048,328.334590173444,39.47368421052631,329.9680955971924,47.368421052631575,334.8430883461918C55.263157894736835,339.7180810951911,63.157894736842096,347.8345611694414,71.05263157894736,349.1320068836166C78.94736842105263,350.4294525977918,86.84210526315789,344.907863951892,94.73684210526315,347.2432662374074C102.63157894736841,349.57866852292284,110.52631578947367,359.7710617398534,118.42105263157893,368.85318173907996C126.3157894736842,377.9353017383065,134.21052631578948,385.90714851982904,142.1052631578947,389.6888837326217C150,393.47061894541446,157.89473684210526,393.0622425894773,165.7894736842105,392.9644024208674C173.68421052631578,392.86656225225744,181.57894736842104,393.0792582709747,189.47368421052627,393.194114121082C197.36842105263156,393.3089699711893,205.26315789473682,393.3259856526867,213.15789473684208,391.5563547769592C221.05263157894734,389.78672390123165,228.9473684210526,386.2304464682793,236.84210526315786,385.2818222248003C244.73684210526315,384.3331979813214,252.6315789473684,385.992226927316,260.52631578947364,388.3148674517083C268.42105263157896,390.63750797610066,276.31578947368416,393.6237600788909,284.2105263157895,393.1558288377129C292.1052631578947,392.687897596535,300,388.76578301138886,307.8947368421052,388.48927818705647C315.7894736842105,388.212773362724,323.6842105263157,391.58187829920524,331.57894736842104,392.11361834599836C339.47368421052624,392.6453583927915,347.36842105263156,390.3397335498965,355.26315789473676,389.0040025523522C363.1578947368421,387.6682715548078,371.0526315789473,387.30243440261415,378.9473684210526,386.9961521356613C386.84210526315786,386.68986986870846,394.7368421052631,386.4431424869965,402.6315789473684,386.1708915830384C410.52631578947364,385.89864067908036,418.4210526315789,385.60086625287624,426.31578947368416,385.6944525011118C434.2105263157894,385.7880387493474,442.1052631578947,386.27298567202274,450,387.8724597327764C457.89473684210526,389.4719337935302,465.7894736842105,392.18593499236226,473.6842105263158,393.5897287158961C481.57894736842104,394.99352243942997,489.4736842105263,395.08710868766553,497.36842105263156,393.5727130343987C505.2631578947368,392.05831738113187,513.1578947368421,388.93593982636264,521.0526315789473,388.0383626273758C528.9473684210526,387.14078542838905,536.8421052631579,388.4680085851847,544.7368421052631,390.96080592455087C552.6315789473683,393.45360326391705,560.5263157894736,397.11197478585376,568.421052631579,396.1973819053696C576.3157894736842,395.28278902488546,584.2105263157895,389.7952317419804,592.1052631578948,388.11493319411414C600,386.43463464624784,607.8947368421052,388.5615948334204,615.7894736842105,392.44967805557167C623.6842105263157,396.33776127772296,631.578947368421,401.98696753485314,639.4736842105262,404.994489239515C647.3684210526316,408.00201094417696,655.2631578947368,408.3678480963706,663.1578947368421,407.8361080495775C671.0526315789473,407.3043680027844,678.9473684210526,405.87505075700443,686.8421052631579,406.08774677572166C694.7368421052631,406.30044279443894,702.6315789473683,408.1551520776534,710.5263157894736,409.87373590888876C718.4210526315788,411.59231974012414,726.3157894736842,413.17477811938045,734.2105263157894,412.8599880116789C742.1052631578947,412.5451979039774,749.9999999999999,410.333159309318,757.8947368421052,410.55861708915825C765.7894736842104,410.7840748689986,773.6842105263156,413.4470290233385,781.5789473684209,413.38322021772336C789.4736842105262,413.31941141210814,797.3684210526316,410.5288396465379,805.2631578947369,408.9591430284046C813.1578947368421,407.38944641027126,821.0526315789473,407.04062493957497,828.9473684210525,409.02295183401975C836.8421052631577,411.0052787284645,844.736842105263,415.31875398805033,852.6315789473683,415.28046870468125C860.5263157894735,415.2421834213121,868.421052631579,410.85213759498805,876.3157894736842,409.8141810236479C884.2105263157895,408.7762244523077,892.1052631578948,411.09035713595136,896.0526315789474,412.2474234777732L900,413.4044898195951L900,397.09495910435635L896.0526315789474,395.2274880600188C892.1052631578948,393.3600170156814,884.2105263157895,389.62507492700655,876.3157894736842,391.2968656341241C868.421052631579,392.96865634124174,860.5263157894735,400.0471798441518,852.6315789473683,400.1067347293926C844.736842105263,400.16628961463346,836.8421052631577,393.20687588220505,828.9473684210525,390.012181681072C821.0526315789473,386.8174874799389,813.1578947368421,387.3875128101011,805.2631578947369,389.9228493532107C797.3684210526316,392.45818589632034,789.4736842105262,396.9588336523774,781.5789473684209,396.83121604114706C773.6842105263156,396.70359842991667,765.7894736842104,391.94771545139895,757.8947368421051,391.3308969971189C749.9999999999999,390.7140785428389,742.1052631578947,394.2363246127965,734.2105263157895,394.44476671113944C726.3157894736842,394.65320880948235,718.4210526315788,391.54784693621053,710.5263157894736,388.2425508053444C702.6315789473683,384.9372546744784,694.7368421052631,381.43202428601813,686.8421052631578,380.5004157240366C678.9473684210526,379.568807162055,671.0526315789473,381.21082042655223,663.1578947368421,381.58516541949456C655.2631578947368,381.95951041243694,647.3684210526316,381.0661871338245,639.4736842105264,376.2720188719377C631.578947368421,371.47785061005084,623.6842105263157,362.7828373648897,615.7894736842105,355.91700988069687C607.8947368421052,349.05118239650403,600,344.01454067327955,592.1052631578947,347.2219966355357C584.2105263157895,350.4294525977918,576.3157894736842,361.8810062455285,568.421052631579,364.2376781329157C560.5263157894736,366.59435002030284,552.6315789473683,359.85614014734034,544.7368421052631,354.993909159464C536.8421052631579,350.1316781715877,528.9473684210526,347.1454260687975,521.0526315789473,348.66407564243866C513.1578947368421,350.1827252160798,505.2631578947368,356.2062764661523,497.36842105263156,358.3417444940735C489.4736842105263,360.47721252199466,481.57894736842104,358.7245973277645,473.6842105263158,355.51714136550845C465.7894736842105,352.3096854032523,457.89473684210526,347.6473886729702,449.99999999999994,345.35452559119824C442.1052631578947,343.0616625094263,434.2105263157894,343.1382330761645,426.31578947368416,344.09536516039213C418.4210526315789,345.05249724461976,410.52631578947364,346.8901908463368,402.6315789473684,347.87284645281045C394.7368421052631,348.85550205928416,386.84210526315786,348.9831196705145,378.9473684210526,348.2174140031324C371.0526315789473,347.45170833575037,363.1578947368421,345.7926793897558,355.26315789473676,347.3708838486378C347.36842105263156,348.9490883075198,339.47368421052624,353.7645261712783,331.57894736842104,353.1902469207417C323.6842105263157,352.6159676702051,315.7894736842105,346.6519713053734,307.8947368421052,347.14117214842315C300,347.63037299147277,292.1052631578947,354.5727710424038,284.2105263157895,355.54691880812885C276.31578947368416,356.52106657385383,268.42105263157896,351.5269640543728,260.52631578947364,347.8941160546822C252.6315789473684,344.2612680549916,244.73684210526315,341.9896745750914,236.8421052631579,343.9762553899105C228.9473684210526,345.96283620472957,221.05263157894734,352.20759131426803,213.15789473684208,355.30019142641686C205.26315789473682,358.39279153856563,197.36842105263156,358.3332366533248,189.47368421052627,357.52073786182495C181.57894736842104,356.708239070325,173.68421052631578,355.14279637256607,165.7894736842105,355.9212638010712C157.89473684210526,356.69973122957634,150,359.8221087843456,142.1052631578947,350.7952897499855C134.21052631578948,341.7684707156254,126.3157894736842,320.59245509213605,118.42105263157893,311.5954135003964C110.52631578947367,302.5983719086567,102.63157894736841,305.78030434866673,94.73684210526315,310.43409323820015C86.84210526315789,315.08788212773356,78.94736842105263,321.2135274667904,71.05263157894736,320.0011601601021C63.157894736842096,318.7887928534137,55.263157894736835,310.2384129009803,47.368421052631575,305.26132606299666C39.47368421052631,300.28423922501304,31.578947368421048,298.88044550147924,23.850877192982455,293.19295396098C16.122807017543856,287.50546242048074,8.561403508771928,277.53427306301603,4.780701754385965,272.5486783842837L1,267.5630837055514Z" clip-path="url(#rect-clip)"/><path class="area upper inner" d="M1,240.43157955797898L4.780701754385964,245.81278883152538C8.561403508771928,251.1939981050718,16.122807017543856,261.95641665216465,23.850877192982452,268.28199624881563C31.578947368421048,274.60757584546667,39.47368421052631,276.4963164916759,47.368421052631575,282.2944099619081C55.263157894736835,288.0925034321403,63.157894736842096,297.79994972639554,71.05263157894736,298.9187307848483C78.94736842105263,300.03751184330105,86.84210526315789,292.56762766595125,94.73684210526315,285.3870100740569C102.63157894736841,278.2063924821625,110.52631578947367,271.31504147572366,118.42105263157893,279.6101862056964C126.3157894736842,287.9053309356691,134.21052631578948,311.38697140205346,142.1052631578947,321.6219038227275C150,331.8568362434015,157.89473684210526,328.8450606183653,165.7894736842105,328.36011369568996C173.68421052631578,327.87516677301466,181.57894736842104,329.9170485527003,189.47368421052627,330.6359610959646C197.36842105263156,331.3548736392289,205.26315789473682,330.7508169460719,213.15789473684208,326.1012819769128C221.05263157894734,321.45174700775374,228.9473684210526,312.7567337625926,236.84210526315786,310.4383471585746C244.73684210526315,308.11996055455654,252.6315789473684,312.1782005916816,260.52631578947364,317.5296324226076C268.42105263157896,322.8810642535336,276.31578947368416,329.52568787826056,284.2105263157895,327.7688187636561C292.1052631578947,326.0119496490516,300,315.85358779511574,307.8947368421052,314.49233327532534C315.7894736842105,313.13107875553493,323.6842105263157,320.56693156989,331.57894736842104,322.638590792196C339.47368421052624,324.710250014502,347.36842105263156,321.41771564475897,355.26315789473676,319.86503470812306C363.1578947368421,318.3123537714871,371.0526315789473,318.4995262679583,378.9473684210526,318.31660769186146C386.84210526315786,318.1336891157646,394.7368421052631,317.5806794670998,402.6315789473684,316.21942494730934C410.52631578947364,314.858170427519,418.4210526315789,312.68867103660307,426.31578947368416,311.6039213411451C434.2105263157894,310.5191716456871,442.1052631578947,310.5191716456871,450,313.884022661794C457.89473684210526,317.24887367790086,465.7894736842105,323.9785757101147,473.6842105263158,328.75572829050407C481.57894736842104,333.5328808708935,489.4736842105263,336.35748399945857,497.36842105263156,332.5672409459172C505.2631578947368,328.7769978923758,513.1578947368421,318.37190865672795,521.0526315789473,315.90888875998223C528.9473684210526,313.44586886323646,536.8421052631579,318.9249183053928,544.7368421052631,326.4926426513526C552.6315789473683,334.06036699731226,560.5263157894736,343.7167662470754,568.421052631579,339.5649399617147C576.3157894736842,335.413113676354,584.2105263157895,317.45306185586946,592.1052631578948,312.6376239921109C600,307.82218612835237,607.8947368421052,316.15136222131986,615.7894736842105,325.7184291432217C623.6842105263157,335.28549606512365,631.578947368421,346.0904538159599,639.4736842105262,352.441556934857C647.3684210526316,358.79266005375405,655.2631578947368,360.68990854071194,663.1578947368421,360.0050273604424C671.0526315789473,359.32014618017286,678.9473684210526,356.05313533267594,686.8421052631579,357.1804242318774C694.7368421052631,358.3077131310788,702.6315789473683,363.8293017769786,710.5263157894736,368.9297523058182C718.4210526315788,374.03020283465787,726.3157894736842,378.7095152464373,734.2105263157894,378.83713285766765C742.1052631578947,378.96475046889805,749.9999999999999,374.5406732795792,757.8947368421052,375.6041533731655C765.7894736842104,376.66763346675174,773.6842105263156,383.218670843243,781.5789473684209,383.563238393565C789.4736842105262,383.9078059438869,797.3684210526316,378.0459036680395,805.2631578947369,374.7406075371735C813.1578947368421,371.4353114063074,821.0526315789473,370.6866214204227,828.9473684210525,374.8512094669064C836.8421052631577,379.01579751339017,844.736842105263,388.09366359224236,852.6315789473683,388.01709302550415C860.5263157894735,387.94052245876594,868.421052631579,378.7095152464373,876.3157894736842,376.52725409439836C884.2105263157895,374.34499294235934,892.1052631578948,379.21147785061004,896.0526315789474,381.64472030473536L900,384.07796275886074L900,363.2507686060676L896.0526315789474,359.9156950325811C892.1052631578948,356.58062145909463,884.2105263157895,349.9104743121217,876.3157894736842,352.9052342556606C868.421052631579,355.8999941991995,860.5263157894735,368.5596612332502,852.6315789473683,368.6660092426088C844.736842105263,368.77235725196743,836.8421052631577,356.32538623663396,828.9473684210525,350.6123711738886C821.0526315789473,344.89935611114333,813.1578947368421,345.9202970009861,805.2631578947369,350.4549761200378C797.3684210526316,354.98965523908964,789.4736842105262,363.03807258735037,781.5789473684209,361.7959278380416C773.6842105263156,360.55378308873287,765.7894736842104,350.02107624185464,757.8947368421051,348.03449542703555C749.9999999999999,346.04791461221646,742.1052631578947,352.6074598294565,734.2105263157895,352.81590192779936C726.3157894736842,353.02434402614233,718.4210526315788,346.8816830055881,710.5263157894736,340.3178838679738C702.6315789473683,333.75408473035947,694.7368421052631,326.76914747568503,686.8421052631578,325.8247771525804C678.9473684210526,324.8804068294758,671.0526315789473,329.9766034379411,663.1578947368421,332.0822940232419C655.2631578947368,334.18798460854265,647.3684210526316,333.30316917067887,639.4736842105264,324.90167643134754C631.578947368421,316.5001836920162,623.6842105263157,300.5820136512172,615.7894736842105,286.0038285283369C607.8947368421052,271.42564340545664,600,258.18744320049495,592.1052631578947,265.8742773169364C584.2105263157895,273.5611114333778,576.3157894736842,302.1729798712222,568.421052631579,309.285534737127C560.5263157894736,316.39808960303185,552.6315789473683,302.0113308969971,544.7368421052631,289.4027109074385C536.8421052631579,276.79409091788,528.9473684210526,265.96360964479766,521.0526315789473,270.0643888856662C513.1578947368421,274.1651681265348,505.2631578947368,293.1972078813543,497.36842105263156,300.34379411025384C489.4736842105263,307.49038033915343,481.57894736842104,302.7515130421331,473.6842105263158,295.59641897248486C465.7894736842105,288.4413249028366,457.89473684210526,278.87000406056035,449.99999999999994,273.72701432797726C442.1052631578947,268.5840245953941,434.2105263157894,267.86936597250417,426.31578947368416,269.3327145812789C418.4210526315789,270.79606319005353,410.52631578947364,274.43741903049283,402.6315789473684,277.1939594330684C394.7368421052631,279.950499835644,386.84210526315786,281.8222248003558,378.9473684210526,282.61345398998395C371.0526315789473,283.4046831796121,363.1578947368421,283.11541659415667,355.26315789473676,284.40010054720887C347.36842105263156,285.68478450026106,339.47368421052624,288.5434189918209,331.57894736842104,285.28491598507264C323.6842105263157,282.02641297832434,315.7894736842105,272.650772473268,307.8947368421052,275.0457296440242C300,277.4406868147804,292.1052631578947,291.60624166134926,284.2105263157895,294.7116035346211C276.31578947368416,297.8169654078929,268.42105263157896,289.8621343078678,260.52631578947364,282.1285070673086C252.6315789473684,274.3948798267494,244.73684210526315,266.88245644565615,236.8421052631579,269.9112477521898C228.9473684210526,272.9400390587234,221.05263157894734,286.510045052884,213.15789473684208,292.9674961811397C205.26315789473682,299.4249473093954,197.36842105263156,298.76984357174626,189.47368421052627,296.92789604965486C181.57894736842104,295.08594852756346,173.68421052631578,292.05715722102985,165.7894736842105,291.6445269447184C157.89473684210526,291.23189666840693,150,293.4354274223176,142.1052631578947,279.37196666473307C134.21052631578948,265.3085059071485,126.3157894736842,234.97805363806873,118.42105263157893,227.1295705474022C110.52631578947367,219.2810874567357,102.63157894736841,233.91457354448247,94.73684210526315,245.52777616644428C86.84210526315789,257.14097878840613,78.94736842105263,265.733897944583,71.05263157894736,264.65765608987374C63.157894736842096,263.58141423516446,55.263157894736835,252.836011369569,47.368421052631575,246.3487827986929C39.47368421052631,239.86155422781678,31.578947368421048,237.63249995166,23.850877192982455,231.12400177891217C16.122807017543856,224.6155036061643,8.561403508771928,213.82756153682539,4.780701754385965,208.43359050215594L1,203.03961946748652Z" clip-path="url(#rect-clip)"/><path class="area lower inner" d="M1,267.5630837055514L4.780701754385964,272.5486783842837C8.561403508771928,277.53427306301603,16.122807017543856,287.50546242048074,23.850877192982452,293.19295396098C31.578947368421048,298.88044550147924,39.47368421052631,300.28423922501304,47.368421052631575,305.26132606299666C55.263157894736835,310.2384129009803,63.157894736842096,318.7887928534137,71.05263157894736,320.0011601601021C78.94736842105263,321.2135274667904,86.84210526315789,315.08788212773356,94.73684210526315,310.4340932382002C102.63157894736841,305.78030434866673,110.52631578947367,302.5983719086567,118.42105263157893,311.5954135003964C126.3157894736842,320.59245509213605,134.21052631578948,341.7684707156254,142.1052631578947,350.7952897499855C150,359.8221087843456,157.89473684210526,356.69973122957634,165.7894736842105,355.92126380107123C173.68421052631578,355.14279637256607,181.57894736842104,356.708239070325,189.47368421052627,357.5207378618249C197.36842105263156,358.3332366533248,205.26315789473682,358.39279153856563,213.15789473684208,355.30019142641686C221.05263157894734,352.20759131426803,228.9473684210526,345.96283620472957,236.84210526315786,343.97625538991053C244.73684210526315,341.9896745750914,252.6315789473684,344.2612680549916,260.52631578947364,347.89411605468223C268.42105263157896,351.5269640543728,276.31578947368416,356.52106657385383,284.2105263157895,355.54691880812885C292.1052631578947,354.5727710424038,300,347.63037299147277,307.8947368421052,347.1411721484231C315.7894736842105,346.6519713053734,323.6842105263157,352.6159676702051,331.57894736842104,353.19024692074174C339.47368421052624,353.7645261712783,347.36842105263156,348.9490883075198,355.26315789473676,347.3708838486378C363.1578947368421,345.7926793897558,371.0526315789473,347.45170833575037,378.9473684210526,348.21741400313243C386.84210526315786,348.9831196705145,394.7368421052631,348.85550205928416,402.6315789473684,347.87284645281045C410.52631578947364,346.8901908463368,418.4210526315789,345.05249724461976,426.31578947368416,344.09536516039213C434.2105263157894,343.1382330761645,442.1052631578947,343.0616625094263,450,345.35452559119824C457.89473684210526,347.6473886729702,465.7894736842105,352.3096854032523,473.6842105263158,355.5171413655084C481.57894736842104,358.7245973277645,489.4736842105263,360.47721252199466,497.36842105263156,358.3417444940735C505.2631578947368,356.2062764661523,513.1578947368421,350.1827252160798,521.0526315789473,348.66407564243866C528.9473684210526,347.1454260687975,536.8421052631579,350.1316781715877,544.7368421052631,354.993909159464C552.6315789473683,359.85614014734034,560.5263157894736,366.59435002030284,568.421052631579,364.2376781329157C576.3157894736842,361.8810062455285,584.2105263157895,350.4294525977918,592.1052631578948,347.2219966355357C600,344.01454067327955,607.8947368421052,349.05118239650403,615.7894736842105,355.91700988069687C623.6842105263157,362.7828373648897,631.578947368421,371.47785061005084,639.4736842105262,376.27201887193763C647.3684210526316,381.0661871338245,655.2631578947368,381.95951041243694,663.1578947368421,381.5851654194946C671.0526315789473,381.21082042655223,678.9473684210526,379.568807162055,686.8421052631579,380.50041572403654C694.7368421052631,381.43202428601813,702.6315789473683,384.9372546744784,710.5263157894736,388.2425508053444C718.4210526315788,391.54784693621053,726.3157894736842,394.65320880948235,734.2105263157894,394.44476671113944C742.1052631578947,394.2363246127965,749.9999999999999,390.7140785428389,757.8947368421052,391.3308969971189C765.7894736842104,391.94771545139895,773.6842105263156,396.70359842991667,781.5789473684209,396.831216041147C789.4736842105262,396.9588336523774,797.3684210526316,392.45818589632034,805.2631578947369,389.9228493532107C813.1578947368421,387.3875128101011,821.0526315789473,386.8174874799389,828.9473684210525,390.012181681072C836.8421052631577,393.20687588220505,844.736842105263,400.16628961463346,852.6315789473683,400.10673472939266C860.5263157894735,400.0471798441518,868.421052631579,392.96865634124174,876.3157894736842,391.2968656341242C884.2105263157895,389.62507492700655,892.1052631578948,393.3600170156814,896.0526315789474,395.2274880600188L900,397.09495910435635L900,384.07796275886074L896.0526315789474,381.64472030473536C892.1052631578948,379.21147785061004,884.2105263157895,374.34499294235934,876.3157894736842,376.52725409439836C868.421052631579,378.7095152464373,860.5263157894735,387.94052245876594,852.6315789473683,388.01709302550415C844.736842105263,388.09366359224236,836.8421052631577,379.01579751339017,828.9473684210525,374.8512094669065C821.0526315789473,370.6866214204227,813.1578947368421,371.4353114063074,805.2631578947369,374.7406075371735C797.3684210526316,378.0459036680395,789.4736842105262,383.9078059438869,781.5789473684209,383.563238393565C773.6842105263156,383.218670843243,765.7894736842104,376.66763346675174,757.8947368421051,375.6041533731655C749.9999999999999,374.5406732795792,742.1052631578947,378.96475046889805,734.2105263157895,378.83713285766765C726.3157894736842,378.7095152464373,718.4210526315788,374.03020283465787,710.5263157894736,368.9297523058182C702.6315789473683,363.8293017769786,694.7368421052631,358.3077131310788,686.8421052631578,357.1804242318774C678.9473684210526,356.05313533267594,671.0526315789473,359.32014618017286,663.1578947368421,360.0050273604424C655.2631578947368,360.68990854071194,647.3684210526316,358.79266005375405,639.4736842105264,352.441556934857C631.578947368421,346.0904538159599,623.6842105263157,335.28549606512365,615.7894736842105,325.7184291432218C607.8947368421052,316.15136222131986,600,307.82218612835237,592.1052631578947,312.6376239921109C584.2105263157895,317.45306185586946,576.3157894736842,335.413113676354,568.421052631579,339.56493996171474C560.5263157894736,343.7167662470754,552.6315789473683,334.06036699731226,544.7368421052631,326.4926426513526C536.8421052631579,318.9249183053928,528.9473684210526,313.44586886323646,521.0526315789473,315.9088887599822C513.1578947368421,318.37190865672795,505.2631578947368,328.7769978923758,497.36842105263156,332.5672409459172C489.4736842105263,336.35748399945857,481.57894736842104,333.5328808708935,473.6842105263158,328.75572829050407C465.7894736842105,323.9785757101147,457.89473684210526,317.24887367790086,449.99999999999994,313.884022661794C442.1052631578947,310.5191716456871,434.2105263157894,310.5191716456871,426.31578947368416,311.6039213411451C418.4210526315789,312.68867103660307,410.52631578947364,314.858170427519,402.6315789473684,316.21942494730934C394.7368421052631,317.5806794670998,386.84210526315786,318.1336891157646,378.9473684210526,318.31660769186146C371.0526315789473,318.4995262679583,363.1578947368421,318.3123537714871,355.26315789473676,319.86503470812306C347.36842105263156,321.41771564475897,339.47368421052624,324.710250014502,331.57894736842104,322.63859079219606C323.6842105263157,320.56693156989,315.7894736842105,313.13107875553493,307.8947368421052,314.49233327532534C300,315.85358779511574,292.1052631578947,326.0119496490516,284.2105263157895,327.7688187636561C276.31578947368416,329.52568787826056,268.42105263157896,322.8810642535336,260.52631578947364,317.5296324226076C252.6315789473684,312.1782005916816,244.73684210526315,308.11996055455654,236.8421052631579,310.4383471585746C228.9473684210526,312.7567337625926,221.05263157894734,321.45174700775374,213.15789473684208,326.10128197691284C205.26315789473682,330.7508169460719,197.36842105263156,331.3548736392289,189.47368421052627,330.6359610959646C181.57894736842104,329.9170485527003,173.68421052631578,327.87516677301466,165.7894736842105,328.36011369568996C157.89473684210526,328.8450606183653,150,331.8568362434015,142.1052631578947,321.6219038227275C134.21052631578948,311.38697140205346,126.3157894736842,287.9053309356691,118.42105263157893,279.6101862056964C110.52631578947367,271.31504147572366,102.63157894736841,278.2063924821625,94.73684210526315,285.3870100740569C86.84210526315789,292.56762766595125,78.94736842105263,300.03751184330105,71.05263157894736,298.9187307848483C63.157894736842096,297.79994972639554,55.263157894736835,288.0925034321403,47.368421052631575,282.29440996190806C39.47368421052631,276.4963164916759,31.578947368421048,274.60757584546667,23.850877192982455,268.28199624881563C16.122807017543856,261.95641665216465,8.561403508771928,251.1939981050718,4.780701754385965,245.8127888315254L1,240.43157955797898Z" clip-path="url(#rect-clip)"/><path class="median-line" d="M0,240.43157955797898L3.947368421052631,245.81278883152538C7.894736842105262,251.1939981050718,15.789473684210524,261.95641665216465,23.684210526315788,268.28199624881563C31.578947368421048,274.60757584546667,39.47368421052631,276.4963164916759,47.368421052631575,282.2944099619081C55.263157894736835,288.0925034321403,63.157894736842096,297.79994972639554,71.05263157894736,298.9187307848483C78.94736842105263,300.03751184330105,86.84210526315789,292.56762766595125,94.73684210526315,285.3870100740569C102.63157894736841,278.2063924821625,110.52631578947367,271.31504147572366,118.42105263157893,279.6101862056964C126.3157894736842,287.9053309356691,134.21052631578948,311.38697140205346,142.1052631578947,321.6219038227275C150,331.8568362434015,157.89473684210526,328.8450606183653,165.7894736842105,328.36011369568996C173.68421052631578,327.87516677301466,181.57894736842104,329.9170485527003,189.47368421052627,330.6359610959646C197.36842105263156,331.3548736392289,205.26315789473682,330.7508169460719,213.15789473684208,326.1012819769128C221.05263157894734,321.45174700775374,228.9473684210526,312.7567337625926,236.84210526315786,310.4383471585746C244.73684210526315,308.11996055455654,252.6315789473684,312.1782005916816,260.52631578947364,317.5296324226076C268.42105263157896,322.8810642535336,276.31578947368416,329.52568787826056,284.2105263157895,327.7688187636561C292.1052631578947,326.0119496490516,300,315.85358779511574,307.8947368421052,314.49233327532534C315.7894736842105,313.13107875553493,323.6842105263157,320.56693156989,331.57894736842104,322.638590792196C339.47368421052624,324.710250014502,347.36842105263156,321.41771564475897,355.26315789473676,319.86503470812306C363.1578947368421,318.3123537714871,371.0526315789473,318.4995262679583,378.9473684210526,318.31660769186146C386.84210526315786,318.1336891157646,394.7368421052631,317.5806794670998,402.6315789473684,316.21942494730934C410.52631578947364,314.858170427519,418.4210526315789,312.68867103660307,426.31578947368416,311.6039213411451C434.2105263157894,310.5191716456871,442.1052631578947,310.5191716456871,450,313.884022661794C457.89473684210526,317.24887367790086,465.7894736842105,323.9785757101147,473.6842105263158,328.75572829050407C481.57894736842104,333.5328808708935,489.4736842105263,336.35748399945857,497.36842105263156,332.5672409459172C505.2631578947368,328.7769978923758,513.1578947368421,318.37190865672795,521.0526315789473,315.90888875998223C528.9473684210526,313.44586886323646,536.8421052631579,318.9249183053928,544.7368421052631,326.4926426513526C552.6315789473683,334.06036699731226,560.5263157894736,343.7167662470754,568.421052631579,339.5649399617147C576.3157894736842,335.413113676354,584.2105263157895,317.45306185586946,592.1052631578948,312.6376239921109C600,307.82218612835237,607.8947368421052,316.15136222131986,615.7894736842105,325.7184291432217C623.6842105263157,335.28549606512365,631.578947368421,346.0904538159599,639.4736842105262,352.441556934857C647.3684210526316,358.79266005375405,655.2631578947368,360.68990854071194,663.1578947368421,360.0050273604424C671.0526315789473,359.32014618017286,678.9473684210526,356.05313533267594,686.8421052631579,357.1804242318774C694.7368421052631,358.3077131310788,702.6315789473683,363.8293017769786,710.5263157894736,368.9297523058182C718.4210526315788,374.03020283465787,726.3157894736842,378.7095152464373,734.2105263157894,378.83713285766765C742.1052631578947,378.96475046889805,749.9999999999999,374.5406732795792,757.8947368421052,375.6041533731655C765.7894736842104,376.66763346675174,773.6842105263156,383.218670843243,781.5789473684209,383.563238393565C789.4736842105262,383.9078059438869,797.3684210526316,378.0459036680395,805.2631578947369,374.7406075371735C813.1578947368421,371.4353114063074,821.0526315789473,370.6866214204227,828.9473684210525,374.8512094669064C836.8421052631577,379.01579751339017,844.736842105263,388.09366359224236,852.6315789473683,388.01709302550415C860.5263157894735,387.94052245876594,868.421052631579,378.7095152464373,876.3157894736842,376.52725409439836C884.2105263157895,374.34499294235934,892.1052631578948,379.21147785061004,896.0526315789474,381.64472030473536L900,384.07796275886074" clip-path="url(#rect-clip)"/><g class="marker client" transform="translate(83.42105102539062,109)" opacity="1"><path d="M32,331L32,64"/><circle class="marker-bg" cx="32" cy="32" r="32"/><text x="32" y="28.8">Client</text><text x="32" y="48">2.0</text></g><g class="marker client" transform="translate(415,109)" opacity="1"><path d="M32,331L32,64"/><circle class="marker-bg" cx="32" cy="32" r="32"/><text x="32" y="28.8">Client</text><text x="32" y="48">2.1</text></g><g class="marker server" transform="translate(580.7894897460938,189)" opacity="1"><path d="M32,251L32,64"/><circle class="marker-bg" cx="32" cy="32" r="32"/><text x="32" y="28.8">Server</text><text x="32" y="48">3.5</text></g><g class="marker client" transform="translate(746.5789184570312,109)" opacity="1"><path d="M32,331L32,64"/><circle class="marker-bg" cx="32" cy="32" r="32"/><text x="32" y="28.8">Client</text><text x="32" y="48">2.2</text></g></g></svg>