<?xml version="1.0" encoding="utf-8"?>
<!-- Generator: Adobe Illustrator 19.1.0, SVG Export Plug-In . SVG Version: 6.00 Build 0)  -->
<svg version="1.1" baseProfile="tiny" id="Laag_1" xmlns="http://www.w3.org/2000/svg" xmlns:xlink="http://www.w3.org/1999/xlink"
	 x="0px" y="0px" viewBox="-244 209 150 63" xml:space="preserve">
<g>
	<g>
		<path fill="#A9A9A9" d="M-230.6,239.2H-244v-3.1l7.1-9.3h-6.4v-3.8h12.5v3.1l-6.9,9.2h7.1C-230.6,235.4-230.6,239.2-230.6,239.2z"
			/>
		<path fill="#A9A9A9" d="M-223.9,239.2h-5v-16.2h5V239.2z"/>
		<path fill="#A9A9A9" d="M-203.8,239.2h-4.6v-11.6l0,0l-2.9,11.6h-3.2l-3-11.6l0,0v11.6h-3.7v-16.2h6.5l2.3,8.6l0,0l2.2-8.6h6.5
			L-203.8,239.2L-203.8,239.2z"/>
		<path fill="#A9A9A9" d="M-183.6,239.2h-4.6v-11.6l0,0l-2.9,11.6h-3.2l-3-11.6l0,0v11.6h-3.7v-16.2h6.5l2.3,8.6l0,0l2.2-8.6h6.5
			v16.2H-183.6z"/>
		<path fill="#A9A9A9" d="M-168.8,239.2H-181v-16.2h12.1v3.7h-7.3v2.4h5.9v3.6h-5.9v2.6h7.3L-168.8,239.2L-168.8,239.2z"/>
		<path fill="#A9A9A9" d="M-161.8,239.2h-5v-16.2h8.2c1.4,0,3,0.2,4.2,1c1.3,0.8,2,2.3,2,3.9c0,2.1-0.9,3.4-2.8,4.3l2.9,7h-5.5
			l-2.4-6.2h-1.6L-161.8,239.2L-161.8,239.2z M-161.8,229.6h1.8c1.1,0,2.4-0.2,2.4-1.6c0-0.5-0.3-1.1-0.8-1.3
			c-0.4-0.2-0.9-0.2-1.4-0.2h-2V229.6L-161.8,229.6z"/>
		<path fill="#A9A9A9" d="M-133.2,239.2h-4.6v-11.6h-0.1l-2.9,11.6h-3.2l-3-11.6l0,0v11.6h-3.7v-16.2h6.5l2.3,8.6l0,0l2.2-8.6h6.5
			V239.2z"/>
		<path fill="#A9A9A9" d="M-122.3,236.1h-4.3l-1,3.2h-4l5-16.2h5.2l5.1,16.2h-5.1L-122.3,236.1z M-123.1,232.6l-1.3-4.7l-1.3,4.7
			H-123.1z"/>
		<path fill="#A9A9A9" d="M-105.2,239.2l-4.6-7.6l-1.4-2.9l0,0v0.2c0.2,1,0.3,1.6,0.3,2.7v7.5h-4v-16.1h4.7l5.4,9l0,0l-0.3-4.5v-4.5
			h4v16.2H-105.2z"/>
	</g>
	<g>
		<path fill="#A9A9A9" d="M-230.6,258H-244v-3.1l7.1-9.3h-6.4v-3.8h12.5v3.1l-6.9,9.2h7.1C-230.6,254.2-230.6,258-230.6,258z"/>
		<path fill="#A9A9A9" d="M-223.9,258h-5v-16.2h5V258z"/>
		<path fill="#A9A9A9" d="M-203.8,258h-4.6v-11.6l0,0l-2.9,11.6h-3.2l-3-11.6l0,0V258h-3.7v-16.2h6.5l2.3,8.6l0,0l2.2-8.6h6.5
			L-203.8,258L-203.8,258z"/>
		<path fill="#A9A9A9" d="M-183.6,258h-4.6v-11.6l0,0l-2.9,11.6h-3.2l-3-11.6l0,0V258h-3.7v-16.2h6.5l2.3,8.6l0,0l2.2-8.6h6.5V258
			H-183.6z"/>
		<path fill="#A9A9A9" d="M-168.8,258H-181v-16.2h12.1v3.7h-7.3v2.4h5.9v3.6h-5.9v2.6h7.3L-168.8,258L-168.8,258z"/>
		<path fill="#A9A9A9" d="M-161.8,258h-5v-16.2h8.2c1.4,0,3,0.2,4.2,1c1.3,0.8,2,2.3,2,3.9c0,2.1-0.9,3.4-2.8,4.3l2.9,7h-5.5
			l-2.4-6.2h-1.6L-161.8,258L-161.8,258z M-161.8,248.4h1.8c1.1,0,2.4-0.2,2.4-1.6c0-0.5-0.3-1.1-0.8-1.3c-0.4-0.2-0.9-0.2-1.4-0.2
			h-2V248.4L-161.8,248.4z"/>
		<path fill="#A9A9A9" d="M-133.2,258h-4.6v-11.6h-0.1l-2.9,11.6h-3.2l-3-11.6l0,0V258h-3.7v-16.2h6.5l2.3,8.6l0,0l2.2-8.6h6.5V258z
			"/>
		<path fill="#A9A9A9" d="M-122.3,254.8h-4.3l-1,3.2h-4l5-16.2h5.2l5.1,16.2h-5.1L-122.3,254.8z M-123.1,251.2l-1.3-4.7l-1.3,4.7
			H-123.1z"/>
		<path fill="#A9A9A9" d="M-105.2,258l-4.6-7.6l-1.4-2.9l0,0v0.2c0.2,1,0.3,1.6,0.3,2.7v7.5h-4v-16.2h4.7l5.4,9l0,0l-0.3-4.5v-4.5h4
			v16.2h-4.1V258z"/>
		<path fill="#A9A9A9" d="M-94,258h-4.5v-4.3h4.5V258z"/>
	</g>
</g>
</svg>
