<?xml version="1.0" encoding="utf-8"?>
<!-- Generator: Adobe Illustrator 19.0.0, SVG Export Plug-In . SVG Version: 6.00 Build 0)  -->
<svg version="1.1" id="Layer_1" xmlns="http://www.w3.org/2000/svg" xmlns:xlink="http://www.w3.org/1999/xlink" x="0px" y="0px"
	 viewBox="7 152.5 661 177.5" style="enable-background:new 7 152.5 661 177.5;" xml:space="preserve">
<style type="text/css">
	.st0{fill:#4FBDBE;}
	.st1{fill:#A52723;}
	.st2{fill:#EE3B24;}
	.st3{fill:#FFFFFF;}
	.st4{fill:#C6C5C5;}
	.st5{fill:#EE3B24;stroke:#EE3B24;stroke-miterlimit:10;}
	.st6{fill:#FFFFFF;stroke:#FFFFFF;stroke-miterlimit:10;}
</style>
<g id="XMLID_73_">
	<polygon id="XMLID_1_" class="st0" points="9.6,196.9 93.6,152.5 177.6,196.9 177.6,285.6 93.6,330 9.6,285.6 	"/>
	<polygon id="XMLID_2_" class="st1" points="177.6,285.6 93.6,241.3 93.6,152.5 177.6,196.9 	"/>
	<polygon id="XMLID_3_" class="st2" points="9.6,285.6 93.6,241.3 93.6,152.5 9.6,196.9 	"/>
	<polygon id="XMLID_6_" class="st3" points="133.6,262.2 93.6,283.3 53.6,262.2 53.6,220.2 93.6,199.2 133.6,220.2 	"/>
	<polygon id="XMLID_5_" class="st4" points="54,220.2 93.8,241.2 93.8,283.3 54,262.2 	"/>
	<polygon id="XMLID_4_" class="st3" points="133.6,220.2 93.8,241.2 93.8,283.3 133.6,262.2 	"/>
</g>
<g id="XMLID_74_">
	<path id="XMLID_75_" class="st5" d="M256.8,186h5.2v87.4h-5.2v-13.2c-4,9.2-10.5,15-20.1,15c-14.4,0-24.4-12.5-24.4-30.5
		c0-24.6,13.5-33,23.5-33c13,0,18.1,9.1,21,14.2V186z M256.8,240.3c0-14.5-7.5-23.9-19.4-23.9s-19.5,10.5-19.5,27.2
		c0,16.6,7.5,26.9,19.9,26.9c10.4,0,19-9.7,19-21.6V240.3z"/>
	<path id="XMLID_78_" class="st5" d="M325.1,263.3c0,4.1,1.8,6.8,4.6,6.8c0.7,0,1.7-0.2,2.9-0.5v4.8c-1.7,0.5-2.9,0.6-3.9,0.6
		c-5,0-8.2-4-8.8-11.4c-2.9,3.9-8.9,11.3-22.1,11.3c-10.7,0-19.4-8.2-19.4-18.4c0-15.8,17.2-19.3,25.6-20.7c9.7-1.7,11-2.3,15.9-6.1
		c0.4-12-9.7-13.1-15.3-13.1c-11.3,0-17.7,4-20.4,13.2l-4.1-3.5c1.9-4.8,5.9-14.3,25-14.3c7,0,12.7,1.9,16.4,5.5
		c2.9,2.9,3.6,5.6,3.6,12.6L325.1,263.3L325.1,263.3z M319.9,235.2c-5.6,2.9-7.4,3.5-15.3,4.8c-15.4,2.7-20.5,8.7-20.5,15.6
		c0,8.6,6.2,14.4,15.4,14.4c11.6,0,20.4-7.9,20.4-18.3V235.2z"/>
	<path id="XMLID_81_" class="st5" d="M358.9,187v26.5h14.9v4.8h-14.9v44.2c0,5.3,2.5,7.6,8.5,7.6c1.5,0,2.8-0.1,6.2-0.7v4.4
		c-3.5,0.6-6.1,0.8-7.8,0.8c-8,0-12.2-3.6-12.2-10.7v-45.5h-12.2v-4.9h12.2v-23.8L358.9,187z"/>
	<path id="XMLID_83_" class="st5" d="M435.8,263.3c0,4.1,1.8,6.8,4.6,6.8c0.7,0,1.7-0.2,2.9-0.5v4.8c-1.7,0.5-2.9,0.6-3.9,0.6
		c-5,0-8.2-4-8.8-11.4c-2.9,3.9-8.9,11.3-22.1,11.3c-10.7,0-19.4-8.2-19.4-18.4c0-15.8,17.2-19.3,25.6-20.7c9.7-1.7,11-2.3,15.9-6.1
		c0.4-12-9.7-13.1-15.3-13.1c-11.3,0-17.7,4-20.4,13.2l-4.1-3.5c1.9-4.8,5.9-14.3,25-14.3c7,0,12.7,1.9,16.4,5.5
		c2.9,2.9,3.6,5.6,3.6,12.6L435.8,263.3L435.8,263.3z M430.5,235.2c-5.6,2.9-7.4,3.5-15.3,4.8c-15.4,2.7-20.5,8.7-20.5,15.6
		c0,8.6,6.2,14.4,15.4,14.4c11.6,0,20.4-7.9,20.4-18.3V235.2z"/>
	<path id="XMLID_86_" class="st6" d="M463.8,225.5c3.8-6.3,8.7-13.8,20.2-13.8c14.4,0,24.2,12.5,24.2,30.8
		c0,19.4-9.7,32.6-23.8,32.6c-5.7,0-10.8-2.1-15-6.1c-2.3-2.2-3.5-3.9-5.7-8.2v35.7h-5.2v-83h5.2L463.8,225.5L463.8,225.5z
		 M463.8,244.1c0,17.1,7,26.4,19.8,26.4c5.1,0,19.2-2.7,19.2-27.6c0-16-7.9-26.5-19.9-26.5c-10.9,0-19,9.7-19,22.8v4.9L463.8,244.1
		L463.8,244.1z"/>
	<path id="XMLID_89_" class="st6" d="M574.6,243.5c0,18.3-11.3,31.6-26.5,31.6c-15.3,0-26.5-13.3-26.5-31.6s11.3-31.6,26.5-31.6
		C563.2,211.9,574.6,225.2,574.6,243.5z M527.1,243.5c0,16.7,7.9,27,21,27s21.1-10.3,21.1-27s-8-27.2-21.1-27.2
		C534.8,216.3,527.1,226.8,527.1,243.5z"/>
	<path id="XMLID_92_" class="st6" d="M640.8,243.5c0,18.3-11.3,31.6-26.5,31.6c-15.3,0-26.5-13.3-26.5-31.6s11.3-31.6,26.5-31.6
		C629.6,211.9,640.8,225.2,640.8,243.5z M593.3,243.5c0,16.7,7.9,27,21,27s21.1-10.3,21.1-27s-8-27.2-21.1-27.2
		S593.3,226.8,593.3,243.5z"/>
	<path id="XMLID_95_" class="st6" d="M659.2,186h5.2v87.4h-5.2V186z"/>
</g>
</svg>
