<?xml version="1.0" standalone="no"?><!DOCTYPE svg PUBLIC "-//W3C//DTD SVG 1.1//EN" "http://www.w3.org/Graphics/SVG/1.1/DTD/svg11.dtd"><svg width="960" height="500" version="1.1" xmlns="http://www.w3.org/2000/svg" xmlns:xlink="http://www.w3.org/1999/xlink"><defs xmlns="http://www.w3.org/1999/xhtml"><style type="text/css"><![CDATA[
body { font-family: 'Helvetica Neue', Helvetica, Arial, sans-serif; margin: auto; position: relative; width: 960px; }
text { font-style: normal; font-variant: normal; font-weight: normal; font-stretch: normal; font-size: 10px; line-height: normal; font-family: sans-serif; }
.axis path, .axis line { fill: none; stroke: rgb(0, 0, 0); shape-rendering: crispEdges; }
form { position: absolute; right: 10px; top: 10px; }]]></style></defs><g transform="translate(10,40)"><g class="layer" style="fill: rgb(170, 170, 221);"><rect x="7" y="432.8518570937486" width="15" height="7.148142906251394"/><rect x="23" y="430.1971478983516" width="15" height="9.802852101648398"/><rect x="39" y="433.00938562046525" width="15" height="6.9906143795347475"/><rect x="55" y="432.87374828279627" width="15" height="7.126251717203729"/><rect x="71" y="429.8896412278963" width="15" height="10.110358772103723"/><rect x="87" y="430.67808782938744" width="15" height="9.321912170612563"/><rect x="103" y="434.2913445059014" width="15" height="5.708655494098593"/><rect x="119" y="431.58087810749237" width="15" height="8.419121892507633"/><rect x="135" y="433.27314898026947" width="15" height="6.726851019730532"/><rect x="151" y="431.10356497224336" width="15" height="8.896435027756638"/><rect x="167" y="434.30025647913135" width="15" height="5.699743520868651"/><rect x="183" y="430.72649998571734" width="15" height="9.27350001428266"/><rect x="199" y="430.80817062757757" width="15" height="9.191829372422433"/><rect x="215" y="431.74412200150215" width="15" height="8.255877998497851"/><rect x="231" y="434.7239397773193" width="15" height="5.276060222680712"/><rect x="247" y="429.70781262870133" width="15" height="10.292187371298667"/><rect x="263" y="430.58437218742654" width="15" height="9.415627812573462"/><rect x="279" y="433.2695139893753" width="15" height="6.730486010624702"/><rect x="295" y="434.04850247204627" width="15" height="5.951497527953734"/><rect x="311" y="434.4749891990965" width="15" height="5.5250108009034875"/><rect x="327" y="432.7420544289646" width="15" height="7.257945571035407"/><rect x="343" y="432.56875589337255" width="15" height="7.431244106627446"/><rect x="359" y="430.34837340054133" width="15" height="9.651626599458666"/><rect x="375" y="434.39447662876586" width="15" height="5.605523371234142"/><rect x="391" y="430.064946412925" width="15" height="9.935053587075004"/><rect x="407" y="427.71214722361486" width="15" height="12.287852776385137"/><rect x="423" y="427.50182555784505" width="15" height="12.498174442154948"/><rect x="439" y="424.6548573054896" width="15" height="15.3451426945104"/><rect x="455" y="413.88446993568624" width="15" height="26.11553006431376"/><rect x="471" y="404.0230951625422" width="15" height="35.97690483745782"/><rect x="487" y="395.441537713344" width="15" height="44.55846228665598"/><rect x="503" y="377.7202136927894" width="15" height="62.2797863072106"/><rect x="519" y="369.1378912164411" width="15" height="70.86210878355888"/><rect x="535" y="363.4642348997446" width="15" height="76.53576510025539"/><rect x="551" y="356.76279700227394" width="15" height="83.23720299772606"/><rect x="567" y="337.7868066878092" width="15" height="102.21319331219081"/><rect x="583" y="245.15691437637744" width="15" height="194.84308562362256"/><rect x="599" y="114.31750743515771" width="15" height="325.6824925648423"/><rect x="615" y="87.69721162955454" width="15" height="352.30278837044546"/><rect x="631" y="222.24817491198192" width="15" height="217.75182508801808"/><rect x="647" y="359.35461985485864" width="15" height="80.64538014514136"/><rect x="663" y="416.49317068186804" width="15" height="23.506829318131963"/><rect x="679" y="426.95974404615686" width="15" height="13.040255953843143"/><rect x="695" y="430.9011606317691" width="15" height="9.098839368230927"/><rect x="711" y="433.1702673458396" width="15" height="6.829732654160409"/><rect x="727" y="429.0631957432924" width="15" height="10.936804256707603"/><rect x="743" y="428.75750260837015" width="15" height="11.242497391629854"/><rect x="759" y="423.3892867547013" width="15" height="16.61071324529871"/><rect x="775" y="423.2598268195746" width="15" height="16.740173180425415"/><rect x="791" y="412.31702190976137" width="15" height="27.682978090238635"/><rect x="807" y="346.82086000113617" width="15" height="93.17913999886383"/><rect x="823" y="310.67671619148075" width="15" height="129.32328380851925"/><rect x="839" y="381.5965098904084" width="15" height="58.40349010959159"/><rect x="855" y="380.90983329966195" width="15" height="59.090166700338045"/><rect x="871" y="374.5099443923865" width="15" height="65.4900556076135"/><rect x="887" y="369.94739509214116" width="15" height="70.05260490785884"/><rect x="903" y="366.4558623012316" width="15" height="73.5441376987684"/><rect x="919" y="363.6257345396514" width="15" height="76.37426546034862"/></g><g class="layer" style="fill: rgb(142, 142, 181);"><rect x="7" y="409.858272013511" width="15" height="22.993585080237608"/><rect x="23" y="403.1500083869705" width="15" height="27.04713951138109"/><rect x="39" y="401.4657122389585" width="15" height="31.54367338150678"/><rect x="55" y="383.4616905057437" width="15" height="49.41205777705255"/><rect x="71" y="366.7912301486456" width="15" height="63.098411079250695"/><rect x="87" y="349.8684793852101" width="15" height="80.80960844417734"/><rect x="103" y="337.56017247363906" width="15" height="96.73117203226235"/><rect x="119" y="333.8945817073188" width="15" height="97.68629640017355"/><rect x="135" y="345.46109547972173" width="15" height="87.81205350054773"/><rect x="151" y="358.41638781326645" width="15" height="72.68717715897691"/><rect x="167" y="378.13847086981474" width="15" height="56.16178560931661"/><rect x="183" y="393.78309908832887" width="15" height="36.94340089738847"/><rect x="199" y="408.3354726027524" width="15" height="22.47269802482515"/><rect x="215" y="417.8687644142547" width="15" height="13.875357587247436"/><rect x="231" y="422.0427903755837" width="15" height="12.681149401735581"/><rect x="247" y="422.18301384347984" width="15" height="7.524798785221492"/><rect x="263" y="419.80178824274145" width="15" height="10.782583944685086"/><rect x="279" y="427.7606573976509" width="15" height="5.5088565917243955"/><rect x="295" y="427.23631297351136" width="15" height="6.812189498534906"/><rect x="311" y="427.33967777148007" width="15" height="7.135311427616443"/><rect x="327" y="427.3617514846974" width="15" height="5.380302944267214"/><rect x="343" y="425.44479668325965" width="15" height="7.123959210112901"/><rect x="359" y="421.0909679822506" width="15" height="9.257405418290716"/><rect x="375" y="424.02415837502366" width="15" height="10.370318253742198"/><rect x="391" y="424.80455625683373" width="15" height="5.260390156091262"/><rect x="407" y="417.86591420179207" width="15" height="9.846233021822798"/><rect x="423" y="418.4932861903703" width="15" height="9.008539367474725"/><rect x="439" y="418.0241702087916" width="15" height="6.630687096698011"/><rect x="455" y="406.2060524045078" width="15" height="7.678417531178468"/><rect x="471" y="394.62095463859487" width="15" height="9.40214052394731"/><rect x="487" y="389.80619490208176" width="15" height="5.635342811262262"/><rect x="503" y="367.7499901662649" width="15" height="9.970223526524478"/><rect x="519" y="360.0815294503712" width="15" height="9.056361766069926"/><rect x="535" y="354.68287205350344" width="15" height="8.781362846241166"/><rect x="551" y="340.39813753828565" width="15" height="16.36465946398829"/><rect x="567" y="314.46117778796923" width="15" height="23.325628899839955"/><rect x="583" y="209.74965668259037" width="15" height="35.40725769378707"/><rect x="599" y="62.00985897555376" width="15" height="52.307648459603946"/><rect x="615" y="17.551943066112244" width="15" height="70.1452685634423"/><rect x="631" y="148.81699468721553" width="15" height="73.4311802247664"/><rect x="647" y="293.1596097948999" width="15" height="66.19501005995875"/><rect x="663" y="367.52532273773363" width="15" height="48.967847944134405"/><rect x="679" y="392.83887032607913" width="15" height="34.120873720077725"/><rect x="695" y="410.57567390225324" width="15" height="20.32548672951583"/><rect x="711" y="419.95680764161" width="15" height="13.213459704229592"/><rect x="727" y="420.19411975169345" width="15" height="8.869075991598947"/><rect x="743" y="419.44549910246315" width="15" height="9.312003505907"/><rect x="759" y="416.67956868183626" width="15" height="6.70971807286503"/><rect x="775" y="413.9671796255322" width="15" height="9.292647194042388"/><rect x="791" y="404.65776906339937" width="15" height="7.659252846361994"/><rect x="807" y="341.2937713990557" width="15" height="5.527088602080482"/><rect x="823" y="301.50463895991146" width="15" height="9.17207723156929"/><rect x="839" y="373.2234402360978" width="15" height="8.373069654310598"/><rect x="855" y="372.41142992046997" width="15" height="8.498403379191984"/><rect x="871" y="365.01857841805645" width="15" height="9.491365974330051"/><rect x="887" y="363.65401034562564" width="15" height="6.293384746515528"/><rect x="903" y="360.429056365929" width="15" height="6.026805935302605"/><rect x="919" y="354.40098363750263" width="15" height="9.224750902148742"/></g><g class="layer" style="fill: rgb(113, 113, 142);"><rect x="7" y="400.1625598818715" width="15" height="9.695712131639482"/><rect x="23" y="395.7799819051084" width="15" height="7.370026481862112"/><rect x="39" y="394.3309787267867" width="15" height="7.134733512171749"/><rect x="55" y="377.7720312642827" width="15" height="5.689659241461015"/><rect x="71" y="360.03360394735375" width="15" height="6.757626201291828"/><rect x="87" y="339.8856833860277" width="15" height="9.982795999182372"/><rect x="103" y="324.18834358649184" width="15" height="13.371828887147217"/><rect x="119" y="313.74157966934155" width="15" height="20.153002037977274"/><rect x="135" y="313.6519467724918" width="15" height="31.80914870722995"/><rect x="151" y="316.01461184007877" width="15" height="42.40177597318768"/><rect x="167" y="317.94997267467636" width="15" height="60.18849819513838"/><rect x="183" y="319.1201495354682" width="15" height="74.66294955286065"/><rect x="199" y="319.04699972967126" width="15" height="89.28847287308116"/><rect x="215" y="319.6430355298829" width="15" height="98.22572888437179"/><rect x="231" y="326.9495111614185" width="15" height="95.0932792141652"/><rect x="247" y="333.1312617484379" width="15" height="89.05175209504193"/><rect x="263" y="340.09658058409764" width="15" height="79.70520765864381"/><rect x="279" y="364.28955254203805" width="15" height="63.47110485561285"/><rect x="295" y="372.8418093397033" width="15" height="54.394503633808085"/><rect x="311" y="376.4609792130163" width="15" height="50.87869855846378"/><rect x="327" y="375.72290293478864" width="15" height="51.638848549908744"/><rect x="343" y="369.12834360469367" width="15" height="56.316453078565985"/><rect x="359" y="355.7516889864698" width="15" height="65.33927899578083"/><rect x="375" y="356.5040801689923" width="15" height="67.52007820603137"/><rect x="391" y="351.32786504457556" width="15" height="73.47669121225817"/><rect x="407" y="346.3565732360222" width="15" height="71.50934096576987"/><rect x="423" y="351.1548203629073" width="15" height="67.33846582746304"/><rect x="439" y="358.53965293637606" width="15" height="59.48451727241553"/><rect x="455" y="354.00454152544967" width="15" height="52.201510879058105"/><rect x="471" y="354.80537901269946" width="15" height="39.815575625895406"/><rect x="487" y="360.87321379621517" width="15" height="28.932981105866588"/><rect x="503" y="345.0926874597821" width="15" height="22.657302706482824"/><rect x="519" y="344.4819563250669" width="15" height="15.599573125304289"/><rect x="535" y="342.93444801442064" width="15" height="11.748424039082806"/><rect x="551" y="327.8444920116643" width="15" height="12.55364552662138"/><rect x="567" y="305.33537747835067" width="15" height="9.125800309618569"/><rect x="583" y="202.7447560212461" width="15" height="7.004900661344266"/><rect x="599" y="51.866930346451724" width="15" height="10.142928629102038"/><rect x="615" y="8.46420905040938" width="15" height="9.087734015702864"/><rect x="631" y="133.20832406590165" width="15" height="15.608670621313877"/><rect x="647" y="277.9451470327786" width="15" height="15.214462762121286"/><rect x="663" y="345.4811722817803" width="15" height="22.044150455953343"/><rect x="679" y="364.5048047044466" width="15" height="28.334065621632533"/><rect x="695" y="373.5976106183035" width="15" height="36.97806328394972"/><rect x="711" y="376.8352217276201" width="15" height="43.12158591398992"/><rect x="727" y="369.73528569167013" width="15" height="50.45883406002332"/><rect x="743" y="361.8778899431448" width="15" height="57.56760915931835"/><rect x="759" y="349.0347374088941" width="15" height="67.64483127294216"/><rect x="775" y="343.9034077264655" width="15" height="70.0637718990667"/><rect x="791" y="334.7148374456691" width="15" height="69.94293161773027"/><rect x="807" y="274.6403594797116" width="15" height="66.65341191934408"/><rect x="823" y="240.8557333852429" width="15" height="60.64890557466856"/><rect x="839" y="317.0363206729438" width="15" height="56.187119563154"/><rect x="855" y="324.04368531730034" width="15" height="48.367744603169626"/><rect x="871" y="326.79446796183873" width="15" height="38.224110456217716"/><rect x="887" y="332.6378675665825" width="15" height="31.01614277904315"/><rect x="903" y="333.88963982081003" width="15" height="26.539416545118968"/><rect x="919" y="335.03701533488476" width="15" height="19.363968302617877"/></g><g class="layer" style="fill: rgb(85, 85, 102);"><rect x="7" y="390.2632325492176" width="15" height="9.899327332653911"/><rect x="23" y="389.9029375998763" width="15" height="5.877044305232118"/><rect x="39" y="383.95409937758825" width="15" height="10.376879349198475"/><rect x="55" y="369.1061177255849" width="15" height="8.665913538697794"/><rect x="71" y="353.52297156356366" width="15" height="6.510632383790096"/><rect x="87" y="329.83716429645676" width="15" height="10.04851908957096"/><rect x="103" y="315.89130750810966" width="15" height="8.297036078382177"/><rect x="119" y="304.00560354201133" width="15" height="9.735976127330218"/><rect x="135" y="306.71763211556424" width="15" height="6.9343146569275405"/><rect x="151" y="303.442752434179" width="15" height="12.571859405899772"/><rect x="167" y="301.81406531734655" width="15" height="16.135907357329813"/><rect x="183" y="285.6029887401503" width="15" height="33.51716079531792"/><rect x="199" y="264.1926302567209" width="15" height="54.85436947295034"/><rect x="215" y="254.85502152030307" width="15" height="64.78801400957985"/><rect x="231" y="262.08666295698407" width="15" height="64.86284820443444"/><rect x="247" y="288.60498626572553" width="15" height="44.52627548271238"/><rect x="263" y="316.83789064040894" width="15" height="23.258689943688694"/><rect x="279" y="352.22717521913796" width="15" height="12.06237732290009"/><rect x="295" y="361.8908443561269" width="15" height="10.950964983576398"/><rect x="311" y="370.10142641083746" width="15" height="6.3595528021788255"/><rect x="327" y="366.8414231290553" width="15" height="8.881479805733363"/><rect x="343" y="362.9714681509398" width="15" height="6.156875453753855"/><rect x="359" y="346.81235379930973" width="15" height="8.939335187160054"/><rect x="375" y="350.8977472914786" width="15" height="5.606332877513694"/><rect x="391" y="343.92167422906914" width="15" height="7.40619081550642"/><rect x="407" y="338.1355149737975" width="15" height="8.221058262224687"/><rect x="423" y="341.4404954725999" width="15" height="9.71432489030741"/><rect x="439" y="349.07015823436996" width="15" height="9.469494702006102"/><rect x="455" y="344.6865988447111" width="15" height="9.317942680738554"/><rect x="471" y="347.61764112597484" width="15" height="7.187737886724619"/><rect x="487" y="355.3769285304962" width="15" height="5.496285265718996"/><rect x="503" y="338.11775159109345" width="15" height="6.974935868688647"/><rect x="519" y="334.69258573260186" width="15" height="9.789370592465048"/><rect x="535" y="333.3851217095195" width="15" height="9.549326304901115"/><rect x="551" y="318.772173894754" width="15" height="9.072318116910253"/><rect x="567" y="296.7678141387747" width="15" height="8.56756333957594"/><rect x="583" y="192.1891444602839" width="15" height="10.555611560962205"/><rect x="599" y="42.30345352684104" width="15" height="9.563476819610685"/><rect x="615" y="0" width="15" height="8.46420905040938"/><rect x="631" y="120.70769820326669" width="15" height="12.500625862634962"/><rect x="647" y="266.21625920307895" width="15" height="11.728887829699659"/><rect x="663" y="329.9718296702087" width="15" height="15.509342611571583"/><rect x="679" y="343.8074948784837" width="15" height="20.69730982596292"/><rect x="695" y="345.7979995072519" width="15" height="27.799611111051604"/><rect x="711" y="346.1410340358085" width="15" height="30.694187691811578"/><rect x="727" y="328.15730654614265" width="15" height="41.57797914552748"/><rect x="743" y="312.8152621970094" width="15" height="49.06262774613538"/><rect x="759" y="299.3394861462541" width="15" height="49.69525126264"/><rect x="775" y="286.3746074153795" width="15" height="57.528800311086"/><rect x="791" y="275.97226191660764" width="15" height="58.74257552906147"/><rect x="807" y="216.3971853494956" width="15" height="58.243174130216005"/><rect x="823" y="188.18050939242406" width="15" height="52.67522399281884"/><rect x="839" y="267.3061788458826" width="15" height="49.73014182706123"/><rect x="855" y="279.74130071651734" width="15" height="44.302384600783"/><rect x="871" y="284.53947979707283" width="15" height="42.254988164765905"/><rect x="887" y="294.0014927844606" width="15" height="38.63637478212189"/><rect x="903" y="291.9121373769497" width="15" height="41.97750244386032"/><rect x="919" y="283.2706552098417" width="15" height="51.766360125043036"/></g><g class="x axis" transform="translate(0,440)"><g class="tick" transform="translate(14.5,0)" style="opacity: 1;"><line y2="0" x2="0"/><text dy=".71em" y="6" x="0" style="text-anchor: middle;">0</text></g><g class="tick" transform="translate(30.5,0)" style="opacity: 1;"><line y2="0" x2="0"/><text dy=".71em" y="6" x="0" style="text-anchor: middle;">1</text></g><g class="tick" transform="translate(46.5,0)" style="opacity: 1;"><line y2="0" x2="0"/><text dy=".71em" y="6" x="0" style="text-anchor: middle;">2</text></g><g class="tick" transform="translate(62.5,0)" style="opacity: 1;"><line y2="0" x2="0"/><text dy=".71em" y="6" x="0" style="text-anchor: middle;">3</text></g><g class="tick" transform="translate(78.5,0)" style="opacity: 1;"><line y2="0" x2="0"/><text dy=".71em" y="6" x="0" style="text-anchor: middle;">4</text></g><g class="tick" transform="translate(94.5,0)" style="opacity: 1;"><line y2="0" x2="0"/><text dy=".71em" y="6" x="0" style="text-anchor: middle;">5</text></g><g class="tick" transform="translate(110.5,0)" style="opacity: 1;"><line y2="0" x2="0"/><text dy=".71em" y="6" x="0" style="text-anchor: middle;">6</text></g><g class="tick" transform="translate(126.5,0)" style="opacity: 1;"><line y2="0" x2="0"/><text dy=".71em" y="6" x="0" style="text-anchor: middle;">7</text></g><g class="tick" transform="translate(142.5,0)" style="opacity: 1;"><line y2="0" x2="0"/><text dy=".71em" y="6" x="0" style="text-anchor: middle;">8</text></g><g class="tick" transform="translate(158.5,0)" style="opacity: 1;"><line y2="0" x2="0"/><text dy=".71em" y="6" x="0" style="text-anchor: middle;">9</text></g><g class="tick" transform="translate(174.5,0)" style="opacity: 1;"><line y2="0" x2="0"/><text dy=".71em" y="6" x="0" style="text-anchor: middle;">10</text></g><g class="tick" transform="translate(190.5,0)" style="opacity: 1;"><line y2="0" x2="0"/><text dy=".71em" y="6" x="0" style="text-anchor: middle;">11</text></g><g class="tick" transform="translate(206.5,0)" style="opacity: 1;"><line y2="0" x2="0"/><text dy=".71em" y="6" x="0" style="text-anchor: middle;">12</text></g><g class="tick" transform="translate(222.5,0)" style="opacity: 1;"><line y2="0" x2="0"/><text dy=".71em" y="6" x="0" style="text-anchor: middle;">13</text></g><g class="tick" transform="translate(238.5,0)" style="opacity: 1;"><line y2="0" x2="0"/><text dy=".71em" y="6" x="0" style="text-anchor: middle;">14</text></g><g class="tick" transform="translate(254.5,0)" style="opacity: 1;"><line y2="0" x2="0"/><text dy=".71em" y="6" x="0" style="text-anchor: middle;">15</text></g><g class="tick" transform="translate(270.5,0)" style="opacity: 1;"><line y2="0" x2="0"/><text dy=".71em" y="6" x="0" style="text-anchor: middle;">16</text></g><g class="tick" transform="translate(286.5,0)" style="opacity: 1;"><line y2="0" x2="0"/><text dy=".71em" y="6" x="0" style="text-anchor: middle;">17</text></g><g class="tick" transform="translate(302.5,0)" style="opacity: 1;"><line y2="0" x2="0"/><text dy=".71em" y="6" x="0" style="text-anchor: middle;">18</text></g><g class="tick" transform="translate(318.5,0)" style="opacity: 1;"><line y2="0" x2="0"/><text dy=".71em" y="6" x="0" style="text-anchor: middle;">19</text></g><g class="tick" transform="translate(334.5,0)" style="opacity: 1;"><line y2="0" x2="0"/><text dy=".71em" y="6" x="0" style="text-anchor: middle;">20</text></g><g class="tick" transform="translate(350.5,0)" style="opacity: 1;"><line y2="0" x2="0"/><text dy=".71em" y="6" x="0" style="text-anchor: middle;">21</text></g><g class="tick" transform="translate(366.5,0)" style="opacity: 1;"><line y2="0" x2="0"/><text dy=".71em" y="6" x="0" style="text-anchor: middle;">22</text></g><g class="tick" transform="translate(382.5,0)" style="opacity: 1;"><line y2="0" x2="0"/><text dy=".71em" y="6" x="0" style="text-anchor: middle;">23</text></g><g class="tick" transform="translate(398.5,0)" style="opacity: 1;"><line y2="0" x2="0"/><text dy=".71em" y="6" x="0" style="text-anchor: middle;">24</text></g><g class="tick" transform="translate(414.5,0)" style="opacity: 1;"><line y2="0" x2="0"/><text dy=".71em" y="6" x="0" style="text-anchor: middle;">25</text></g><g class="tick" transform="translate(430.5,0)" style="opacity: 1;"><line y2="0" x2="0"/><text dy=".71em" y="6" x="0" style="text-anchor: middle;">26</text></g><g class="tick" transform="translate(446.5,0)" style="opacity: 1;"><line y2="0" x2="0"/><text dy=".71em" y="6" x="0" style="text-anchor: middle;">27</text></g><g class="tick" transform="translate(462.5,0)" style="opacity: 1;"><line y2="0" x2="0"/><text dy=".71em" y="6" x="0" style="text-anchor: middle;">28</text></g><g class="tick" transform="translate(478.5,0)" style="opacity: 1;"><line y2="0" x2="0"/><text dy=".71em" y="6" x="0" style="text-anchor: middle;">29</text></g><g class="tick" transform="translate(494.5,0)" style="opacity: 1;"><line y2="0" x2="0"/><text dy=".71em" y="6" x="0" style="text-anchor: middle;">30</text></g><g class="tick" transform="translate(510.5,0)" style="opacity: 1;"><line y2="0" x2="0"/><text dy=".71em" y="6" x="0" style="text-anchor: middle;">31</text></g><g class="tick" transform="translate(526.5,0)" style="opacity: 1;"><line y2="0" x2="0"/><text dy=".71em" y="6" x="0" style="text-anchor: middle;">32</text></g><g class="tick" transform="translate(542.5,0)" style="opacity: 1;"><line y2="0" x2="0"/><text dy=".71em" y="6" x="0" style="text-anchor: middle;">33</text></g><g class="tick" transform="translate(558.5,0)" style="opacity: 1;"><line y2="0" x2="0"/><text dy=".71em" y="6" x="0" style="text-anchor: middle;">34</text></g><g class="tick" transform="translate(574.5,0)" style="opacity: 1;"><line y2="0" x2="0"/><text dy=".71em" y="6" x="0" style="text-anchor: middle;">35</text></g><g class="tick" transform="translate(590.5,0)" style="opacity: 1;"><line y2="0" x2="0"/><text dy=".71em" y="6" x="0" style="text-anchor: middle;">36</text></g><g class="tick" transform="translate(606.5,0)" style="opacity: 1;"><line y2="0" x2="0"/><text dy=".71em" y="6" x="0" style="text-anchor: middle;">37</text></g><g class="tick" transform="translate(622.5,0)" style="opacity: 1;"><line y2="0" x2="0"/><text dy=".71em" y="6" x="0" style="text-anchor: middle;">38</text></g><g class="tick" transform="translate(638.5,0)" style="opacity: 1;"><line y2="0" x2="0"/><text dy=".71em" y="6" x="0" style="text-anchor: middle;">39</text></g><g class="tick" transform="translate(654.5,0)" style="opacity: 1;"><line y2="0" x2="0"/><text dy=".71em" y="6" x="0" style="text-anchor: middle;">40</text></g><g class="tick" transform="translate(670.5,0)" style="opacity: 1;"><line y2="0" x2="0"/><text dy=".71em" y="6" x="0" style="text-anchor: middle;">41</text></g><g class="tick" transform="translate(686.5,0)" style="opacity: 1;"><line y2="0" x2="0"/><text dy=".71em" y="6" x="0" style="text-anchor: middle;">42</text></g><g class="tick" transform="translate(702.5,0)" style="opacity: 1;"><line y2="0" x2="0"/><text dy=".71em" y="6" x="0" style="text-anchor: middle;">43</text></g><g class="tick" transform="translate(718.5,0)" style="opacity: 1;"><line y2="0" x2="0"/><text dy=".71em" y="6" x="0" style="text-anchor: middle;">44</text></g><g class="tick" transform="translate(734.5,0)" style="opacity: 1;"><line y2="0" x2="0"/><text dy=".71em" y="6" x="0" style="text-anchor: middle;">45</text></g><g class="tick" transform="translate(750.5,0)" style="opacity: 1;"><line y2="0" x2="0"/><text dy=".71em" y="6" x="0" style="text-anchor: middle;">46</text></g><g class="tick" transform="translate(766.5,0)" style="opacity: 1;"><line y2="0" x2="0"/><text dy=".71em" y="6" x="0" style="text-anchor: middle;">47</text></g><g class="tick" transform="translate(782.5,0)" style="opacity: 1;"><line y2="0" x2="0"/><text dy=".71em" y="6" x="0" style="text-anchor: middle;">48</text></g><g class="tick" transform="translate(798.5,0)" style="opacity: 1;"><line y2="0" x2="0"/><text dy=".71em" y="6" x="0" style="text-anchor: middle;">49</text></g><g class="tick" transform="translate(814.5,0)" style="opacity: 1;"><line y2="0" x2="0"/><text dy=".71em" y="6" x="0" style="text-anchor: middle;">50</text></g><g class="tick" transform="translate(830.5,0)" style="opacity: 1;"><line y2="0" x2="0"/><text dy=".71em" y="6" x="0" style="text-anchor: middle;">51</text></g><g class="tick" transform="translate(846.5,0)" style="opacity: 1;"><line y2="0" x2="0"/><text dy=".71em" y="6" x="0" style="text-anchor: middle;">52</text></g><g class="tick" transform="translate(862.5,0)" style="opacity: 1;"><line y2="0" x2="0"/><text dy=".71em" y="6" x="0" style="text-anchor: middle;">53</text></g><g class="tick" transform="translate(878.5,0)" style="opacity: 1;"><line y2="0" x2="0"/><text dy=".71em" y="6" x="0" style="text-anchor: middle;">54</text></g><g class="tick" transform="translate(894.5,0)" style="opacity: 1;"><line y2="0" x2="0"/><text dy=".71em" y="6" x="0" style="text-anchor: middle;">55</text></g><g class="tick" transform="translate(910.5,0)" style="opacity: 1;"><line y2="0" x2="0"/><text dy=".71em" y="6" x="0" style="text-anchor: middle;">56</text></g><g class="tick" transform="translate(926.5,0)" style="opacity: 1;"><line y2="0" x2="0"/><text dy=".71em" y="6" x="0" style="text-anchor: middle;">57</text></g><path class="domain" d="M0,0V0H940V0"/></g></g></svg>